<svg xmlns="http://www.w3.org/2000/svg" width="190" height="172" viewBox="0 0 190 172">
  <g id="Group_1202417" data-name="Group 1202417" transform="translate(-1230.051 -390)">
    <g id="Group_1202002" data-name="Group 1202002" transform="translate(0 10)">
      <rect id="Rectangle_410977" data-name="Rectangle 410977" width="190" height="172" transform="translate(1230.051 380)" fill="#f0edfc"/>
      <g id="Group_1201261" data-name="Group 1201261" transform="translate(1261.568 428.717)">
        <g id="Group_1200259" data-name="Group 1200259" transform="translate(0 16.01)">
          <g id="Rectangle_410589" data-name="Rectangle 410589" fill="#ffeb00" stroke="#ffeb00" stroke-width="1">
            <rect width="126.61" height="43.021" rx="8" stroke="none"/>
            <rect x="0.5" y="0.5" width="125.61" height="42.021" rx="7.5" fill="none"/>
          </g>
        </g>
      </g>
    </g>
    <g id="impuesto-sobre-la-renta" transform="translate(1230.178 414.86)">
      <g id="Group_1202416" data-name="Group 1202416" transform="translate(42.363 16.864)">
        <path id="Path_1242748" data-name="Path 1242748" d="M173.34,23.3h64.283v88.563H173.34Z" transform="translate(-148.73 -23.3)" fill="#f4f6ce" fill-rule="evenodd"/>
        <path id="Path_1242749" data-name="Path 1242749" d="M156.124,117.532a19.411,19.411,0,1,1,19.408-19.414,19.412,19.412,0,0,1-19.408,19.414Z" transform="translate(-119.336 -67.764)" fill="#f6851f" fill-rule="evenodd"/>
        <path id="Path_1242750" data-name="Path 1242750" d="M177.285,133.454a14.207,14.207,0,1,1,14.205-14.207A14.2,14.2,0,0,1,177.285,133.454Z" transform="translate(-140.497 -88.893)" fill="#ffcd05" fill-rule="evenodd"/>
        <path id="Path_1242751" data-name="Path 1242751" d="M94.3,212.55c.851-.717,1.691-1.462,2.453-2.161,2.53-2.335,4.318-3.54,6.211-4.1,2.286-.683,4.239-2.918,7.481-4.468,8.125-3.88,10.578,3.757,4.346,6.586-4.553,2.4-8.3,4.587-8.3,5.359.006.589,19.9,2.683,22.314,1.557l12.538-5.863c4.5-2.1,8.769.93,4.636,3.678-5.164,3.433-19.805,13.932-24.313,15.163-2.823.269-23.715-.18-27.628-.128Z" transform="translate(-85.095 -165.687)" fill="#fad1a2" fill-rule="evenodd"/>
        <path id="Path_1242752" data-name="Path 1242752" d="M50.506,245.08l6.076.045a1.48,1.48,0,0,1,1.41,1.505l-.29,17.119a1.41,1.41,0,0,1-1.456,1.371l-6.076-.045a1.477,1.477,0,0,1-1.41-1.507l.29-17.119A1.407,1.407,0,0,1,50.506,245.08Z" transform="translate(-48.759 -201.27)" fill="#6abdc8" fill-rule="evenodd"/>
        <path id="Path_1242753" data-name="Path 1242753" d="M336.233,306.48a13.053,13.053,0,1,1-13.053,13.053A13.056,13.056,0,0,1,336.233,306.48Z" transform="translate(-268.971 -250.541)" fill="#fcb13b" fill-rule="evenodd"/>
        <path id="Path_1242754" data-name="Path 1242754" d="M361.33,61.51h19.537v11.8H361.33Z" transform="translate(-299.585 -53.962)" fill="#fcb13b" fill-rule="evenodd"/>
      </g>
      <path id="Path_1242755" data-name="Path 1242755" d="M67.98,33.321a17.855,17.855,0,0,0-5.231,20.909l1.725-1.2a15.767,15.767,0,1,1,7.617,8.31c-.745.4-1.468.784-2.139,1.16a17.833,17.833,0,1,0-1.971-29.18Zm6.995,57.746a1.578,1.578,0,0,1,0-3.157H89.439a1.578,1.578,0,1,1,0,3.157Zm0,7.963a1.581,1.581,0,0,1,0-3.163H89.439a1.581,1.581,0,0,1,0,3.163Zm29.133-53.144a1.578,1.578,0,0,1,0-3.157h19.537a1.578,1.578,0,1,1,0,3.157Zm0,7.963a1.581,1.581,0,0,1,0-3.163h19.537a1.581,1.581,0,0,1,0,3.163Zm0-31.021h19.537a1.582,1.582,0,0,1,1.578,1.584v11.8a1.577,1.577,0,0,1-1.578,1.578H104.108a1.576,1.576,0,0,1-1.578-1.578v-11.8a1.582,1.582,0,0,1,1.578-1.584Zm17.958,3.163H105.688v8.646h16.378Zm-8.018,52.966a1.58,1.58,0,1,1,2.234,2.234L104.949,92.53a1.58,1.58,0,0,1-2.234-2.234Zm.213,10.606a.74.74,0,0,0-1.047,1.047A.74.74,0,0,0,114.261,89.562Zm-.521-3.376a3.9,3.9,0,1,1-3.9,3.9A3.906,3.906,0,0,1,113.74,86.187Zm-7.7-5.091a.742.742,0,0,0-1.053,1.047A.742.742,0,0,0,106.036,81.1Zm2.234-2.234a3.9,3.9,0,1,1-5.519,0A3.9,3.9,0,0,1,108.27,78.862Zm1.355-7.639A14.632,14.632,0,1,1,94.993,85.855,14.634,14.634,0,0,1,109.625,71.223Zm8.107,6.519a11.471,11.471,0,1,0,0,16.222A11.469,11.469,0,0,0,117.732,77.742ZM44.115,59.1c2.027.016,4.087-.012,6.11.045a2.981,2.981,0,0,1,2.5,1.468c2.28-2.082,4.379-3.87,7.056-4.67a2.294,2.294,0,0,0,.241-.079,21,21,0,0,1,5.375-24.5v-14.5a1.582,1.582,0,0,1,1.578-1.584h64.283a1.582,1.582,0,0,1,1.578,1.584v88.557A1.577,1.577,0,0,1,131.256,107H66.973a1.577,1.577,0,0,1-1.578-1.578V81.056l-12.98-.146a3.027,3.027,0,0,1-2.576,1.377c-2.021-.016-4.081.006-6.1-.049a3.044,3.044,0,0,1-2.945-3.068q.151-8.575.29-17.146A2.974,2.974,0,0,1,44.115,59.1Zm9.016,5.365q-.119,6.652-.223,13.3c3.791.022,24.912.354,25.747.152,3.477-1.053,13.356-7.834,19.722-12.2,1.6-1.092,2.973-2.039,4-2.722.66-.437.946-.763.968-.974l-.006.006a1,1,0,0,0-.387-.269,4.589,4.589,0,0,0-3.674.3L86.738,67.914c-2.234,1.041-12.257.095-15.673-.253a44.988,44.988,0,0,1-6.949-1.175,1.578,1.578,0,0,1-1.78-.867c-.656-1.377.934-2.777,3.03-4.087.152-.095.308-.19.464-.29a1.547,1.547,0,0,1,.717-.425c1.371-.812,3-1.7,4.731-2.609l.213-.107c2.363-1.047,3.236-3.348,1.809-4.251-1.3-.824-3.842-.162-5.98,1.126-1.764,1.069-2.793,1.926-4.334,2.906-2.082,1.322-2.621.867-4.749,2.28A57.378,57.378,0,0,0,53.131,64.465Zm-3.113-2.173-5.8-.045-.286,16.848,5.8.04ZM68.551,81.1v22.745h61.124v-85.4H68.551V29.094a20.994,20.994,0,0,1,27,31.229l2.4-1.12c2.839-1.322,6.382-1.126,7.923.934a3.074,3.074,0,0,1,.626,2.1,4.647,4.647,0,0,1-2.38,3.388c-6.8,4.52-20,14.067-24.767,15.365-.713.2-6.228.152-10.794.107ZM67.04,64.359c-.045-.028-.085-.061-.128-.089-.061.034-.119.067-.174.095C66.832,64.364,66.933,64.364,67.04,64.359Zm.213-12.889a9.505,9.505,0,0,1,6.132-.946,1.582,1.582,0,0,1,3.074.516c0,2.033,3.007,3,4.664,1.523a2.056,2.056,0,0,0,.723-1.523c0-3.892-8.551-.381-8.551-7.637a5.505,5.505,0,0,1,4.273-5.2V37.039a1.581,1.581,0,0,1,3.163,0V38.2A5.5,5.5,0,0,1,85,43.4a1.578,1.578,0,1,1-3.157,0c0-2.033-3.012-3-4.67-1.529a2.063,2.063,0,0,0-.717,1.529c0,3.892,8.546.381,8.546,7.637a5.5,5.5,0,0,1-4.273,5.2V57.4a1.581,1.581,0,1,1-3.163,0v-1.16c-.174-.045-.348-.1-.521-.162a6.223,6.223,0,0,1-1.746,3.18,12.631,12.631,0,1,0-8.048-7.785Zm36.088,10.543c.006-.012,0,.006,0,.012v-.006Z"/>
    </g>
  </g>
</svg>
