<svg xmlns="http://www.w3.org/2000/svg" xmlns:xlink="http://www.w3.org/1999/xlink" width="126.61" height="68.656" viewBox="0 0 126.61 68.656">
  <defs>
    <clipPath id="clip-path">
      <path id="path1545" d="M0-682.665H68.656v68.656H0Z" transform="translate(0 682.665)"/>
    </clipPath>
  </defs>
  <g id="Group_1202577" data-name="Group 1202577" transform="translate(-4093.677 2030.677)">
    <g id="Group_1202444" data-name="Group 1202444">
      <g id="Group_1202239" data-name="Group 1202239" transform="translate(3303.896 -4590)">
        <g id="Group_1200259" data-name="Group 1200259" transform="translate(-6 557.578)">
          <g id="Rectangle_410589" data-name="Rectangle 410589" transform="translate(795.781 2013.422)" fill="#ffeb00" stroke="#ffeb00" stroke-width="1">
            <rect width="126.61" height="43.021" rx="8" stroke="none"/>
            <rect x="0.5" y="0.5" width="125.61" height="42.021" rx="7.5" fill="none"/>
          </g>
        </g>
      </g>
      <g id="g1539" transform="translate(4122.922 -1348.012)">
        <g id="g1541" transform="translate(0 -682.665)">
          <g id="g1543" clip-path="url(#clip-path)">
            <g id="g1549" transform="translate(1.006 1.006)">
              <path id="path1551" d="M-139.078-463.045a3.32,3.32,0,0,1-1.775-1.476l-13.329-23.086a3.332,3.332,0,0,1,1.22-4.552l38.477-22.215a3.332,3.332,0,0,1,4.552,1.22L-96.6-490.068a3.332,3.332,0,0,1-1.22,4.552l-6.958,4.017Z" transform="translate(154.629 514.821)" fill="#ffc200"/>
            </g>
            <g id="g1553" transform="translate(15.185 1.006)">
              <path id="path1555" d="M-392.12-221.369l-13.329-23.086a3.332,3.332,0,0,0-4.428-1.287,3.317,3.317,0,0,1,1.344,1.287l13.329,23.086a3.333,3.333,0,0,1-1.22,4.552l-6.958,4.017-32.583,17.532a3.32,3.32,0,0,0,1.372.921l34.3-18.454,6.958-4.017a3.332,3.332,0,0,0,1.22-4.552" transform="translate(435.966 246.122)" fill="#fe9900"/>
            </g>
            <g id="g1557" transform="translate(3.119 5.558)">
              <path id="path1559" d="M-415.6-34.411-459.845-8.864l-2.222-3.848,44.249-25.547Z" transform="translate(462.067 38.259)" fill="#004a84"/>
            </g>
            <g id="g1561" transform="translate(16.556 34.328)">
              <path id="path1563" d="M-456.949-268.209a3.332,3.332,0,0,1-3.332,3.332h-44.429a3.332,3.332,0,0,1-3.332-3.332v-26.658a3.332,3.332,0,0,1,3.332-3.332h44.429a3.332,3.332,0,0,1,3.332,3.332Z" transform="translate(508.043 298.199)" fill="#0068ae"/>
            </g>
            <g id="g1565" transform="translate(61.234 34.328)">
              <path id="path1567" d="M-27.582,0h-3.084a3.332,3.332,0,0,1,3.332,3.332V29.99a3.332,3.332,0,0,1-3.332,3.332h3.084A3.332,3.332,0,0,0-24.25,29.99V3.332A3.332,3.332,0,0,0-27.582,0" transform="translate(30.667)" fill="#004a84"/>
            </g>
            <g id="g1569" transform="translate(47.657 40.992)">
              <path id="path1571" d="M-9.594-39.734H1.589a1.073,1.073,0,0,0,1.073-1.073v-2.3a1.073,1.073,0,0,0-1.073-1.073H-9.594A1.073,1.073,0,0,0-10.667-43.1v2.3a1.073,1.073,0,0,0,1.073,1.073" transform="translate(10.667 44.177)" fill="#9be6ff"/>
            </g>
            <g id="g1573" transform="translate(56.862 40.992)">
              <path id="path1575" d="M-27.28,0h-3.05a1.073,1.073,0,0,1,1.073,1.073v2.3a1.073,1.073,0,0,1-1.073,1.073h3.05A1.073,1.073,0,0,0-26.207,3.37v-2.3A1.073,1.073,0,0,0-27.28,0" transform="translate(30.331)" fill="#55cbfc"/>
            </g>
            <g id="g1577" transform="translate(20.999 38.771)">
              <path id="path1579" d="M-89.742-79.47H-98.7a1.073,1.073,0,0,1-1.073-1.073v-6.74A1.073,1.073,0,0,1-98.7-88.356h8.962a1.073,1.073,0,0,1,1.073,1.073v6.74a1.073,1.073,0,0,1-1.073,1.073" transform="translate(99.777 88.356)" fill="#ffc200"/>
            </g>
            <g id="g1581" transform="translate(20.999 38.771)">
              <path id="path1583" d="M0-48.729H11.107V-50.74H6.559v-3.437H4.548v3.437H0Z" transform="translate(0 54.177)" fill="#fe9900"/>
            </g>
            <g id="g1585" transform="translate(45.054 5.558)">
              <path id="path1587" d="M0-11.943,2.221-8.1,4.534-9.431,2.313-13.279Z" transform="translate(0 13.279)" fill="#003165"/>
            </g>
            <g id="g1589" transform="translate(15.55 33.322)">
              <path id="path1591" d="M-296.652-306h-10.005A1.006,1.006,0,0,1-307.663-307a1.006,1.006,0,0,1,1.006-1.006h10.005a2.329,2.329,0,0,0,2.327-2.326v-26.658a2.329,2.329,0,0,0-2.327-2.327h-44.429a2.329,2.329,0,0,0-2.327,2.327v26.658a2.329,2.329,0,0,0,2.327,2.326h30.4A1.006,1.006,0,0,1-309.675-307,1.006,1.006,0,0,1-310.68-306h-30.4a4.343,4.343,0,0,1-4.338-4.338v-26.658a4.343,4.343,0,0,1,4.338-4.338h44.429a4.343,4.343,0,0,1,4.338,4.338v26.658A4.343,4.343,0,0,1-296.652-306Z" transform="translate(345.419 341.333)"/>
            </g>
            <g id="g1593" transform="translate(19.475 -0.001)">
              <path id="path1595" d="M21.377-97.78a1,1,0,0,1-.872-.5,1.006,1.006,0,0,1,.368-1.374l6.958-4.017a2.311,2.311,0,0,0,1.084-1.413,2.311,2.311,0,0,0-.232-1.765L15.354-129.938a2.311,2.311,0,0,0-1.413-1.084,2.311,2.311,0,0,0-1.765.232L-8.493-118.856a1.006,1.006,0,0,1-1.374-.368A1.006,1.006,0,0,1-9.5-120.6l20.669-11.933a4.309,4.309,0,0,1,3.292-.433,4.309,4.309,0,0,1,2.634,2.021l13.329,23.086a4.309,4.309,0,0,1,.433,3.292,4.309,4.309,0,0,1-2.021,2.634l-6.958,4.017A1,1,0,0,1,21.377-97.78Z" transform="translate(10.002 133.115)"/>
            </g>
            <g id="g1597" transform="translate(-0.001 14.463)">
              <path id="path1599" d="M-148.084-341.691a1,1,0,0,1-.335-.058,4.339,4.339,0,0,1-2.311-1.921l-13.329-23.086a4.309,4.309,0,0,1-.433-3.292,4.309,4.309,0,0,1,2.021-2.634l14.2-8.2a1.006,1.006,0,0,1,1.374.368,1.006,1.006,0,0,1-.368,1.374l-14.2,8.2a2.311,2.311,0,0,0-1.084,1.413,2.311,2.311,0,0,0,.232,1.765l13.329,23.086a2.326,2.326,0,0,0,1.239,1.03,1.006,1.006,0,0,1,.614,1.283A1.006,1.006,0,0,1-148.084-341.691Z" transform="translate(164.643 381.015)"/>
            </g>
            <g id="g1601" transform="translate(2.113 4.553)">
              <path id="path1603" d="M-426.814-48.259a1,1,0,0,1,.26.034,1,1,0,0,1,.611.469l2.221,3.848a1.006,1.006,0,0,1-.368,1.374l-44.249,25.547a1.006,1.006,0,0,1-.763.1,1.006,1.006,0,0,1-.611-.469l-2.221-3.848a1.006,1.006,0,0,1,.368-1.374l44.249-25.547A1.006,1.006,0,0,1-426.814-48.259Zm.848,4.485-1.216-2.106-42.507,24.541,1.216,2.106Z" transform="translate(472.069 48.259)"/>
            </g>
            <g id="g1605" transform="translate(40.67 20.241)">
              <path id="path1607" d="M-104.643-2.436a1,1,0,0,1-.872-.5,1.006,1.006,0,0,1,.368-1.374l9.619-5.554a1.006,1.006,0,0,1,1.374.368,1.006,1.006,0,0,1-.368,1.374l-9.619,5.554A1,1,0,0,1-104.643-2.436Z" transform="translate(105.649 10.002)"/>
            </g>
            <g id="g1609" transform="translate(48.663 24.089)">
              <path id="path1611" d="M-47.253-5.768a1,1,0,0,1-.872-.5,1.006,1.006,0,0,1,.368-1.374l3.848-2.222a1.006,1.006,0,0,1,1.374.368A1.006,1.006,0,0,1-42.9-8.125L-46.751-5.9A1,1,0,0,1-47.253-5.768Z" transform="translate(48.26 10.002)"/>
            </g>
            <g id="g1613" transform="translate(46.651 39.987)">
              <path id="path1615" d="M-7.4-47.723H-18.588A2.081,2.081,0,0,1-20.667-49.8v-2.3a2.081,2.081,0,0,1,2.078-2.078H-7.4A2.081,2.081,0,0,1-5.326-52.1v2.3A2.081,2.081,0,0,1-7.4-47.723Zm-11.183-4.443-.067,2.364,11.25.067a.067.067,0,0,0,.067-.067v-2.3Z" transform="translate(20.667 54.177)"/>
            </g>
            <g id="g1617" transform="translate(19.993 37.765)">
              <path id="path1619" d="M-98.737-87.458H-107.7a2.081,2.081,0,0,1-2.078-2.078v-6.74a2.081,2.081,0,0,1,2.078-2.078h8.962a2.081,2.081,0,0,1,2.078,2.078v6.74A2.081,2.081,0,0,1-98.737-87.458Zm-8.962-8.886-.067,6.808,9.029.067a.067.067,0,0,0,.067-.067v-6.74Z" transform="translate(109.777 98.356)"/>
            </g>
            <g id="g1621" transform="translate(25.547 37.765)">
              <path id="path1623" d="M-8.994-3.546A1.006,1.006,0,0,1-10-4.551V-8.994A1.006,1.006,0,0,1-8.994-10,1.006,1.006,0,0,1-7.989-8.994v4.443A1.006,1.006,0,0,1-8.994-3.546Z" transform="translate(10 10)"/>
            </g>
            <g id="g1625" transform="translate(19.993 42.208)">
              <path id="path1627" d="M2.113-7.989H-8.994A1.006,1.006,0,0,1-10-8.994,1.006,1.006,0,0,1-8.994-10H2.113A1.006,1.006,0,0,1,3.119-8.994,1.006,1.006,0,0,1,2.113-7.989Z" transform="translate(10 10)"/>
            </g>
            <g id="g1629" transform="translate(19.993 57.758)">
              <path id="path1631" d="M-4.551-7.989H-8.994A1.006,1.006,0,0,1-10-8.994,1.006,1.006,0,0,1-8.994-10h4.443A1.006,1.006,0,0,1-3.546-8.994,1.006,1.006,0,0,1-4.551-7.989Z" transform="translate(10 10)"/>
            </g>
            <g id="g1633" transform="translate(28.879 57.758)">
              <path id="path1635" d="M4.335-7.989H-8.994A1.006,1.006,0,0,1-10-8.994,1.006,1.006,0,0,1-8.994-10H4.335A1.006,1.006,0,0,1,5.34-8.994,1.006,1.006,0,0,1,4.335-7.989Z" transform="translate(10 10)"/>
            </g>
            <g id="g1637" transform="translate(46.651 57.758)">
              <path id="path1639" d="M-2.33-7.989H-8.994A1.006,1.006,0,0,1-10-8.994,1.006,1.006,0,0,1-8.994-10H-2.33A1.006,1.006,0,0,1-1.324-8.994,1.006,1.006,0,0,1-2.33-7.989Z" transform="translate(10 10)"/>
            </g>
          </g>
        </g>
      </g>
    </g>
  </g>
</svg>
