<svg xmlns="http://www.w3.org/2000/svg" width="126.61" height="69.218" viewBox="0 0 126.61 69.218">
  <g id="Group_1202579" data-name="Group 1202579" transform="translate(-1105.051 -9558.183)">
    <g id="Group_1202237" data-name="Group 1202237" transform="translate(315.27 7000.131)">
      <g id="Group_1200259" data-name="Group 1200259" transform="translate(-6 557.578)">
        <g id="Rectangle_410589" data-name="Rectangle 410589" transform="translate(795.781 2013.422)" fill="#b7a8f1" stroke="#ffeb00" stroke-width="1">
          <rect width="126.61" height="43.021" rx="8" stroke="none"/>
          <rect x="0.5" y="0.5" width="125.61" height="42.021" rx="7.5" fill="none"/>
        </g>
      </g>
    </g>
    <g id="patrimonio" transform="translate(1133.051 9558.183)">
      <g id="Group_1202437" data-name="Group 1202437" transform="translate(1.113 1.338)">
        <g id="Group_1202422" data-name="Group 1202422" transform="translate(4.451 42.286)">
          <path id="Path_1242793" data-name="Path 1242793" d="M35.045,46.992l5.364,1.536a3.361,3.361,0,0,1,2.114,1.8H40.609a2.232,2.232,0,0,0-2.226,2.226v2.226H9.451V51.443A1.116,1.116,0,0,0,8.338,50.33H5V47.6l5.564-.612,2.181-5.1a4.453,4.453,0,0,1,4.1-2.693H29.459a4.447,4.447,0,0,1,4.284,3.227Z" transform="translate(-5 -39.202)" fill="#ff826e"/>
        </g>
        <g id="Group_1202423" data-name="Group 1202423" transform="translate(37.835 53.414)">
          <path id="Path_1242794" data-name="Path 1242794" d="M39.451,50.6v3.049H35V51.428A2.232,2.232,0,0,1,37.226,49.2H39.14A3.276,3.276,0,0,1,39.451,50.6Z" transform="translate(-35 -49.202)" fill="#fcd770"/>
        </g>
        <g id="Group_1202424" data-name="Group 1202424" transform="translate(4.451 53.414)">
          <path id="Path_1242795" data-name="Path 1242795" d="M9.451,50.315v3.338H5V49.2H8.338A1.116,1.116,0,0,1,9.451,50.315Z" transform="translate(-5 -49.202)" fill="#fcd770"/>
        </g>
        <g id="Group_1202425" data-name="Group 1202425" transform="translate(0 50.687)">
          <path id="Path_1242796" data-name="Path 1242796" d="M3.971,46.919l1.48-.167v7.177H1V50.246a3.348,3.348,0,0,1,2.971-3.327Z" transform="translate(-1 -46.752)" fill="#fcd770"/>
        </g>
        <g id="Group_1202426" data-name="Group 1202426" transform="translate(26.707 57.865)">
          <circle id="Ellipse_13346" data-name="Ellipse 13346" cx="4.451" cy="4.451" r="4.451" fill="#969faa"/>
        </g>
        <g id="Group_1202427" data-name="Group 1202427" transform="translate(4.451 57.865)">
          <circle id="Ellipse_13347" data-name="Ellipse 13347" cx="4.451" cy="4.451" r="4.451" fill="#969faa"/>
        </g>
        <g id="Group_1202428" data-name="Group 1202428" transform="translate(31.158 57.865)">
          <path id="Path_1242797" data-name="Path 1242797" d="M40.128,53.2V56.54a1.116,1.116,0,0,1-1.113,1.113H33.451A4.45,4.45,0,0,0,29,53.2H40.128Z" transform="translate(-29 -53.202)" fill="#ccd1d9"/>
        </g>
        <g id="Group_1202429" data-name="Group 1202429" transform="translate(8.902 57.865)">
          <path id="Path_1242798" data-name="Path 1242798" d="M9,53.2H31.256A4.45,4.45,0,0,0,26.8,57.653H13.451A4.45,4.45,0,0,0,9,53.2Z" transform="translate(-9 -53.202)" fill="#ccd1d9"/>
        </g>
        <g id="Group_1202430" data-name="Group 1202430" transform="translate(0 57.865)">
          <path id="Path_1242799" data-name="Path 1242799" d="M5.451,53.2H9.9a4.45,4.45,0,0,0-4.451,4.451H2.113A1.116,1.116,0,0,1,1,56.54V53.2Z" transform="translate(-1 -53.202)" fill="#ccd1d9"/>
        </g>
        <g id="Group_1202431" data-name="Group 1202431" transform="translate(48.963 12.241)">
          <path id="Path_1242800" data-name="Path 1242800" d="M57.241,14.428l-2.226,5.564H48.338L45,16.653l3.338-3.338,3.338,1.113L52.79,12.2Z" transform="translate(-45 -12.202)" fill="#d3a06c"/>
        </g>
        <g id="Group_1202432" data-name="Group 1202432" transform="translate(44.512 20.03)">
          <path id="Path_1242801" data-name="Path 1242801" d="M48.79,19.2h6.677l4.062,3.483a10.67,10.67,0,0,1-6.944,18.773h-.912a10.673,10.673,0,0,1-10.527-8.9A10.355,10.355,0,0,1,41,30.786a10.675,10.675,0,0,1,3.728-8.1Z" transform="translate(-41 -19.202)" fill="#cf9e76"/>
        </g>
        <g id="Group_1202433" data-name="Group 1202433" transform="translate(2.226)">
          <path id="Path_1242802" data-name="Path 1242802" d="M29.373,10.1a4.266,4.266,0,0,1,.334,1.168,2.166,2.166,0,0,1-2.17,2.17h-.056L16.353,5.653,5.226,13.443H5.17a2.175,2.175,0,0,1-1.2-3.984L16.353,1.2,28.739,9.459Z" transform="translate(-3 -1.202)" fill="#ff826e"/>
        </g>
        <g id="Group_1202434" data-name="Group 1202434" transform="translate(4.451 4.451)">
          <path id="Path_1242803" data-name="Path 1242803" d="M16.128,5.2,5,12.992V28.571a1.116,1.116,0,0,0,1.113,1.113h20.03a1.116,1.116,0,0,0,1.113-1.113V12.992Z" transform="translate(-5 -5.202)" fill="#e6e9ed"/>
        </g>
        <g id="Group_1202435" data-name="Group 1202435" transform="translate(15.579 46.737)">
          <path id="Path_1242804" data-name="Path 1242804" d="M27.452,44.048l.9,3.605H15l.9-3.605a1.107,1.107,0,0,1,1.079-.846h9.392A1.107,1.107,0,0,1,27.452,44.048Z" transform="translate(-15 -43.202)" fill="#69d6f4"/>
        </g>
        <g id="Group_1202436" data-name="Group 1202436" transform="translate(11.128 11.128)">
          <path id="Path_1242805" data-name="Path 1242805" d="M19.9,15.653V29.007H11V15.653a4.451,4.451,0,1,1,8.9,0Z" transform="translate(-11 -11.202)" fill="#69d6f4"/>
        </g>
      </g>
      <g id="Group_1202438" data-name="Group 1202438" transform="translate(0 0)">
        <path id="Path_1242806" data-name="Path 1242806" d="M28,56.2h2.226v2.226H28Z" transform="translate(3.158 6.339)"/>
        <path id="Path_1242807" data-name="Path 1242807" d="M8,56.2h2.226v2.226H8Z" transform="translate(0.902 6.339)"/>
        <path id="Path_1242808" data-name="Path 1242808" d="M14.966,43.889l-1.247,4.99h16.2l-1.247-4.99A2.222,2.222,0,0,0,26.517,42.2h-9.39A2.223,2.223,0,0,0,14.966,43.889Zm12.106,2.764H22.934V44.428h3.582Zm-9.946-2.226h3.582v2.226H16.57Z" transform="translate(1.547 4.76)"/>
        <path id="Path_1242809" data-name="Path 1242809" d="M52.451,24.632V22.2H50.226v2.226H48v3.338A3.342,3.342,0,0,0,51.338,31.1a1.114,1.114,0,0,1,1.113,1.113V33.33H51.338a1.114,1.114,0,0,1-1.113-1.113V31.1H48v1.113a3.334,3.334,0,0,0,2.226,3.134v2.43h2.226V35.555h2.226V32.217a3.342,3.342,0,0,0-3.338-3.338,1.114,1.114,0,0,1-1.113-1.113V26.653h1.113a1.114,1.114,0,0,1,1.113,1.113v1.113h2.226V27.766a3.335,3.335,0,0,0-2.226-3.134Z" transform="translate(5.414 2.504)"/>
        <path id="Path_1242810" data-name="Path 1242810" d="M64.878,24.006l-3.459-2.964,2.31-5.775-5.864-2.932v-.981a2.228,2.228,0,0,0-2.226-2.226H30.227a3.3,3.3,0,0,0-.533-.458L16.692,0l-13,8.669a3.269,3.269,0,0,0,.762,5.823V29.157a2.228,2.228,0,0,0,2.226,2.226h20.03a2.228,2.228,0,0,0,2.226-2.226V14.5a3.282,3.282,0,0,0,2.226-3.1c0-.018-.006-.033-.007-.051H55.639V14.26l-2.526-.842L48.5,18.03l3.275,3.275-3.15,2.7a11.768,11.768,0,0,0-4.115,8.946c0,.221.021.437.033.657H24.481a2.228,2.228,0,0,0-2.226,2.226v6.677H17.4a5.557,5.557,0,0,0-5.114,3.373l-1.926,4.495-6.4.711A4.449,4.449,0,0,0,0,55.515v7.026a2.228,2.228,0,0,0,2.226,2.226H4.564a5.564,5.564,0,0,0,10.9,0H26.819a5.564,5.564,0,0,0,10.9,0h4.564a2.228,2.228,0,0,0,2.226-2.226V56.157a4.473,4.473,0,0,0-3.228-4.281l-4.774-1.363-1.134-3.966a5.587,5.587,0,0,0-5.35-4.036H24.481V35.834h20.4a11.8,11.8,0,0,0,11.413,8.9h.914a11.783,11.783,0,0,0,7.668-20.73ZM20.03,18.029v2.226H17.8V18.029Zm0,4.451v2.226H17.8V22.481Zm0,4.451v2.226H17.8V26.932ZM13.558,15.8a3.319,3.319,0,0,1,6.267,0Zm-.2,2.226h2.226v2.226H13.353Zm0,4.451h2.226v2.226H13.353Zm0,4.451h2.226v2.226H13.353Zm8.9,2.226V16.917a5.564,5.564,0,1,0-11.128,0V29.157H6.677v-15L16.692,7.147l10.015,7.011v15Zm5.862-16.729-11.426-8-11.434,8a1.062,1.062,0,0,1-.334-1.914L16.692,2.675,28.46,10.52a1.056,1.056,0,0,1-.342,1.908ZM14.437,60.315h13.41a5.51,5.51,0,0,0-1.028,2.226H15.467A5.512,5.512,0,0,0,14.437,60.315ZM8.9,58.09H6.677V55.864H8.9ZM4.205,53.3l.246-.027V58.09H2.226V55.515A2.225,2.225,0,0,1,4.205,53.3Zm-1.98,7.014H5.593a5.51,5.51,0,0,0-1.028,2.226H2.226Zm7.79,6.677a3.338,3.338,0,1,1,3.338-3.338A3.342,3.342,0,0,1,10.015,66.992Zm22.256,0a3.338,3.338,0,1,1,3.338-3.338A3.342,3.342,0,0,1,32.271,66.992Zm5.452-4.451a5.525,5.525,0,0,0-1.028-2.226h5.592v2.226Zm3.451-6.677h1.064a2.008,2.008,0,0,1,.049.293V58.09H40.06V56.977A1.114,1.114,0,0,1,41.173,55.864Zm-7.936-8.706,1.472,5.156,5.354,1.53a3.332,3.332,0,0,0-2.228,3.134V58.09H11.128V55.864A2.228,2.228,0,0,0,8.9,53.639H6.677v-.611l5.218-.58,2.438-5.687A3.334,3.334,0,0,1,17.4,44.737H30.025a3.353,3.353,0,0,1,3.212,2.42ZM53.714,15.965l3.6,1.2,1.047-2.093,2.54,1.271-1.566,3.914H53.875L51.649,18.03Zm3.5,26.546H56.3A9.558,9.558,0,0,1,50.077,25.7l3.751-3.215h5.853L63.429,25.7A9.557,9.557,0,0,1,57.21,42.511Z" transform="translate(0 0)"/>
        <path id="Path_1242811" data-name="Path 1242811" d="M44,42.2h2.226v2.226H44Z" transform="translate(4.963 4.76)"/>
        <path id="Path_1242812" data-name="Path 1242812" d="M50,42.2h2.226v2.226H50Z" transform="translate(5.639 4.76)"/>
        <path id="Path_1242813" data-name="Path 1242813" d="M56,42.2h2.226v2.226H56Z" transform="translate(6.316 4.76)"/>
      </g>
    </g>
  </g>
</svg>
