<svg xmlns="http://www.w3.org/2000/svg" width="126.61" height="69.979" viewBox="0 0 126.61 69.979">
  <g id="Group_1202575" data-name="Group 1202575" transform="translate(-4757.677 2032)">
    <g id="Group_1202447" data-name="Group 1202447">
      <g id="Group_1202241" data-name="Group 1202241" transform="translate(3967.896 -4590)">
        <g id="Group_1200259" data-name="Group 1200259" transform="translate(-6 557.578)">
          <g id="Rectangle_410589" data-name="Rectangle 410589" transform="translate(795.781 2013.422)" fill="#ffeb00" stroke="#ffeb00" stroke-width="1">
            <rect width="126.61" height="43.021" rx="8" stroke="none"/>
            <rect x="0.5" y="0.5" width="125.61" height="42.021" rx="7.5" fill="none"/>
          </g>
        </g>
      </g>
      <g id="banco" transform="translate(4785.261 -2033)">
        <path id="Path_1242838" data-name="Path 1242838" d="M5,12H65.949V34.574H5Z" transform="translate(0.515 1.416)" fill="#c0dafc"/>
        <path id="Path_1242839" data-name="Path 1242839" d="M19,16h6.772V29.544H19Z" transform="translate(2.316 1.93)" fill="#f2f2f2"/>
        <path id="Path_1242840" data-name="Path 1242840" d="M2,32H69.721V43.287H2Z" transform="translate(0.129 3.989)" fill="#5e87ca"/>
        <path id="Path_1242841" data-name="Path 1242841" d="M66.335,37.643V32H2v7.9H64.078A2.257,2.257,0,0,0,66.335,37.643Z" transform="translate(0.129 3.989)" fill="#78a0d4"/>
        <path id="Path_1242842" data-name="Path 1242842" d="M2,6H69.721v6.772H2Z" transform="translate(0.129 0.643)" fill="#5e87ca"/>
        <path id="Path_1242843" data-name="Path 1242843" d="M66.335,8.257V6H2V9.386H65.206A1.129,1.129,0,0,0,66.335,8.257Z" transform="translate(0.129 0.643)" fill="#78a0d4"/>
        <path id="Path_1242844" data-name="Path 1242844" d="M29,16h6.772V29.544H29Z" transform="translate(3.603 1.93)" fill="#f2f2f2"/>
        <path id="Path_1242845" data-name="Path 1242845" d="M39,16h6.772V29.544H39Z" transform="translate(4.89 1.93)" fill="#f2f2f2"/>
        <path id="Path_1242846" data-name="Path 1242846" d="M49,16h6.772V29.544H49Z" transform="translate(6.177 1.93)" fill="#f2f2f2"/>
        <g id="Group_1202446" data-name="Group 1202446" transform="translate(21.316 17.93)">
          <path id="Path_1242847" data-name="Path 1242847" d="M49,16h4.515V27.287H49Z" transform="translate(-15.139 -16)" fill="#fff"/>
          <path id="Path_1242848" data-name="Path 1242848" d="M39,16h4.515V27.287H39Z" transform="translate(-16.426 -16)" fill="#fff"/>
          <path id="Path_1242849" data-name="Path 1242849" d="M29,16h4.515V27.287H29Z" transform="translate(-17.713 -16)" fill="#fff"/>
          <path id="Path_1242850" data-name="Path 1242850" d="M19,16h4.515V27.287H19Z" transform="translate(-19 -16)" fill="#fff"/>
        </g>
        <path id="Path_1242851" data-name="Path 1242851" d="M4,42V64.574H67.206V42" transform="translate(0.386 5.276)" fill="#c0dafc"/>
        <path id="Path_1242852" data-name="Path 1242852" d="M20,60.059V43.773L22.483,42h2.032V60.059Z" transform="translate(2.445 5.276)" fill="#5e87ca"/>
        <path id="Path_1242853" data-name="Path 1242853" d="M44.515,60.059V43.773L42.032,42H40V60.059Z" transform="translate(5.019 5.276)" fill="#5e87ca"/>
        <path id="Path_1242854" data-name="Path 1242854" d="M44.322,42.9H22.2L33.261,35Z" transform="translate(2.728 4.375)" fill="#3b5892"/>
        <path id="Path_1242855" data-name="Path 1242855" d="M34.188,35.643l15.8,11.287,3.386-3.386L34.188,30,15,43.544l3.386,3.386Z" transform="translate(1.802 3.732)" fill="#4c6cb5"/>
        <circle id="Ellipse_13348" data-name="Ellipse 13348" cx="10" cy="10" r="10" transform="translate(26 2)" fill="#f0ae42"/>
        <path id="Path_1242856" data-name="Path 1242856" d="M41.056,11.028A10.148,10.148,0,0,0,36.567,2.6a10.158,10.158,0,0,0-9.081,17.989,10.137,10.137,0,0,0,13.57-9.559Z" transform="translate(2.834 0.131)" fill="#f9d266"/>
        <path id="Path_1242857" data-name="Path 1242857" d="M37.029,9.643V8.515a3.386,3.386,0,0,0-3.386-3.386V4H31.386V5.129A3.386,3.386,0,0,0,28,8.515V9.643a3.386,3.386,0,0,0,3.386,3.386v3.386a1.129,1.129,0,0,1-1.129-1.129V14.158H28v1.129a3.386,3.386,0,0,0,3.386,3.386V19.8h2.257V18.673a3.386,3.386,0,0,0,3.386-3.386V14.158a3.386,3.386,0,0,0-3.386-3.386V7.386a1.129,1.129,0,0,1,1.129,1.129V9.643Zm-2.257,4.515v1.129a1.129,1.129,0,0,1-1.129,1.129V13.029A1.129,1.129,0,0,1,34.772,14.158Zm-3.386-3.386a1.129,1.129,0,0,1-1.129-1.129V8.515a1.129,1.129,0,0,1,1.129-1.129Z" transform="translate(3.475 0.386)" fill="#d5883e"/>
        <path id="Path_1242858" data-name="Path 1242858" d="M9,16h6.772V29.544H9Z" transform="translate(1.029 1.93)" fill="#f2f2f2"/>
        <path id="Path_1242859" data-name="Path 1242859" d="M18,62.515V58h9.029v4.515" transform="translate(2.188 7.335)" fill="#4c6cb5"/>
        <path id="Path_1242860" data-name="Path 1242860" d="M38,62.515V58h9.029v4.515" transform="translate(4.761 7.335)" fill="#4c6cb5"/>
        <path id="Path_1242861" data-name="Path 1242861" d="M29,63.673V52.386a3.386,3.386,0,1,1,6.772,0V63.673" transform="translate(3.603 6.177)" fill="#4c6cb5"/>
        <path id="Path_1242862" data-name="Path 1242862" d="M48,47h9.029V57.158H48Z" transform="translate(6.048 5.92)" fill="#f2f2f2"/>
        <path id="Path_1242863" data-name="Path 1242863" d="M48,47h6.772v7.9H48Z" transform="translate(6.048 5.92)" fill="#fff"/>
        <path id="Path_1242864" data-name="Path 1242864" d="M8,47h9.029V57.158H8Z" transform="translate(0.901 5.92)" fill="#f2f2f2"/>
        <path id="Path_1242865" data-name="Path 1242865" d="M8,47h6.772v7.9H8Z" transform="translate(0.901 5.92)" fill="#fff"/>
        <path id="Path_1242866" data-name="Path 1242866" d="M9,16h4.515V27.287H9Z" transform="translate(1.029 1.93)" fill="#fff"/>
        <path id="Path_1242867" data-name="Path 1242867" d="M31.386,18.673V19.8h2.257V18.673a3.386,3.386,0,0,0,3.386-3.386V14.158a3.386,3.386,0,0,0-3.386-3.386V7.386a1.129,1.129,0,0,1,1.129,1.129V9.643h2.257V8.515a3.386,3.386,0,0,0-3.386-3.386V4H31.386V5.129A3.386,3.386,0,0,0,28,8.515V9.643a3.386,3.386,0,0,0,3.386,3.386v3.386a1.129,1.129,0,0,1-1.129-1.129V14.158H28v1.129A3.386,3.386,0,0,0,31.386,18.673ZM30.257,9.643V8.515a1.129,1.129,0,0,1,1.129-1.129v3.386A1.129,1.129,0,0,1,30.257,9.643Zm3.386,3.386a1.129,1.129,0,0,1,1.129,1.129v1.129a1.129,1.129,0,0,1-1.129,1.129Z" transform="translate(3.475 0.386)"/>
        <path id="Path_1242868" data-name="Path 1242868" d="M69.85,14.544a1.129,1.129,0,0,0,1.129-1.129V6.643A1.129,1.129,0,0,0,69.85,5.515H45a11.244,11.244,0,0,0-18.016,0H2.129A1.129,1.129,0,0,0,1,6.643v6.772a1.129,1.129,0,0,0,1.129,1.129H4.386V34.861H2.129A1.129,1.129,0,0,0,1,35.989V47.276A1.129,1.129,0,0,0,2.129,48.4H3.257V69.85a1.129,1.129,0,0,0,1.129,1.129H67.592a1.129,1.129,0,0,0,1.129-1.129V48.4H69.85a1.129,1.129,0,0,0,1.129-1.129V35.989a1.129,1.129,0,0,0-1.129-1.129H67.592V14.544ZM68.721,7.772v4.515H47.276a11.208,11.208,0,0,0-.95-4.516Zm-23.7,11.287h4.515V30.346H45.019Zm-9.029-15.8a9.029,9.029,0,1,1-9.029,9.029,9.029,9.029,0,0,1,9.029-9.029ZM33.732,23.348a11.287,11.287,0,0,0,4.515,0v7H33.732ZM3.257,7.772H25.652a11.207,11.207,0,0,0-.949,4.515H3.257Zm0,29.346H29.235L16.443,46.147H3.257Zm34.989,31.6H33.732V58.563a2.257,2.257,0,1,1,4.515,0ZM35.989,54.048a4.515,4.515,0,0,0-4.515,4.515V68.721H30.346V65.335a1.129,1.129,0,0,0-1.129-1.129H28.088V48.4h15.8v15.8H42.761a1.129,1.129,0,0,0-1.129,1.129v3.386H40.5V58.563A4.515,4.515,0,0,0,35.989,54.048ZM25.29,48.4h.541v15.8H23.574V49.631Zm2.8,18.059v2.257H21.316V66.464Zm.362-20.316,7.538-5.385,7.538,5.385ZM43.89,66.464h6.772v2.257H43.89Zm2.257-2.257V48.4h.541L48.4,49.631V64.206Zm-9.5-25.75a1.129,1.129,0,0,0-1.312,0L20.31,49.188l-1.762-1.763L35.989,35.113,53.431,47.425l-1.762,1.763ZM5.515,48.4h10.82L19.39,51.46a1.129,1.129,0,0,0,1.454.121l.473-.339V64.206H20.188a1.129,1.129,0,0,0-1.129,1.129v3.386H5.515ZM66.464,68.721H52.92V65.335a1.129,1.129,0,0,0-1.129-1.129H50.662V51.243l.473.339a1.129,1.129,0,0,0,1.454-.121L55.644,48.4h10.82Zm2.257-22.574H55.536L42.743,37.118H68.721ZM65.335,34.861H39.546L36.641,32.81a1.129,1.129,0,0,0-1.3,0l-2.905,2.051H6.643V14.544H24.928a11.174,11.174,0,0,0,.721,2.257H21.316a1.129,1.129,0,0,0-1.129,1.129V31.475A1.129,1.129,0,0,0,21.316,32.6h6.772a1.129,1.129,0,0,0,1.129-1.129V21.295a11.277,11.277,0,0,0,2.257,1.33v8.85A1.129,1.129,0,0,0,32.6,32.6h6.772A1.129,1.129,0,0,0,40.5,31.475v-8.85a11.277,11.277,0,0,0,2.257-1.33v10.18A1.129,1.129,0,0,0,43.89,32.6h6.772a1.129,1.129,0,0,0,1.129-1.129V17.93A1.129,1.129,0,0,0,50.662,16.8H46.327a11.174,11.174,0,0,0,.721-2.257H65.335ZM26.96,19.059V30.346H22.445V19.059Z"/>
        <path id="Path_1242869" data-name="Path 1242869" d="M15.9,15H9.129A1.129,1.129,0,0,0,8,16.129V29.673A1.129,1.129,0,0,0,9.129,30.8H15.9a1.129,1.129,0,0,0,1.129-1.129V16.129A1.129,1.129,0,0,0,15.9,15ZM14.772,28.544H10.257V17.257h4.515Z" transform="translate(0.901 1.802)"/>
        <path id="Path_1242870" data-name="Path 1242870" d="M49.129,30.8H55.9a1.129,1.129,0,0,0,1.129-1.129V16.129A1.129,1.129,0,0,0,55.9,15H49.129A1.129,1.129,0,0,0,48,16.129V29.673A1.129,1.129,0,0,0,49.129,30.8Zm1.129-13.544h4.515V28.544H50.257Z" transform="translate(6.048 1.802)"/>
        <path id="Path_1242871" data-name="Path 1242871" d="M48.129,46A1.129,1.129,0,0,0,47,47.129V57.287a1.129,1.129,0,0,0,1.129,1.129h9.029a1.129,1.129,0,0,0,1.129-1.129V47.129A1.129,1.129,0,0,0,57.158,46Zm7.9,10.158H49.257v-7.9h6.772Z" transform="translate(5.92 5.791)"/>
        <path id="Path_1242872" data-name="Path 1242872" d="M18.287,57.287V47.129A1.129,1.129,0,0,0,17.158,46H8.129A1.129,1.129,0,0,0,7,47.129V57.287a1.129,1.129,0,0,0,1.129,1.129h9.029A1.129,1.129,0,0,0,18.287,57.287Zm-2.257-1.129H9.257v-7.9h6.772Z" transform="translate(0.772 5.791)"/>
      </g>
    </g>
  </g>
</svg>
