<svg xmlns="http://www.w3.org/2000/svg" width="126.61" height="69.218" viewBox="0 0 126.61 69.218">
  <g id="Group_1202580" data-name="Group 1202580" transform="translate(-789.782 -9558.183)">
    <g id="Group_1202421" data-name="Group 1202421">
      <g id="Group_1202236" data-name="Group 1202236" transform="translate(0.001 7000.131)">
        <g id="Group_1200259" data-name="Group 1200259" transform="translate(-6 557.578)">
          <g id="Rectangle_410589" data-name="Rectangle 410589" transform="translate(795.781 2013.422)" fill="#b7a8f1" stroke="#ffeb00" stroke-width="1">
            <rect width="126.61" height="43.021" rx="8" stroke="none"/>
            <rect x="0.5" y="0.5" width="125.61" height="42.021" rx="7.5" fill="none"/>
          </g>
        </g>
      </g>
      <g id="iva" transform="translate(818.602 9550.2)">
        <path id="Path_1242775" data-name="Path 1242775" d="M66.67,195.584H6.856V166.873H66.67Z" transform="translate(-5.831 -135.131)" fill="#8cc153"/>
        <path id="Path_1242776" data-name="Path 1242776" d="M15.744,78.425,19.2,62.873,72.664,74.9l-.632,3.522" transform="translate(-13.39 -46.683)" fill="#87b748"/>
        <path id="Path_1242777" data-name="Path 1242777" d="M72.352,218.013h9.012l5.344-5.212v-8.612l-4.86-5.316H44.2l-5.344,5.212V212.7l4.86,5.316H72.352Z" transform="translate(-33.046 -162.346)" fill="#a0d468"/>
        <path id="Path_1242778" data-name="Path 1242778" d="M96.384,22.5l3.926-9.375,38.911,16.212-.857,2.609" transform="translate(-81.971 -4.37)" fill="#7caa33"/>
        <path id="Path_1242779" data-name="Path 1242779" d="M310.856,406.873v4.785c0,1.982,5.356,3.589,11.963,3.589s11.963-1.607,11.963-3.589v-4.785" transform="translate(-264.372 -339.243)" fill="#f8cf26"/>
        <circle id="Ellipse_13344" data-name="Ellipse 13344" cx="9.57" cy="9.57" r="9.57" transform="translate(20.166 36.527)" fill="#8cc153"/>
        <path id="Path_1242780" data-name="Path 1242780" d="M310.856,374.873v4.785c0,1.982,5.356,3.589,11.963,3.589s11.963-1.607,11.963-3.589v-4.785" transform="translate(-264.372 -312.028)" fill="#cda349"/>
        <path id="Path_1242781" data-name="Path 1242781" d="M310.856,342.873v4.785c0,1.982,5.356,3.589,11.963,3.589s11.963-1.607,11.963-3.589v-4.785" transform="translate(-264.372 -284.813)" fill="#f8cf26"/>
        <path id="Path_1242782" data-name="Path 1242782" d="M310.856,310.873v4.785c0,1.982,5.356,3.589,11.963,3.589s11.963-1.607,11.963-3.589v-4.785" transform="translate(-264.372 -257.598)" fill="#cda349"/>
        <path id="Path_1242783" data-name="Path 1242783" d="M310.856,278.873v4.785c0,1.982,5.356,3.589,11.963,3.589s11.963-1.607,11.963-3.589v-4.785" transform="translate(-264.372 -230.383)" fill="#f8cf26"/>
        <path id="Path_1242784" data-name="Path 1242784" d="M310.856,246.873v4.785c0,1.982,5.356,3.589,11.963,3.589s11.963-1.607,11.963-3.589v-4.785" transform="translate(-264.372 -203.168)" fill="#cda349"/>
        <ellipse id="Ellipse_13345" data-name="Ellipse 13345" cx="11.963" cy="3.589" rx="11.963" ry="3.589" transform="translate(46.484 40.116)" fill="#f8cf26"/>
        <path id="Path_1242785" data-name="Path 1242785" d="M60.839,165.656a1.024,1.024,0,0,0,1.025-1.023v-3.591a1.024,1.024,0,0,0-1.023-1.025H1.025A1.024,1.024,0,0,0,0,161.04v28.713a1.024,1.024,0,0,0,1.023,1.025H41.7a1.025,1.025,0,0,0,0-2.05H2.05v-26.66H59.814v2.564a1.024,1.024,0,0,0,1.023,1.025Z" transform="translate(0 -129.3)"/>
        <path id="Path_1242786" data-name="Path 1242786" d="M18.865,56.178a1.031,1.031,0,0,0-.452.644L16.02,67.588a1.026,1.026,0,0,0,2,.445h0l2.169-9.763L67.04,68.811a.975.975,0,0,0,.226.025,1.025,1.025,0,0,0,.224-2.025L19.639,56.044a1.031,1.031,0,0,0-.774.134Z" transform="translate(-13.603 -40.854)"/>
        <path id="Path_1242787" data-name="Path 1242787" d="M105.839,14.257l1.963-3.929,27.824,11.593a1.028,1.028,0,1,0,.792-1.9L107.707,8.061a1.029,1.029,0,0,0-1.316.489L104,13.336a1.029,1.029,0,1,0,1.81.979c.011-.02.021-.04.03-.06Z" transform="translate(-88.342 0)"/>
        <path id="Path_1242788" data-name="Path 1242788" d="M267.545,193.042a1.025,1.025,0,0,0-1.025-1.025h-9.495a1.025,1.025,0,1,0,0,2.05h9.495A1.025,1.025,0,0,0,267.545,193.042Z" transform="translate(-217.719 -156.515)"/>
        <path id="Path_1242789" data-name="Path 1242789" d="M138.983,213.527A10.527,10.527,0,1,0,128.456,203h0A10.538,10.538,0,0,0,138.983,213.527Zm0-19.14A8.613,8.613,0,1,1,130.37,203,8.613,8.613,0,0,1,138.983,194.387Z" transform="translate(-109.247 -156.903)"/>
        <path id="Path_1242790" data-name="Path 1242790" d="M316.015,214.873c-6.34,0-13.159,1.5-13.159,4.785v28.711c0,3.287,6.819,4.785,13.159,4.785s13.159-1.5,13.159-4.785V219.658C329.174,216.371,322.355,214.873,316.015,214.873Zm10.766,28.693c-.181.664-3.768,2.41-10.766,2.41s-10.586-1.747-10.767-2.393V241.7c2.546,1.282,6.751,1.881,10.767,1.881s8.222-.6,10.766-1.882Zm0-4.785c-.181.664-3.768,2.41-10.766,2.41s-10.586-1.747-10.767-2.393v-1.881c2.546,1.282,6.751,1.881,10.767,1.881s8.222-.6,10.766-1.882Zm0-4.785c-.181.664-3.768,2.41-10.766,2.41s-10.586-1.747-10.767-2.393v-1.881c2.546,1.282,6.751,1.881,10.767,1.881s8.222-.6,10.766-1.882Zm0-4.785c-.181.664-3.768,2.41-10.766,2.41s-10.586-1.747-10.767-2.393v-1.881c2.546,1.276,6.751,1.881,10.767,1.881s8.222-.6,10.766-1.882Zm0-4.785c-.181.664-3.768,2.41-10.766,2.41s-10.586-1.747-10.767-2.393v-1.881c2.546,1.276,6.751,1.881,10.767,1.881s8.222-.6,10.766-1.882Zm-10.766-7.16c6.938,0,10.527,1.715,10.766,2.393-.239.677-3.828,2.393-10.766,2.393-6.987,0-10.574-1.742-10.767-2.371v-.007C305.441,219.006,309.028,217.266,316.015,217.266Zm0,33.5c-7,0-10.586-1.747-10.767-2.393v-1.881c2.546,1.282,6.751,1.881,10.767,1.881s8.222-.6,10.766-1.882v1.864C326.6,249.015,323.013,250.761,316.015,250.761Z" transform="translate(-257.569 -175.954)"/>
        <path id="Path_1242791" data-name="Path 1242791" d="M38.778,194.067h8.6a1.025,1.025,0,1,0,0-2.05H38.362a1.026,1.026,0,0,0-.718.291L32.3,197.52a1.285,1.285,0,0,0-.309.837v8.508a1.026,1.026,0,0,0,.268.691l4.86,5.316a1.025,1.025,0,0,0,.757.334h9.5a1.025,1.025,0,0,0,0-2.05H38.331l-4.287-4.689v-7.776Z" transform="translate(-27.208 -156.515)"/>
        <path id="Path_1242792" data-name="Path 1242792" d="M179.043,234.051h-2.991a1.2,1.2,0,0,0,0,2.393h1.2a1.2,1.2,0,0,0,2.393,0v-.054a2.785,2.785,0,0,0,2.393-2.632,2.857,2.857,0,0,0-2.991-2.7h-1.2c-.372,0-.6-.208-.6-.3s.226-.3.6-.3h2.991a1.2,1.2,0,1,0,0-2.393h-1.2a1.2,1.2,0,1,0-2.393,0v.054a2.785,2.785,0,0,0-2.393,2.632,2.857,2.857,0,0,0,2.991,2.7h1.2c.372,0,.6.208.6.3S179.415,234.051,179.043,234.051Z" transform="translate(-148.709 -186.159)"/>
      </g>
    </g>
  </g>
</svg>
