<svg xmlns="http://www.w3.org/2000/svg" xmlns:xlink="http://www.w3.org/1999/xlink" width="78.895" height="105.79" viewBox="0 0 78.895 105.79">
  <defs>
    <filter id="Rectangle_410591" x="0" y="0" width="63.214" height="105.79" filterUnits="userSpaceOnUse">
      <feOffset dy="3" input="SourceAlpha"/>
      <feGaussianBlur stdDeviation="3" result="blur"/>
      <feFlood flood-opacity="0.161"/>
      <feComposite operator="in" in2="blur"/>
      <feComposite in="SourceGraphic"/>
    </filter>
  </defs>
  <g id="Group_1202471" data-name="Group 1202471" transform="translate(-597 -14954.057)">
    <g id="Group_1202337" data-name="Group 1202337" transform="translate(354.15 9188.732)">
      <g id="Group_1200292" data-name="Group 1200292" transform="translate(251.85 5771.324)">
        <g transform="matrix(1, 0, 0, 1, -9, -6)" filter="url(#Rectangle_410591)">
          <rect id="Rectangle_410591-2" data-name="Rectangle 410591" width="45.214" height="87.79" rx="10" transform="translate(9 6)" fill="#b7a8f1"/>
        </g>
      </g>
    </g>
    <g id="iva" transform="translate(614.395 14966.969)">
      <path id="Path_1242775" data-name="Path 1242775" d="M58.228,191.532H6.856V166.873H58.228Z" transform="translate(-5.975 -138.484)" fill="#8cc153"/>
      <path id="Path_1242776" data-name="Path 1242776" d="M15.744,76.23l2.968-13.357L64.631,73.205l-.542,3.025" transform="translate(-13.722 -47.841)" fill="#87b748"/>
      <path id="Path_1242777" data-name="Path 1242777" d="M67.625,215.312h7.74l4.59-4.477v-7.4l-4.175-4.566H43.446l-4.59,4.477v7.4l4.175,4.566H67.625Z" transform="translate(-33.866 -166.375)" fill="#a0d468"/>
      <path id="Path_1242778" data-name="Path 1242778" d="M96.384,21.173l3.372-8.052,33.42,13.924-.736,2.241" transform="translate(-84.005 -4.479)" fill="#7caa33"/>
      <path id="Path_1242779" data-name="Path 1242779" d="M310.856,406.873v4.11c0,1.7,4.6,3.082,10.275,3.082s10.275-1.38,10.275-3.082v-4.11" transform="translate(-270.932 -347.661)" fill="#f8cf26"/>
      <circle id="Ellipse_13344" data-name="Ellipse 13344" cx="8.22" cy="8.22" r="8.22" transform="translate(17.32 32.498)" fill="#8cc153"/>
      <path id="Path_1242780" data-name="Path 1242780" d="M310.856,374.873v4.11c0,1.7,4.6,3.082,10.275,3.082s10.275-1.38,10.275-3.082v-4.11" transform="translate(-270.932 -319.771)" fill="#cda349"/>
      <path id="Path_1242781" data-name="Path 1242781" d="M310.856,342.873v4.11c0,1.7,4.6,3.082,10.275,3.082s10.275-1.38,10.275-3.082v-4.11" transform="translate(-270.932 -291.88)" fill="#f8cf26"/>
      <path id="Path_1242782" data-name="Path 1242782" d="M310.856,310.873v4.11c0,1.7,4.6,3.082,10.275,3.082s10.275-1.38,10.275-3.082v-4.11" transform="translate(-270.932 -263.99)" fill="#cda349"/>
      <path id="Path_1242783" data-name="Path 1242783" d="M310.856,278.873v4.11c0,1.7,4.6,3.082,10.275,3.082s10.275-1.38,10.275-3.082v-4.11" transform="translate(-270.932 -236.1)" fill="#f8cf26"/>
      <path id="Path_1242784" data-name="Path 1242784" d="M310.856,246.873v4.11c0,1.7,4.6,3.082,10.275,3.082s10.275-1.38,10.275-3.082v-4.11" transform="translate(-270.932 -208.21)" fill="#cda349"/>
      <ellipse id="Ellipse_13345" data-name="Ellipse 13345" cx="10.274" cy="3.082" rx="10.274" ry="3.082" transform="translate(39.924 35.581)" fill="#f8cf26"/>
      <path id="Path_1242785" data-name="Path 1242785" d="M52.253,164.86a.879.879,0,0,0,.881-.878V160.9a.88.88,0,0,0-.878-.881H.881A.88.88,0,0,0,0,160.9v24.661a.879.879,0,0,0,.878.881H35.814a.881.881,0,0,0,0-1.761H1.761v-22.9H51.372v2.2a.88.88,0,0,0,.878.881Z" transform="translate(0 -132.509)"/>
      <path id="Path_1242786" data-name="Path 1242786" d="M18.46,56.156a.886.886,0,0,0-.388.553l-2.055,9.247a.881.881,0,1,0,1.72.382h0L19.6,57.953l40.237,9.053a.837.837,0,0,0,.194.022.881.881,0,0,0,.192-1.739l-41.1-9.247a.885.885,0,0,0-.665.115Z" transform="translate(-13.941 -41.868)"/>
      <path id="Path_1242787" data-name="Path 1242787" d="M105.561,13.371,107.247,10l23.9,9.957a.883.883,0,1,0,.68-1.63L107.166,8.05a.884.884,0,0,0-1.13.42l-2.055,4.11a.884.884,0,0,0,1.555.84c.009-.017.018-.034.026-.052Z" transform="translate(-90.534 0)"/>
      <path id="Path_1242788" data-name="Path 1242788" d="M265.916,192.9a.881.881,0,0,0-.881-.881h-8.155a.881.881,0,1,0,0,1.761h8.155A.881.881,0,0,0,265.916,192.9Z" transform="translate(-223.122 -160.399)"/>
      <path id="Path_1242789" data-name="Path 1242789" d="M137.5,210.556a9.042,9.042,0,1,0-9.042-9.042h0A9.051,9.051,0,0,0,137.5,210.556Zm0-16.439a7.4,7.4,0,1,1-7.4,7.4A7.4,7.4,0,0,1,137.5,194.117Z" transform="translate(-111.958 -160.797)"/>
      <path id="Path_1242790" data-name="Path 1242790" d="M314.158,214.873c-5.445,0-11.3,1.286-11.3,4.11v24.659c0,2.823,5.856,4.11,11.3,4.11s11.3-1.286,11.3-4.11V218.983C325.46,216.159,319.6,214.873,314.158,214.873Zm9.247,24.643c-.155.57-3.236,2.07-9.247,2.07s-9.092-1.5-9.247-2.055v-1.615c2.186,1.1,5.8,1.615,9.247,1.615s7.062-.519,9.247-1.616Zm0-4.11c-.155.57-3.236,2.07-9.247,2.07s-9.092-1.5-9.247-2.055v-1.615c2.186,1.1,5.8,1.615,9.247,1.615s7.062-.519,9.247-1.616Zm0-4.11c-.155.57-3.236,2.07-9.247,2.07s-9.092-1.5-9.247-2.055V229.7c2.186,1.1,5.8,1.615,9.247,1.615s7.062-.519,9.247-1.616Zm0-4.11c-.155.57-3.236,2.07-9.247,2.07s-9.092-1.5-9.247-2.055v-1.615c2.186,1.1,5.8,1.615,9.247,1.615s7.062-.519,9.247-1.616Zm0-4.11c-.155.57-3.236,2.07-9.247,2.07s-9.092-1.5-9.247-2.055v-1.615c2.186,1.1,5.8,1.615,9.247,1.615s7.062-.519,9.247-1.616Zm-9.247-6.149c5.959,0,9.042,1.473,9.247,2.055-.205.582-3.288,2.055-9.247,2.055-6,0-9.082-1.5-9.247-2.036V219C305.076,218.423,308.157,216.928,314.158,216.928Zm0,28.769c-6.011,0-9.092-1.5-9.247-2.055v-1.615c2.186,1.1,5.8,1.615,9.247,1.615s7.062-.519,9.247-1.616v1.6C323.25,244.2,320.169,245.7,314.158,245.7Z" transform="translate(-263.96 -180.32)"/>
      <path id="Path_1242791" data-name="Path 1242791" d="M37.821,193.778H45.2a.881.881,0,1,0,0-1.761h-7.74a.881.881,0,0,0-.616.25l-4.59,4.477a1.1,1.1,0,0,0-.265.719v7.307a.881.881,0,0,0,.23.594L36.4,209.93a.88.88,0,0,0,.65.287H45.2a.881.881,0,1,0,0-1.761H37.436l-3.682-4.028v-6.678Z" transform="translate(-27.883 -160.399)"/>
      <path id="Path_1242792" data-name="Path 1242792" d="M178.452,233.038h-2.569a1.027,1.027,0,0,0,0,2.055h1.027a1.027,1.027,0,0,0,2.055,0v-.046a2.392,2.392,0,0,0,2.055-2.26,2.454,2.454,0,0,0-2.569-2.317h-1.027c-.32,0-.514-.179-.514-.257s.194-.257.514-.257h2.569a1.027,1.027,0,1,0,0-2.055h-1.027a1.027,1.027,0,1,0-2.055,0v.046a2.392,2.392,0,0,0-2.055,2.26,2.454,2.454,0,0,0,2.569,2.317h1.027c.32,0,.514.179.514.257S178.772,233.038,178.452,233.038Z" transform="translate(-152.399 -190.779)"/>
    </g>
  </g>
</svg>
