<svg xmlns="http://www.w3.org/2000/svg" xmlns:xlink="http://www.w3.org/1999/xlink" width="81.09" height="105.79" viewBox="0 0 81.09 105.79">
  <defs>
    <filter id="Rectangle_410591" x="0" y="0" width="63.214" height="105.79" filterUnits="userSpaceOnUse">
      <feOffset dy="3" input="SourceAlpha"/>
      <feGaussianBlur stdDeviation="3" result="blur"/>
      <feFlood flood-opacity="0.161"/>
      <feComposite operator="in" in2="blur"/>
      <feComposite in="SourceGraphic"/>
    </filter>
    <clipPath id="clip-path">
      <path id="path390" d="M0-682.665H47.039v47.039H0Z" transform="translate(0 682.665)"/>
    </clipPath>
  </defs>
  <g id="Group_1202482" data-name="Group 1202482" transform="translate(-1227 -14954)">
    <g id="Group_1202339" data-name="Group 1202339" transform="translate(984.15 9188.676)">
      <g id="Group_1200292" data-name="Group 1200292" transform="translate(251.85 5771.324)">
        <g transform="matrix(1, 0, 0, 1, -9, -6)" filter="url(#Rectangle_410591)">
          <rect id="Rectangle_410591-2" data-name="Rectangle 410591" width="45.214" height="87.79" rx="10" transform="translate(9 6)" fill="#b7a8f1"/>
        </g>
      </g>
    </g>
    <g id="g384" transform="translate(1261.051 15666.575)">
      <g id="g386" transform="translate(0 -682.665)">
        <g id="g388" clip-path="url(#clip-path)">
          <g id="g394" transform="translate(11.76 0.689)">
            <path id="path396" d="M0,0,6.936,11.071,0,22.141A11.071,11.071,0,0,0,11.071,11.071,11.071,11.071,0,0,0,0,0" fill="#fac75a"/>
          </g>
          <g id="g398" transform="translate(0.689 0.689)">
            <path id="path400" d="M-149.6-224.7a5.558,5.558,0,0,1-5.558-5.558,5.558,5.558,0,0,1,5.558-5.558,5.558,5.558,0,0,1,5.558,5.558A5.558,5.558,0,0,1-149.6-224.7m8.315-5.558c0-6.114-3.723-11.071-8.315-11.071a11.071,11.071,0,0,0-11.071,11.071A11.071,11.071,0,0,0-149.6-219.191c4.592,0,8.315-4.957,8.315-11.071" transform="translate(160.666 241.333)" fill="#fce06f"/>
          </g>
          <g id="g402" transform="translate(35.279 24.209)">
            <path id="path404" d="M0,0,6.936,11.071,0,22.141A11.071,11.071,0,0,0,11.071,11.071,11.071,11.071,0,0,0,0,0" fill="#fac75a"/>
          </g>
          <g id="g406" transform="translate(24.209 24.209)">
            <path id="path408" d="M-149.6-224.7a5.558,5.558,0,0,1-5.558-5.558,5.558,5.558,0,0,1,5.558-5.558,5.558,5.558,0,0,1,5.558,5.558A5.558,5.558,0,0,1-149.6-224.7m8.315-5.558c0-6.114-3.723-11.071-8.315-11.071a11.071,11.071,0,0,0-11.071,11.071A11.071,11.071,0,0,0-149.6-219.191c4.592,0,8.315-4.957,8.315-11.071" transform="translate(160.666 241.333)" fill="#fce06f"/>
          </g>
          <g id="g410" transform="translate(1.496 1.496)">
            <path id="path412" d="M-595.187,0l-2.923.974-40.149,40.149-.974,2.923a2.756,2.756,0,0,0,3.9,0L-595.187,3.9a2.756,2.756,0,0,0,0-3.9" transform="translate(639.233)" fill="#fac75a"/>
          </g>
          <g id="g414" transform="translate(0.689 0.689)">
            <path id="path416" d="M-553.425-10.909-593.574,29.24a2.756,2.756,0,0,0,0,3.9l44.046-44.046a2.756,2.756,0,0,0-3.9,0" transform="translate(594.381 11.716)" fill="#fce06f"/>
          </g>
          <g id="g418" transform="translate(0 0.002)">
            <path id="path420" d="M-380.312-308.414a3.423,3.423,0,0,1-2.436-1.009,3.422,3.422,0,0,1-1.009-2.436,3.423,3.423,0,0,1,1.009-2.436l40.149-40.149a3.449,3.449,0,0,1,4.872,0,3.449,3.449,0,0,1,0,4.872l-19.1,19.1a.689.689,0,0,1-.974,0,.689.689,0,0,1,0-.974l19.1-19.1a2.069,2.069,0,0,0,0-2.923,2.069,2.069,0,0,0-2.923,0l-40.149,40.149a2.054,2.054,0,0,0-.606,1.462,2.053,2.053,0,0,0,.605,1.462,2.053,2.053,0,0,0,1.462.606,2.054,2.054,0,0,0,1.462-.605l19.1-19.1a.689.689,0,0,1,.974,0,.689.689,0,0,1,0,.974l-19.1,19.1A3.423,3.423,0,0,1-380.312-308.414Z" transform="translate(383.758 355.451)"/>
          </g>
          <g id="g422" transform="translate(0)">
            <path id="path424" d="M-319.573-170.666a11.773,11.773,0,0,1,11.76,11.76,11.773,11.773,0,0,1-11.76,11.76,11.773,11.773,0,0,1-11.76-11.76A11.773,11.773,0,0,1-319.573-170.666Zm0,22.141a10.393,10.393,0,0,0,10.382-10.382,10.393,10.393,0,0,0-10.382-10.382,10.393,10.393,0,0,0-10.382,10.382A10.393,10.393,0,0,0-319.573-148.525Z" transform="translate(331.333 170.666)"/>
          </g>
          <g id="g426" transform="translate(5.512 5.512)">
            <path id="path428" d="M-165.086-90.666a6.254,6.254,0,0,1,6.247,6.247,6.254,6.254,0,0,1-6.247,6.247,6.254,6.254,0,0,1-6.247-6.247A6.254,6.254,0,0,1-165.086-90.666Zm0,11.117a4.875,4.875,0,0,0,4.869-4.869,4.875,4.875,0,0,0-4.869-4.869,4.875,4.875,0,0,0-4.869,4.869A4.875,4.875,0,0,0-165.086-79.55Z" transform="translate(171.333 90.666)"/>
          </g>
          <g id="g430" transform="translate(23.52 23.52)">
            <path id="path432" d="M-319.573-170.666a11.773,11.773,0,0,1,11.76,11.76,11.773,11.773,0,0,1-11.76,11.76,11.773,11.773,0,0,1-11.76-11.76A11.773,11.773,0,0,1-319.573-170.666Zm0,22.141a10.393,10.393,0,0,0,10.382-10.382,10.393,10.393,0,0,0-10.382-10.382,10.393,10.393,0,0,0-10.382,10.382A10.393,10.393,0,0,0-319.573-148.525Z" transform="translate(331.333 170.666)"/>
          </g>
          <g id="g434" transform="translate(29.032 29.032)">
            <path id="path436" d="M-165.086-90.666a6.254,6.254,0,0,1,6.247,6.247,6.254,6.254,0,0,1-6.247,6.247,6.254,6.254,0,0,1-6.247-6.247A6.254,6.254,0,0,1-165.086-90.666Zm0,11.117a4.875,4.875,0,0,0,4.869-4.869,4.875,4.875,0,0,0-4.869-4.869,4.875,4.875,0,0,0-4.869,4.869A4.875,4.875,0,0,0-165.086-79.55Z" transform="translate(171.333 90.666)"/>
          </g>
        </g>
      </g>
    </g>
  </g>
</svg>
