<svg xmlns="http://www.w3.org/2000/svg" width="190" height="151" viewBox="0 0 190 151">
  <g id="Group_1202467" data-name="Group 1202467" transform="translate(-1230.051 -10185.131)">
    <g id="Group_1202242" data-name="Group 1202242" transform="translate(0 9805.131)">
      <rect id="Rectangle_410977" data-name="Rectangle 410977" width="190" height="151" transform="translate(1230.051 380)" fill="#fd9826"/>
      <g id="Group_1201261" data-name="Group 1201261" transform="translate(1261.568 418.064)">
        <g id="Group_1200259" data-name="Group 1200259" transform="translate(0 16.01)">
          <g id="Rectangle_410589" data-name="Rectangle 410589" fill="#ffeb00" stroke="#ffeb00" stroke-width="1">
            <rect width="126.61" height="43.021" rx="8" stroke="none"/>
            <rect x="0.5" y="0.5" width="125.61" height="42.021" rx="7.5" fill="none"/>
          </g>
        </g>
      </g>
    </g>
    <g id="lista-de-verificacion" transform="translate(1294.051 10222.031)">
      <g id="Group_1202464" data-name="Group 1202464" transform="translate(2.193 2.193)">
        <g id="Group_1202448" data-name="Group 1202448" transform="translate(0 2.386)">
          <path id="Path_1242873" data-name="Path 1242873" d="M56.88,37.405V68.424A4.771,4.771,0,0,1,52.108,73.2H6.772A4.771,4.771,0,0,1,2,68.424V8.772A4.771,4.771,0,0,1,6.772,4h9.544V8.772H7.965A1.2,1.2,0,0,0,6.772,9.965V67.231a1.2,1.2,0,0,0,1.193,1.193h34.6l9.544-9.544v-16.7Z" transform="translate(-2 -4)" fill="#f5e0cd"/>
        </g>
        <g id="Group_1202449" data-name="Group 1202449" transform="translate(21.475 2.386)">
          <path id="Path_1242874" data-name="Path 1242874" d="M20,4H31.93V8.772H20Z" transform="translate(-20 -4)" fill="#f5e0cd"/>
        </g>
        <g id="Group_1202450" data-name="Group 1202450" transform="translate(40.564 2.386)">
          <path id="Path_1242875" data-name="Path 1242875" d="M50.317,12.972a10.692,10.692,0,0,0-4.713,7.8l-.06-.012V9.965a1.2,1.2,0,0,0-1.193-1.193H36V4h9.544a4.771,4.771,0,0,1,4.772,4.772Z" transform="translate(-36 -4)" fill="#f5e0cd"/>
        </g>
        <g id="Group_1202451" data-name="Group 1202451" transform="translate(4.772 7.158)">
          <path id="Path_1242876" data-name="Path 1242876" d="M50.143,8H7.193A1.2,1.2,0,0,0,6,9.193V66.459a1.2,1.2,0,0,0,1.193,1.193h34.6V58.108h9.544V9.193A1.2,1.2,0,0,0,50.143,8Z" transform="translate(-6 -8)" fill="#e6e9ed"/>
        </g>
        <g id="Group_1202452" data-name="Group 1202452" transform="translate(33.405)">
          <path id="Path_1242877" data-name="Path 1242877" d="M37.158,9.158v1.193a1.2,1.2,0,0,1-1.193,1.193H31.193A1.2,1.2,0,0,1,30,10.351V3.193A1.2,1.2,0,0,1,31.193,2h4.772a1.2,1.2,0,0,1,1.193,1.193V9.158Z" transform="translate(-30 -2)" fill="#b4dd7f"/>
        </g>
        <g id="Group_1202453" data-name="Group 1202453" transform="translate(14.317)">
          <path id="Path_1242878" data-name="Path 1242878" d="M21.158,9.158v1.193a1.2,1.2,0,0,1-1.193,1.193H15.193A1.2,1.2,0,0,1,14,10.351V3.193A1.2,1.2,0,0,1,15.193,2h4.772a1.2,1.2,0,0,1,1.193,1.193V9.158Z" transform="translate(-14 -2)" fill="#b4dd7f"/>
        </g>
        <g id="Group_1202454" data-name="Group 1202454" transform="translate(40.564 57.266)">
          <path id="Path_1242879" data-name="Path 1242879" d="M45.544,50,36,59.544V50Z" transform="translate(-36 -50)" fill="#ff826e"/>
        </g>
        <g id="Group_1202455" data-name="Group 1202455" transform="translate(9.544 52.494)">
          <path id="Path_1242880" data-name="Path 1242880" d="M10,46h4.772v4.772H10Z" transform="translate(-10 -46)" fill="#fcd770"/>
        </g>
        <g id="Group_1202456" data-name="Group 1202456" transform="translate(9.544 42.95)">
          <path id="Path_1242881" data-name="Path 1242881" d="M10,38h4.772v4.772H10Z" transform="translate(-10 -38)" fill="#fcd770"/>
        </g>
        <g id="Group_1202457" data-name="Group 1202457" transform="translate(9.544 33.405)">
          <path id="Path_1242882" data-name="Path 1242882" d="M10,30h4.772v4.772H10Z" transform="translate(-10 -30)" fill="#fcd770"/>
        </g>
        <g id="Group_1202458" data-name="Group 1202458" transform="translate(9.544 23.861)">
          <path id="Path_1242883" data-name="Path 1242883" d="M10,22h4.772v4.772H10Z" transform="translate(-10 -22)" fill="#fcd770"/>
        </g>
        <g id="Group_1202459" data-name="Group 1202459" transform="translate(9.544 14.317)">
          <path id="Path_1242884" data-name="Path 1242884" d="M10,14h4.772v4.772H10Z" transform="translate(-10 -14)" fill="#fcd770"/>
        </g>
        <g id="Group_1202460" data-name="Group 1202460" transform="translate(19.089 48.915)">
          <path id="Path_1242885" data-name="Path 1242885" d="M31.123,52.544,20.7,56.016a1.921,1.921,0,0,1-.644.107A2.052,2.052,0,0,1,18,54.071a1.921,1.921,0,0,1,.107-.644L21.579,43l4.772,4.772Z" transform="translate(-18 -43)" fill="#aab2bd"/>
        </g>
        <g id="Group_1202461" data-name="Group 1202461" transform="translate(27.44 27.87)">
          <path id="Path_1242886" data-name="Path 1242886" d="M57.272,28.45,52.44,33.282l-4.772,4.772-17.9,17.9L25,51.177,50.817,25.36A10.672,10.672,0,0,0,57.272,28.45Z" transform="translate(-25 -25.36)" fill="#b4dd7f"/>
        </g>
        <g id="Group_1202462" data-name="Group 1202462" transform="translate(22.668 21.415)">
          <path id="Path_1242887" data-name="Path 1242887" d="M51.59,26.4,25.772,52.222,21,47.45l27.5-27.5A10.672,10.672,0,0,0,51.59,26.4Z" transform="translate(-21 -19.95)" fill="#fcd770"/>
        </g>
        <g id="Group_1202463" data-name="Group 1202463" transform="translate(50.108 9.544)">
          <path id="Path_1242888" data-name="Path 1242888" d="M54.737,10a10.737,10.737,0,1,1,0,21.475c-.382,0-.764-.024-1.133-.06a10.762,10.762,0,0,1-9.544-9.544c-.036-.37-.06-.752-.06-1.133s.024-.752.06-1.121A10.746,10.746,0,0,1,54.737,10Z" transform="translate(-44 -10)" fill="#ff826e"/>
        </g>
      </g>
      <g id="Group_1202465" data-name="Group 1202465" transform="translate(1 1)">
        <path id="Path_1242889" data-name="Path 1242889" d="M59.03,15.293,51.523,22.8,49.98,21.258l-1.687,1.687,3.23,3.23,9.195-9.195Z" transform="translate(8.13 1.759)"/>
        <path id="Path_1242890" data-name="Path 1242890" d="M63.038,10.544a11.846,11.846,0,0,0-4.772,1v-2.2A5.972,5.972,0,0,0,52.3,3.386H43.95A2.388,2.388,0,0,0,41.564,1H36.791a2.388,2.388,0,0,0-2.386,2.386H24.861A2.388,2.388,0,0,0,22.475,1H17.7a2.388,2.388,0,0,0-2.386,2.386H6.965A5.972,5.972,0,0,0,1,9.351V69a5.972,5.972,0,0,0,5.965,5.965H52.3A5.972,5.972,0,0,0,58.266,69V38.478l4.106-4.106c.222.012.441.033.666.033a11.93,11.93,0,0,0,0-23.861ZM52.3,5.772A3.584,3.584,0,0,1,55.88,9.351v3.6a12,12,0,0,0-2.386,2.393v-4.8a2.388,2.388,0,0,0-2.386-2.386H43.95V5.772ZM25.382,53.316,32.2,60.131l-8.588,2.862a.871.871,0,0,1-1.135-.815.913.913,0,0,1,.043-.272Zm1.166-2.208,25.1-25.1a11.9,11.9,0,0,0,2.163,4.007L29.633,54.193ZM36.791,3.386h4.772v7.158H36.791ZM34.405,5.772V8.158H24.861V5.772ZM17.7,3.386h4.772v7.158H17.7Zm4.772,9.544a2.388,2.388,0,0,0,2.386-2.386h9.544a2.388,2.388,0,0,0,2.386,2.386h4.772a2.388,2.388,0,0,0,2.386-2.386h7.158V21.335h.057c-.036.376-.057.755-.057,1.139,0,.224.021.444.033.666L23.818,50.464,20.253,61.156a3.245,3.245,0,0,0,4.108,4.1l10.688-3.562L51.108,45.637v12.63H41.564V67.81H8.158V10.544h7.158A2.388,2.388,0,0,0,17.7,12.93ZM49.421,60.652,43.95,66.124V60.652ZM55.88,69A3.584,3.584,0,0,1,52.3,72.583H6.965A3.584,3.584,0,0,1,3.386,69V9.351A3.584,3.584,0,0,1,6.965,5.772h8.351V8.158H8.158a2.388,2.388,0,0,0-2.386,2.386V67.81A2.388,2.388,0,0,0,8.158,70.2H43.25L53.494,59.953V43.25l2.386-2.386ZM34.405,58.965,31.32,55.88,55.492,31.707A11.925,11.925,0,0,0,59.5,33.87ZM63.038,32.019a9.544,9.544,0,1,1,9.544-9.544A9.555,9.555,0,0,1,63.038,32.019Z" transform="translate(-1 -1)"/>
        <path id="Path_1242891" data-name="Path 1242891" d="M9,20.158h7.158V13H9Zm2.386-4.772h2.386v2.386H11.386Z" transform="translate(0.544 1.317)"/>
        <path id="Path_1242892" data-name="Path 1242892" d="M9,28.158h7.158V21H9Zm2.386-4.772h2.386v2.386H11.386Z" transform="translate(0.544 2.861)"/>
        <path id="Path_1242893" data-name="Path 1242893" d="M9,36.158h7.158V29H9Zm2.386-4.772h2.386v2.386H11.386Z" transform="translate(0.544 4.405)"/>
        <path id="Path_1242894" data-name="Path 1242894" d="M9,44.158h7.158V37H9Zm2.386-4.772h2.386v2.386H11.386Z" transform="translate(0.544 5.95)"/>
        <path id="Path_1242895" data-name="Path 1242895" d="M9,52.158h7.158V45H9Zm2.386-4.772h2.386v2.386H11.386Z" transform="translate(0.544 7.494)"/>
        <path id="Path_1242896" data-name="Path 1242896" d="M17,13H45.633v2.386H17Z" transform="translate(2.089 1.317)"/>
        <path id="Path_1242897" data-name="Path 1242897" d="M17,17H45.633v2.386H17Z" transform="translate(2.089 2.089)"/>
        <path id="Path_1242898" data-name="Path 1242898" d="M17,21H31.317v2.386H17Z" transform="translate(2.089 2.861)"/>
        <path id="Path_1242899" data-name="Path 1242899" d="M17,25H31.317v2.386H17Z" transform="translate(2.089 3.633)"/>
        <path id="Path_1242900" data-name="Path 1242900" d="M17,29H28.93v2.386H17Z" transform="translate(2.089 4.405)"/>
        <path id="Path_1242901" data-name="Path 1242901" d="M17,33H28.93v2.386H17Z" transform="translate(2.089 5.177)"/>
      </g>
    </g>
  </g>
</svg>
