<svg xmlns="http://www.w3.org/2000/svg" xmlns:xlink="http://www.w3.org/1999/xlink" width="81.673" height="105.79" viewBox="0 0 81.673 105.79">
  <defs>
    <filter id="Rectangle_410591" x="0" y="0" width="63.214" height="105.79" filterUnits="userSpaceOnUse">
      <feOffset dy="3" input="SourceAlpha"/>
      <feGaussianBlur stdDeviation="3" result="blur"/>
      <feFlood flood-opacity="0.161"/>
      <feComposite operator="in" in2="blur"/>
      <feComposite in="SourceGraphic"/>
    </filter>
  </defs>
  <g id="Group_1202481" data-name="Group 1202481" transform="translate(-912 -14954.057)">
    <g id="Group_1202338" data-name="Group 1202338" transform="translate(669.15 9188.732)">
      <g id="Group_1200292" data-name="Group 1200292" transform="translate(251.85 5771.324)">
        <g transform="matrix(1, 0, 0, 1, -9, -6)" filter="url(#Rectangle_410591)">
          <rect id="Rectangle_410591-2" data-name="Rectangle 410591" width="45.214" height="87.79" rx="10" transform="translate(9 6)" fill="#b7a8f1"/>
        </g>
      </g>
    </g>
    <g id="dinero" transform="translate(935.273 14978.915)">
      <g id="Group_1202474" data-name="Group 1202474" transform="translate(0.855 0.855)">
        <path id="Path_1242911" data-name="Path 1242911" d="M180.118,128.75l-1.787-.438-3.726-2.565-1.6-3.08-.94-1.667H148.734l-1.5.831-2.4,4.334-5.271,3.184v8.6h31.544v9.054l.587.644,1.923-1.524,2.433-3.346,2.287-1.825h2.238l.614-.707V129.339Z" transform="translate(-124.499 -108.054)" fill="#8cc825"/>
        <g id="Group_1202472" data-name="Group 1202472" transform="translate(8.642 20.986)">
          <path id="Path_1242912" data-name="Path 1242912" d="M90.191,191.486l-.512.309-5.032.77-1.39,1.687v5.35l1.162.8h5.772Z" transform="translate(-83.257 -191.486)" fill="#77ab1e"/>
        </g>
        <path id="Path_1242913" data-name="Path 1242913" d="M432.094,121H424.54a9,9,0,0,0,8.731,8.349c.13,0,.259,0,.388-.01v-6.773A1.565,1.565,0,0,0,432.094,121Z" transform="translate(-376.971 -108.054)" fill="#a2e82d"/>
        <path id="Path_1242914" data-name="Path 1242914" d="M433.925,289.655a8.827,8.827,0,0,0-8.253,6.144l-.394.486v1.286l.394.433h7.076a1.565,1.565,0,0,0,1.565-1.565v-6.773C434.185,289.659,434.055,289.655,433.925,289.655Z" transform="translate(-377.625 -257.471)" fill="#a2e82d"/>
        <path id="Path_1242915" data-name="Path 1242915" d="M263.918,163.872h-.952l-3.08,1.859-2.167,3.625-.608,2.951.718,3.627h11.3l.673-.8a9.88,9.88,0,0,0,.285-2.363A9.281,9.281,0,0,0,263.918,163.872Z" transform="translate(-228.639 -146.036)" fill="#a2e82d"/>
        <path id="Path_1242916" data-name="Path 1242916" d="M222.135,169.511a9.28,9.28,0,0,1,6.166-8.9,8.305,8.305,0,0,0-2.614-.42,9.063,9.063,0,0,0-8.779,9.323,9.881,9.881,0,0,0,.285,2.363l1.411.8h5.227l-1.411-.8A9.88,9.88,0,0,1,222.135,169.511Z" transform="translate(-193.022 -142.772)" fill="#98d829"/>
        <path id="Path_1242917" data-name="Path 1242917" d="M91.443,15.76H89.971l-2.847,1.885v1.187l-1.526.524-2.341,4.981v6.045l2.531,4.131,1.336.554v1.047l3.189,1.835,1.13.19a12.136,12.136,0,0,0,0-22.378Z" transform="translate(-74.616 -14.818)" fill="#ffeb7e"/>
        <path id="Path_1242918" data-name="Path 1242918" d="M16.887,19.629A12.135,12.135,0,0,1,24.323,8.44a12.131,12.131,0,1,0,0,22.378A12.134,12.134,0,0,1,16.887,19.629Z" transform="translate(-7.497 -7.498)" fill="#ffe02f"/>
        <path id="Path_1242919" data-name="Path 1242919" d="M87.123,42.687l-1.526.524-2.341,4.981v6.045l2.531,4.131,1.336.554a8.126,8.126,0,0,0,0-16.235Z" transform="translate(-74.615 -38.673)" fill="#ffd500"/>
        <path id="Path_1242920" data-name="Path 1242920" d="M47.988,50.731a12.085,12.085,0,0,1,3.118-8.118c-.125-.006-.25-.009-.377-.009a8.127,8.127,0,0,0,0,16.254c.126,0,.252,0,.377-.009A12.085,12.085,0,0,1,47.988,50.731Z" transform="translate(-38.598 -38.6)" fill="#fbc700"/>
        <path id="Path_1242921" data-name="Path 1242921" d="M105.147,269.39l-2.338-.859-2.825-2.281-.958-2.814-1.559-.8H67.659l-1.265.8-1.283,2.851v19.78l1.6,3.3.951.855H97.467l.95-1.336,1.566-2.839,2.711-2.574,2.966-.4.926-1.186V270.98Z" transform="translate(-58.539 -233.539)" fill="#98d829"/>
        <g id="Group_1202473" data-name="Group 1202473" transform="translate(0 31.943)">
          <path id="Path_1242922" data-name="Path 1242922" d="M14.43,287.545l-.733,1.629-3.422,2.786H8.364L7.5,293.043v10.909l1.5.9,1.939.689,2.738,1.763.762,1.577Z" transform="translate(-7.496 -287.545)" fill="#8cc825"/>
        </g>
        <path id="Path_1242923" data-name="Path 1242923" d="M192.077,305.513h-1.169l-3.326,2.366-1.807,3.238v5.89l1.807,3.764,2.979,2.438,1.516.11a9.511,9.511,0,0,0,0-17.806Z" transform="translate(-165.44 -271.521)" fill="#bced6b"/>
        <path id="Path_1242924" data-name="Path 1242924" d="M146.374,311.152a9.28,9.28,0,0,1,6.166-8.9,8.3,8.3,0,0,0-2.614-.42,9.34,9.34,0,0,0,0,18.647,8.3,8.3,0,0,0,2.614-.42A9.28,9.28,0,0,1,146.374,311.152Z" transform="translate(-125.902 -268.257)" fill="#a2e82d"/>
        <path id="Path_1242925" data-name="Path 1242925" d="M356.334,262.641H348.78a9,9,0,0,0,8.731,8.349c.13,0,.259,0,.388-.01v-6.773A1.565,1.565,0,0,0,356.334,262.641Z" transform="translate(-309.852 -233.539)" fill="#bced6b"/>
        <path id="Path_1242926" data-name="Path 1242926" d="M9.062,262.641h7.554a9,9,0,0,1-8.731,8.349c-.13,0-.259,0-.388-.01v-6.773A1.565,1.565,0,0,1,9.062,262.641Z" transform="translate(-7.497 -233.539)" fill="#a2e82d"/>
        <path id="Path_1242927" data-name="Path 1242927" d="M356.334,439.646H348.78a9,9,0,0,1,8.731-8.349c.13,0,.259,0,.388.01v6.773A1.565,1.565,0,0,1,356.334,439.646Z" transform="translate(-309.852 -382.957)" fill="#bced6b"/>
        <path id="Path_1242928" data-name="Path 1242928" d="M9.062,439.646h7.554A9,9,0,0,0,7.885,431.3c-.13,0-.259,0-.388.01v6.773A1.565,1.565,0,0,0,9.062,439.646Z" transform="translate(-7.497 -382.957)" fill="#a2e82d"/>
      </g>
      <g id="Group_1202480" data-name="Group 1202480" transform="translate(0 0)">
        <path id="Elipse_13351" data-name="Elipse 13351" d="M2.135-7.5A9.929,9.929,0,0,1,11.769,2.679,9.929,9.929,0,0,1,2.135,12.857,9.929,9.929,0,0,1-7.5,2.679,9.929,9.929,0,0,1,2.135-7.5Zm0,18.647a8.219,8.219,0,0,0,7.924-8.468A8.219,8.219,0,0,0,2.135-5.789,8.219,8.219,0,0,0-5.789,2.679,8.219,8.219,0,0,0,2.135,11.147Z" transform="translate(22.745 41.072)"/>
        <path id="Trazado_1242929" data-name="Trazado 1242929" d="M342.138,255.143h7.554a2.424,2.424,0,0,1,2.421,2.421v6.773a.855.855,0,0,1-.816.855c-.142.007-.284.011-.428.011a9.818,9.818,0,0,1-9.583-9.121.855.855,0,0,1,.851-.939Zm8.264,8.335v-5.914a.711.711,0,0,0-.71-.71h-6.562A8.074,8.074,0,0,0,350.4,263.478Z" transform="translate(-302.355 -226.041)"/>
        <path id="Trazado_1242930" data-name="Trazado 1242930" d="M2.421,255.143H9.975a.855.855,0,0,1,.851.939A9.818,9.818,0,0,1,1.244,265.2c-.143,0-.286,0-.428-.011A.855.855,0,0,1,0,264.337v-6.773A2.424,2.424,0,0,1,2.421,255.143Zm6.562,1.711H2.421a.711.711,0,0,0-.71.71v5.914A8.074,8.074,0,0,0,8.982,256.854Z" transform="translate(0 -226.041)"/>
        <path id="Trazado_1242931" data-name="Trazado 1242931" d="M349.693,433.858h-7.554a.855.855,0,0,1-.851-.939,9.818,9.818,0,0,1,9.583-9.121c.143,0,.286,0,.428.011a.856.856,0,0,1,.816.855v6.773A2.424,2.424,0,0,1,349.693,433.858Zm-6.562-1.711h6.562a.711.711,0,0,0,.71-.71v-5.914A8.074,8.074,0,0,0,343.131,432.147Z" transform="translate(-302.355 -375.458)"/>
        <path id="Trazado_1242932" data-name="Trazado 1242932" d="M9.975,433.858H2.421A2.424,2.424,0,0,1,0,431.437v-6.773a.855.855,0,0,1,.816-.855c.142-.007.284-.011.428-.011a9.818,9.818,0,0,1,9.583,9.121.855.855,0,0,1-.851.939Zm-8.264-8.335v5.914a.711.711,0,0,0,.71.71H8.982A8.074,8.074,0,0,0,1.711,425.523Z" transform="translate(0 -375.458)"/>
        <g id="Group_1202476" data-name="Group 1202476" transform="translate(21.19 36.707)">
          <path id="Trazado_1242933" data-name="Trazado 1242933" d="M189.486,347.236A4.277,4.277,0,0,1,185.9,345.4a.855.855,0,0,1,1.457-.9,2.568,2.568,0,0,0,2.125,1.027c1.436,0,1.957-.791,1.957-1.323,0-.574-.111-1.118-1.455-1.472-2.37-.624-3.729-1.8-3.729-3.237a3.2,3.2,0,0,1,3.358-3,4.788,4.788,0,0,1,3.139,1.379.855.855,0,0,1-1.23,1.19,3.067,3.067,0,0,0-1.91-.858,1.534,1.534,0,0,0-1.647,1.285c0,.465.843,1.158,2.454,1.582,1.811.477,2.73,1.529,2.73,3.126C193.155,345.673,191.869,347.236,189.486,347.236Z" transform="translate(-185.777 -334.823)"/>
          <g id="Group_1202475" data-name="Group 1202475" transform="translate(2.833)">
            <path id="Línea_626" data-name="Línea 626" d="M-6.645-4.576A.855.855,0,0,1-7.5-5.431V-6.645A.855.855,0,0,1-6.645-7.5a.855.855,0,0,1,.855.855v1.213A.855.855,0,0,1-6.645-4.576Z" transform="translate(7.5 7.5)"/>
            <path id="Línea_627" data-name="Línea 627" d="M-6.645-4.576A.855.855,0,0,1-7.5-5.431V-6.645A.855.855,0,0,1-6.645-7.5a.855.855,0,0,1,.855.855v1.213A.855.855,0,0,1-6.645-4.576Z" transform="translate(7.5 18.664)"/>
          </g>
        </g>
        <path id="Trazado_1242934" data-name="Trazado 1242934" d="M92.581,85.673a3.4,3.4,0,0,1-2.529-1.085.855.855,0,0,1,1.256-1.162,1.679,1.679,0,0,0,1.273.536c.885,0,1.207-.444,1.207-.742s0-.622-.9-.858c-1.846-.486-2.9-1.432-2.9-2.594a2.571,2.571,0,0,1,2.69-2.425,3.684,3.684,0,0,1,2.466,1.081.855.855,0,0,1-1.228,1.191,2.015,2.015,0,0,0-1.238-.561.907.907,0,0,0-.979.714c0,.172.492.64,1.629.939A2.493,2.493,0,0,1,95.5,83.221,2.644,2.644,0,0,1,92.581,85.673Z" transform="translate(-79.579 -68.522)"/>
        <g id="Group_1202477" data-name="Group 1202477" transform="translate(12.131 7.594)">
          <path id="Línea_628" data-name="Línea 628" d="M-6.645-4.9A.855.855,0,0,1-7.5-5.755v-.89A.855.855,0,0,1-6.645-7.5a.855.855,0,0,1,.855.855v.89A.855.855,0,0,1-6.645-4.9Z" transform="translate(7.5 7.5)"/>
          <path id="Línea_629" data-name="Línea 629" d="M-6.645-4.9A.855.855,0,0,1-7.5-5.755v-.89A.855.855,0,0,1-6.645-7.5a.855.855,0,0,1,.855.855v.89A.855.855,0,0,1-6.645-4.9Z" transform="translate(7.5 15.685)"/>
        </g>
        <path id="Trazado_1242935" data-name="Trazado 1242935" d="M417.9,113.5h7.554a2.424,2.424,0,0,1,2.421,2.421V122.7a.855.855,0,0,1-.816.855c-.142.007-.284.011-.428.011a9.818,9.818,0,0,1-9.583-9.121.855.855,0,0,1,.851-.939Zm8.264,8.335v-5.914a.711.711,0,0,0-.71-.71h-6.562A8.074,8.074,0,0,0,426.163,121.836Z" transform="translate(-369.474 -100.555)"/>
        <g id="Group_1202479" data-name="Group 1202479" transform="translate(30.314 20.551)">
          <path id="Trazado_1242936" data-name="Trazado 1242936" d="M271.808,203.416a.855.855,0,0,1-.855-.855c0-.574-.111-1.118-1.455-1.472-2.37-.624-3.729-1.8-3.729-3.237a3.2,3.2,0,0,1,3.358-3,4.788,4.788,0,0,1,3.139,1.379.855.855,0,0,1-1.23,1.19,3.066,3.066,0,0,0-1.91-.858,1.534,1.534,0,0,0-1.647,1.285c0,.465.843,1.158,2.454,1.582,1.811.477,2.73,1.529,2.73,3.126A.855.855,0,0,1,271.808,203.416Z" transform="translate(-265.769 -193.181)"/>
          <g id="Group_1202478" data-name="Group 1202478" transform="translate(2.351)">
            <path id="Línea_630" data-name="Línea 630" d="M-6.645-4.576A.855.855,0,0,1-7.5-5.431V-6.645A.855.855,0,0,1-6.645-7.5a.855.855,0,0,1,.855.855v1.213A.855.855,0,0,1-6.645-4.576Z" transform="translate(7.5 7.5)"/>
          </g>
        </g>
        <path id="Trazado_1242937" data-name="Trazado 1242937" d="M430.344,282.156c.144,0,.286,0,.428.011a.855.855,0,0,1,.815.855V289.8a2.424,2.424,0,0,1-2.421,2.421H422.09a.855.855,0,0,1-.855-.855v-2.205a.855.855,0,0,1,.046-.277A9.7,9.7,0,0,1,430.344,282.156Zm-1.177,8.349a.711.711,0,0,0,.71-.71v-5.913a8.023,8.023,0,0,0-6.93,5.419v1.2Z" transform="translate(-373.188 -249.972)"/>
        <path id="Trazado_1242938" data-name="Trazado 1242938" d="M227.539,166.087H210.552a.855.855,0,0,1-.831-.651,10.755,10.755,0,0,1-.31-2.567,9.649,9.649,0,1,1,19.269,0,10.756,10.756,0,0,1-.31,2.567A.855.855,0,0,1,227.539,166.087Zm-16.292-1.711h15.6a9.083,9.083,0,0,0,.126-1.507,7.941,7.941,0,1,0-15.847,0A9.082,9.082,0,0,0,211.248,164.376Z" transform="translate(-185.525 -135.274)"/>
        <path id="Elipse_13352" data-name="Elipse 13352" d="M5.487-7.5A12.987,12.987,0,1,1-7.5,5.487,13,13,0,0,1,5.487-7.5Zm0,24.262A11.276,11.276,0,1,0-5.789,5.487,11.288,11.288,0,0,0,5.487,16.762Z" transform="translate(7.5 7.5)"/>
        <path id="Elipse_13353" data-name="Elipse 13353" d="M1.482-7.5a8.993,8.993,0,0,1,8.982,8.982,8.993,8.993,0,0,1-8.982,8.982A8.993,8.993,0,0,1-7.5,1.482,8.993,8.993,0,0,1,1.482-7.5Zm0,16.254A7.28,7.28,0,0,0,8.754,1.482,7.28,7.28,0,0,0,1.482-5.789,7.28,7.28,0,0,0-5.789,1.482,7.28,7.28,0,0,0,1.482,8.754Z" transform="translate(11.504 11.504)"/>
        <path id="Trazado_1242939" data-name="Trazado 1242939" d="M47.337,284.439h-20.6a.855.855,0,1,1,0-1.711h20.6a.711.711,0,0,0,.71-.71V257.563a.711.711,0,0,0-.71-.71H2.421a.711.711,0,0,0-.71.71v24.456a.711.711,0,0,0,.71.71H22.745a.855.855,0,1,1,0,1.711H2.421A2.424,2.424,0,0,1,0,282.019V257.563a2.424,2.424,0,0,1,2.421-2.421H47.337a2.424,2.424,0,0,1,2.421,2.421v24.456A2.424,2.424,0,0,1,47.337,284.439Z" transform="translate(0 -226.04)"/>
        <path id="Trazado_1242940" data-name="Trazado 1242940" d="M123.1,142.8h-7.076a.855.855,0,0,1-.855-.855v-9.865a.711.711,0,0,0-.71-.71H76.615a.855.855,0,0,1-.855-.855v-5.35a.855.855,0,0,1,1.1-.819A11.283,11.283,0,0,0,91.355,114.3a.855.855,0,0,1,.854-.8H123.1a2.424,2.424,0,0,1,2.421,2.421v10.232a.855.855,0,0,1-1.711,0V115.921a.711.711,0,0,0-.71-.71H92.984a13,13,0,0,1-15.513,11.048v3.4h36.985a2.424,2.424,0,0,1,2.421,2.421v9.009H123.1a.711.711,0,0,0,.71-.71V130.145a.855.855,0,1,1,1.711,0v10.232A2.424,2.424,0,0,1,123.1,142.8Z" transform="translate(-67.119 -100.554)"/>
      </g>
    </g>
  </g>
</svg>
