<svg xmlns="http://www.w3.org/2000/svg" width="72" height="72" viewBox="0 0 72 72">
  <g id="Group_1202409" data-name="Group 1202409" transform="translate(-425.051 -7590)">
    <g id="Group_1201608" data-name="Group 1201608" transform="translate(6.051 6469)">
      <path id="Path_824488" data-name="Path 824488" d="M36,0A36,36,0,1,1,0,36,36,36,0,0,1,36,0Z" transform="translate(419 1121)" fill="#ccf5ec"/>
    </g>
    <g id="layer1" transform="translate(439.521 7323.404)">
      <path id="path15777-4" d="M42.143,284.035H.794V315.4A1.423,1.423,0,0,0,2.22,316.83h38.5a1.423,1.423,0,0,0,1.426-1.426Z" transform="translate(0.448 5.828)" fill="#dbe9ee"/>
      <path id="rect2181-6" d="M2.22,280.86a1.423,1.423,0,0,0-1.426,1.426v7.129H42.143v-7.129a1.423,1.423,0,0,0-1.426-1.426Z" transform="translate(0.448 0.448)" fill="#33658a"/>
      <g id="Group_1202408" data-name="Group 1202408" transform="translate(4.094 284.16)">
        <path id="path2185-5" d="M4.7,283.345a1.426,1.426,0,1,1-1.426-1.426A1.426,1.426,0,0,1,4.7,283.345Z" transform="translate(-1.852 -281.919)" fill="#5b91b8"/>
        <path id="circle2187-5" d="M6.82,283.345a1.426,1.426,0,1,1-1.426-1.426,1.426,1.426,0,0,1,1.426,1.426Z" transform="translate(1.735 -281.919)" fill="#5b91b8"/>
        <path id="circle2189-2" d="M8.937,283.345a1.426,1.426,0,1,1-1.426-1.426,1.426,1.426,0,0,1,1.426,1.426Z" transform="translate(5.321 -281.919)" fill="#5b91b8"/>
      </g>
      <path id="rect2197-2" d="M9.79,281.919H24.048v2.852H9.79Z" transform="translate(15.692 2.242)" fill="#dbe9ee"/>
      <path id="rect2118" d="M2.381,285.623H35.175v18.536H2.381Z" transform="translate(3.138 8.518)" fill="#ff6b6b"/>
      <path id="path2126" d="M7.408,294.869l5.7-3.565-5.7-3.565Z" transform="translate(11.657 12.105)" fill="#dbe9ee"/>
      <path id="path13073-4" d="M2.667,280.6a2.146,2.146,0,0,0-2.137,2.136v38.5a2.152,2.152,0,0,0,2.137,2.143h38.5a2.151,2.151,0,0,0,2.136-2.143v-38.5a2.145,2.145,0,0,0-2.136-2.136Zm0,1.426h38.5a.692.692,0,0,1,.71.71v6.415H1.956v-6.415a.692.692,0,0,1,.71-.71Zm2.852,1.426a2.137,2.137,0,1,0,2.143,2.137,2.146,2.146,0,0,0-2.143-2.137Zm5.7,0a2.137,2.137,0,1,0,2.137,2.137A2.146,2.146,0,0,0,11.223,283.448Zm5.7,0a2.137,2.137,0,1,0,2.137,2.137A2.151,2.151,0,0,0,16.928,283.448Zm8.519,0a.717.717,0,0,0-.677.71v2.853a.713.713,0,0,0,.71.71H39.742a.713.713,0,0,0,.71-.71v-2.853a.713.713,0,0,0-.71-.71ZM5.518,284.875a.713.713,0,1,1-.71.71A.7.7,0,0,1,5.518,284.875Zm5.7,0a.713.713,0,0,1,0,1.426.713.713,0,1,1,0-1.426Zm5.7,0a.713.713,0,0,1,0,1.426.713.713,0,1,1,0-1.426Zm9.268,0h12.83V286.3H26.2Zm-24.239,5.7H41.878v30.654a.7.7,0,0,1-.71.717H2.667a.7.7,0,0,1-.71-.717Zm3.565,2.854a.713.713,0,0,0-.716.71V312.68a.713.713,0,0,0,.716.71H38.312a.713.713,0,0,0,.716-.71V294.139a.713.713,0,0,0-.716-.71Zm.71,1.427H37.6v17.109H6.231Zm12.8,4.277a.714.714,0,0,0-.685.71v7.132a.713.713,0,0,0,1.09.6l5.7-3.567a.713.713,0,0,0,0-1.206l-5.7-3.567a.714.714,0,0,0-.405-.106Zm.741,2,3.652,2.284-3.652,2.279Zm-7.14,13.678a.714.714,0,0,0-.7.72v.717H5.483a.713.713,0,1,0,0,1.426h6.452v.71a.713.713,0,1,0,1.426,0v-2.853A.713.713,0,0,0,12.636,314.806Zm2.863,2.863H38.312a.713.713,0,1,0,0-1.426H15.465a.713.713,0,0,0,.034,1.426Z" transform="translate(0)"/>
    </g>
  </g>
</svg>
