<svg xmlns="http://www.w3.org/2000/svg" xmlns:xlink="http://www.w3.org/1999/xlink" width="98.152" height="124.79" viewBox="0 0 98.152 124.79">
  <defs>
    <filter id="Rectangle_410591" x="0" y="0" width="73" height="124.79" filterUnits="userSpaceOnUse">
      <feOffset dy="3" input="SourceAlpha"/>
      <feGaussianBlur stdDeviation="3" result="blur"/>
      <feFlood flood-opacity="0.161"/>
      <feComposite operator="in" in2="blur"/>
      <feComposite in="SourceGraphic"/>
    </filter>
  </defs>
  <g id="Group_1202407" data-name="Group 1202407" transform="translate(-906 -5900.364)">
    <g id="Group_1201605" data-name="Group 1201605" transform="translate(663.15 135.04)">
      <g id="Group_1200292" data-name="Group 1200292" transform="translate(0 4.873)">
        <g transform="matrix(1, 0, 0, 1, 242.85, 5760.45)" filter="url(#Rectangle_410591)">
          <rect id="Rectangle_410591-2" data-name="Rectangle 410591" width="55" height="106.79" rx="10" transform="translate(9 6)" fill="#ffeb00"/>
        </g>
      </g>
    </g>
    <g id="presupuesto" transform="translate(931.306 5924.764)">
      <path id="Path_1242700" data-name="Path 1242700" d="M148.6,20.31V63.064c0,.085,0,.171-.006.256a5.52,5.52,0,0,1-5.514,5.263H112.043a5.52,5.52,0,0,1-5.52-5.519v-49.5a5.512,5.512,0,0,1,5.52-5.52h24.65a5.5,5.5,0,0,1,2.4.549c1.491.718,1.911,1.625,4.591,4.365,3.083,3.348,3.819,3.691,4.447,5.14A5.459,5.459,0,0,1,148.6,20.31Z" transform="translate(-90.978 -6.906)" fill="#ffc477"/>
      <path id="Path_1242701" data-name="Path 1242701" d="M174.489,20.31V63.063c0,.085,0,.171-.006.256a5.537,5.537,0,0,1-1.246.141H142.205a5.52,5.52,0,0,1-5.52-5.519V8.441c0-.087,0-.172.006-.258a5.545,5.545,0,0,1,1.246-.141h24.65A5.528,5.528,0,0,1,166.62,9.8l2.955,3.161,3.383,3.54a5.555,5.555,0,0,1,1.531,3.813Z" transform="translate(-116.871 -6.905)" fill="#ffdaaa"/>
      <path id="Path_1242702" data-name="Path 1242702" d="M286.286,182.7v31.035a7.8,7.8,0,0,1-7.8,7.8H258.215a7.8,7.8,0,0,1-7.8-7.8V182.7a7.8,7.8,0,0,1,7.8-7.8h20.271A7.8,7.8,0,0,1,286.286,182.7Z" transform="translate(-214.507 -150.147)" fill="#4cba68"/>
      <path id="Path_1242703" data-name="Path 1242703" d="M305.853,182.7v31.035a7.759,7.759,0,0,1-1.511,4.614,7.768,7.768,0,0,1-3.065.626H281.007a7.8,7.8,0,0,1-7.8-7.8V180.136a7.759,7.759,0,0,1,1.511-4.614,7.768,7.768,0,0,1,3.065-.626h20.271A7.8,7.8,0,0,1,305.853,182.7Z" transform="translate(-234.073 -150.147)" fill="#7ccc92"/>
      <path id="Path_1242704" data-name="Path 1242704" d="M362.017,367.136v3.645a1.166,1.166,0,0,1-1.165,1.167h-3.646a1.166,1.166,0,0,1-1.167-1.167v-3.645a1.166,1.166,0,0,1,1.167-1.167h3.646A1.166,1.166,0,0,1,362.017,367.136Z" transform="translate(-305.185 -314.181)" fill="#2c733f"/>
      <path id="Path_1242705" data-name="Path 1242705" d="M313.448,209.593V213.5a2.515,2.515,0,0,1-2.515,2.515h-20.12A2.516,2.516,0,0,1,288.3,213.5v-3.905a2.516,2.516,0,0,1,2.515-2.515h20.12A2.515,2.515,0,0,1,313.448,209.593Z" transform="translate(-247.029 -177.775)" fill="#1e81ce"/>
      <path id="Path_1242706" data-name="Path 1242706" d="M339.341,209.593V213.5a2.515,2.515,0,0,1-2.515,2.515H320.973a2.516,2.516,0,0,1-2.515-2.515v-3.905a2.516,2.516,0,0,1,2.515-2.515h15.852A2.515,2.515,0,0,1,339.341,209.593Z" transform="translate(-272.922 -177.775)" fill="#3d9ae2"/>
      <g id="Group_1202403" data-name="Group 1202403" transform="translate(41.268 42.256)">
        <path id="Path_1242707" data-name="Path 1242707" d="M294.277,367.136v3.645a1.166,1.166,0,0,1-1.167,1.167h-3.646a1.167,1.167,0,0,1-1.167-1.167v-3.645a1.167,1.167,0,0,1,1.167-1.167h3.646A1.166,1.166,0,0,1,294.277,367.136Z" transform="translate(-288.297 -356.437)" fill="#2c733f"/>
        <path id="Path_1242708" data-name="Path 1242708" d="M362.017,299.775v3.645a1.166,1.166,0,0,1-1.165,1.167h-3.646a1.166,1.166,0,0,1-1.167-1.167v-3.645a1.166,1.166,0,0,1,1.167-1.167h3.646A1.166,1.166,0,0,1,362.017,299.775Z" transform="translate(-346.453 -298.608)" fill="#2c733f"/>
      </g>
      <path id="Path_1242709" data-name="Path 1242709" d="M430.574,299.775v3.645a1.166,1.166,0,0,1-1.167,1.167h-3.645a1.166,1.166,0,0,1-1.167-1.167v-3.645a1.166,1.166,0,0,1,1.167-1.167h3.645A1.166,1.166,0,0,1,430.574,299.775Z" transform="translate(-364.04 -256.352)" fill="#ee8700"/>
      <g id="Group_1202404" data-name="Group 1202404" transform="translate(41.268 42.256)">
        <path id="Path_1242710" data-name="Path 1242710" d="M294.277,299.775v3.645a1.166,1.166,0,0,1-1.167,1.167h-3.646a1.167,1.167,0,0,1-1.167-1.167v-3.645a1.167,1.167,0,0,1,1.167-1.167h3.646A1.166,1.166,0,0,1,294.277,299.775Z" transform="translate(-288.297 -298.608)" fill="#2c733f"/>
        <path id="Path_1242711" data-name="Path 1242711" d="M362.017,431.2v3.646a1.166,1.166,0,0,1-1.165,1.167h-3.646a1.166,1.166,0,0,1-1.167-1.167V431.2a1.166,1.166,0,0,1,1.167-1.165h3.646A1.166,1.166,0,0,1,362.017,431.2Z" transform="translate(-346.453 -411.433)" fill="#2c733f"/>
        <path id="Path_1242712" data-name="Path 1242712" d="M294.277,431.2v3.646a1.166,1.166,0,0,1-1.167,1.167h-3.646a1.167,1.167,0,0,1-1.167-1.167V431.2a1.167,1.167,0,0,1,1.167-1.165h3.646A1.166,1.166,0,0,1,294.277,431.2Z" transform="translate(-288.297 -411.433)" fill="#2c733f"/>
      </g>
      <path id="Path_1242713" data-name="Path 1242713" d="M430.574,367.7v11.32a1.989,1.989,0,0,1-1.989,1.99h-2a1.989,1.989,0,0,1-1.989-1.99V367.7a1.733,1.733,0,0,1,1.733-1.733h2.512A1.732,1.732,0,0,1,430.574,367.7Z" transform="translate(-364.04 -314.18)" fill="#ee8700"/>
      <g id="Group_1202405" data-name="Group 1202405" transform="translate(41.268 42.256)">
        <path id="Path_1242714" data-name="Path 1242714" d="M362.017,367.136v1.084a1.166,1.166,0,0,1-1.165,1.167h-3.646a1.166,1.166,0,0,1-1.167-1.167v-1.084a1.166,1.166,0,0,1,1.167-1.167h3.646A1.166,1.166,0,0,1,362.017,367.136Z" transform="translate(-346.453 -356.437)" fill="#317f46"/>
        <path id="Path_1242715" data-name="Path 1242715" d="M294.277,367.136v1.084a1.166,1.166,0,0,1-1.167,1.167h-3.646a1.167,1.167,0,0,1-1.167-1.167v-1.084a1.167,1.167,0,0,1,1.167-1.167h3.646A1.166,1.166,0,0,1,294.277,367.136Z" transform="translate(-288.297 -356.437)" fill="#317f46"/>
        <path id="Path_1242716" data-name="Path 1242716" d="M362.017,299.775v1.084a1.166,1.166,0,0,1-1.165,1.167h-3.646a1.166,1.166,0,0,1-1.167-1.167v-1.084a1.166,1.166,0,0,1,1.167-1.167h3.646A1.166,1.166,0,0,1,362.017,299.775Z" transform="translate(-346.453 -298.608)" fill="#317f46"/>
      </g>
      <path id="Path_1242717" data-name="Path 1242717" d="M430.574,299.775v1.084a1.166,1.166,0,0,1-1.167,1.167h-3.645a1.166,1.166,0,0,1-1.167-1.167v-1.084a1.166,1.166,0,0,1,1.167-1.167h3.645A1.166,1.166,0,0,1,430.574,299.775Z" transform="translate(-364.04 -256.352)" fill="#ff9811"/>
      <g id="Group_1202406" data-name="Group 1202406" transform="translate(41.268 42.256)">
        <path id="Path_1242718" data-name="Path 1242718" d="M294.277,299.775v1.084a1.166,1.166,0,0,1-1.167,1.167h-3.646a1.167,1.167,0,0,1-1.167-1.167v-1.084a1.167,1.167,0,0,1,1.167-1.167h3.646A1.166,1.166,0,0,1,294.277,299.775Z" transform="translate(-288.297 -298.608)" fill="#317f46"/>
        <path id="Path_1242719" data-name="Path 1242719" d="M362.017,431.2v1.086a1.166,1.166,0,0,1-1.165,1.167h-3.646a1.166,1.166,0,0,1-1.167-1.167V431.2a1.166,1.166,0,0,1,1.167-1.165h3.646A1.166,1.166,0,0,1,362.017,431.2Z" transform="translate(-346.453 -411.433)" fill="#317f46"/>
        <path id="Path_1242720" data-name="Path 1242720" d="M294.277,431.2v1.086a1.166,1.166,0,0,1-1.167,1.167h-3.646a1.167,1.167,0,0,1-1.167-1.167V431.2a1.167,1.167,0,0,1,1.167-1.165h3.646A1.166,1.166,0,0,1,294.277,431.2Z" transform="translate(-288.297 -411.433)" fill="#317f46"/>
      </g>
      <path id="Path_1242721" data-name="Path 1242721" d="M430.574,367.7v8.76a1.989,1.989,0,0,1-1.989,1.99h-2a1.989,1.989,0,0,1-1.989-1.99V367.7a1.733,1.733,0,0,1,1.733-1.733h2.512A1.732,1.732,0,0,1,430.574,367.7Z" transform="translate(-364.04 -314.18)" fill="#ff9811"/>
      <path id="Path_1242722" data-name="Path 1242722" d="M345.7,21.429h-6.917a2.122,2.122,0,0,1-2.122-2.122V11.924a5.513,5.513,0,0,1,1.636,1.2l2.956,3.162,3.383,3.54A5.465,5.465,0,0,1,345.7,21.429Z" transform="translate(-288.549 -10.237)" fill="#ffb655"/>
      <path id="Path_1242723" data-name="Path 1242723" d="M91.422,464.354a2.71,2.71,0,0,1-2.7,2.7H72.159a2.7,2.7,0,0,1,0-5.406h16.56A2.711,2.711,0,0,1,91.422,464.354Z" transform="translate(-59.156 -396.323)" fill="#aa6100"/>
      <path id="Path_1242724" data-name="Path 1242724" d="M91.422,426.149a2.71,2.71,0,0,1-2.7,2.7H72.159a2.7,2.7,0,0,1,0-5.406h16.56A2.711,2.711,0,0,1,91.422,426.149Z" transform="translate(-59.156 -363.525)" fill="#cc7400"/>
      <path id="Path_1242725" data-name="Path 1242725" d="M91.422,387.945a2.71,2.71,0,0,1-2.7,2.7H72.159a2.7,2.7,0,0,1,0-5.406h16.56A2.711,2.711,0,0,1,91.422,387.945Z" transform="translate(-59.156 -330.727)" fill="#ee8700"/>
      <path id="Path_1242726" data-name="Path 1242726" d="M91.422,349.739a2.71,2.71,0,0,1-2.7,2.7H72.159a2.711,2.711,0,0,1-2.7-2.7,2.71,2.71,0,0,1,2.7-2.7h16.56A2.711,2.711,0,0,1,91.422,349.739Z" transform="translate(-59.156 -297.927)" fill="#ff9811"/>
      <path id="Path_1242727" data-name="Path 1242727" d="M88.719,314.24H72.159a2.711,2.711,0,0,1-2.7-2.7h0a2.711,2.711,0,0,1,2.7-2.7h16.56a2.711,2.711,0,0,1,2.7,2.7h0A2.711,2.711,0,0,1,88.719,314.24Z" transform="translate(-59.156 -265.131)" fill="#ffa733"/>
      <path id="Path_1242728" data-name="Path 1242728" d="M29.688,386.049a8.8,8.8,0,0,0-9.166-8.423H17.075a8.807,8.807,0,0,0,.753,17.6h2.693v0c.246.01.494.012.744,0A8.95,8.95,0,0,0,22.9,395a8.808,8.808,0,0,0,6.788-8.256v-.01C29.7,386.507,29.7,386.28,29.688,386.049Z" transform="translate(-6.931 -324.182)" fill="#cc7400"/>
      <path id="Path_1242729" data-name="Path 1242729" d="M75.135,388.138v.01a8.807,8.807,0,0,1-6.788,8.256,8.811,8.811,0,0,1-6.779-8.2c0-.02,0-.038,0-.058v-.01a8.81,8.81,0,0,1,6.786-8.883,8.809,8.809,0,0,1,6.782,8.2C75.144,387.684,75.144,387.912,75.135,388.138Z" transform="translate(-52.377 -325.587)" fill="#ee8700"/>
      <path id="Path_1242730" data-name="Path 1242730" d="M63.979,23.682H58.756V13.4a6.675,6.675,0,0,0-1.845-4.6L53.536,5.274C50.672,2.323,50.311,1.49,48.6.662A6.674,6.674,0,0,0,45.715,0H21.066a6.666,6.666,0,0,0-6.658,6.658V42.565H13a3.839,3.839,0,0,0-2.726,6.544,3.827,3.827,0,0,0-1.115,2.7,3.941,3.941,0,0,0,.075.76,9.683,9.683,0,0,0,1.384,19.308l18.942-.007a3.839,3.839,0,0,0,2.726-6.544,3.821,3.821,0,0,0,1.11-2.512H34.84v.77a8.877,8.877,0,0,0,8.868,8.868H63.979a8.877,8.877,0,0,0,8.868-8.868V32.55A8.877,8.877,0,0,0,63.979,23.682ZM49.251,4.025c4.47,4.725,5.477,5.79,5.667,5.991,0,0,0,0,0,0h0a.031.031,0,0,0,.006.007h0a.024.024,0,0,0,.008.008l0,.006s0,0,0,0,0,0,0,0,0,0,.006.006h-5.7V4.025ZM13,44.841h16.56a1.565,1.565,0,1,1,0,3.13H13a1.565,1.565,0,1,1,0-3.13Zm0,5.406h16.56a1.565,1.565,0,1,1,0,3.13H18.125a9.27,9.27,0,0,0-1.441-.521,9.6,9.6,0,0,0-2.276-.334c-.223-.006-.447,0-.67.006H11.613a1.539,1.539,0,0,1-.175-.716A1.568,1.568,0,0,1,13,50.247Zm18.125,6.971a1.567,1.567,0,0,1-1.565,1.565H23.194a9.574,9.574,0,0,0-1.932-3.13h8.3A1.568,1.568,0,0,1,31.128,57.218ZM7.466,55.175a9.821,9.821,0,0,0-1.793,2.3H4.347A7.517,7.517,0,0,1,7.466,55.175ZM3.137,59.608H4.794a9.826,9.826,0,0,0-.31,1.706H2.733A7.479,7.479,0,0,1,3.137,59.608ZM3.32,65.25a7.466,7.466,0,0,1-.535-1.8H4.524a8.588,8.588,0,0,0,.407,1.8Zm1.42,2.134c.7,0,1.1,0,1.2,0A9.611,9.611,0,0,0,7.47,69.233,7.519,7.519,0,0,1,4.74,67.383Zm9.711,2.363a7.55,7.55,0,1,1,4.783-13.1A7.544,7.544,0,0,1,14.451,69.747ZM29.563,69.6H20.377a9.75,9.75,0,0,0,2.446-3.13h6.741a1.565,1.565,0,0,1,0,3.13Zm1.552-6.781a1.566,1.566,0,0,1-1.552,1.374H23.608a9.779,9.779,0,0,0,.138-3.13h5.817A1.566,1.566,0,0,1,31.116,62.815Zm3.725-2.276H32.786a3.776,3.776,0,0,0-.5-.617,3.833,3.833,0,0,0,0-5.406,3.833,3.833,0,0,0,0-5.406,3.844,3.844,0,0,0-2.726-6.544H16.684V6.658a4.388,4.388,0,0,1,4.382-4.382H46.974v8.916a1.138,1.138,0,0,0,1.138,1.138h8.232c.238.922.091.617.135,11.352H43.708A8.877,8.877,0,0,0,34.84,32.55V60.539Zm35.872,3.046a6.741,6.741,0,0,1-6.734,6.734H43.708a6.742,6.742,0,0,1-6.734-6.734V32.55a6.742,6.742,0,0,1,6.734-6.734H63.979a6.741,6.741,0,0,1,6.734,6.734V63.585Z"/>
      <path id="Path_1242731" data-name="Path 1242731" d="M288.21,208.474h-3.871a1.453,1.453,0,0,1-1.448-1.448V203.12a1.453,1.453,0,0,1,1.448-1.448h20.12a1.45,1.45,0,0,1,1.448,1.448v3.905a1.45,1.45,0,0,1-1.448,1.448H292.812a1.067,1.067,0,0,0,0,2.134h11.648a3.586,3.586,0,0,0,3.582-3.582V203.12a3.586,3.586,0,0,0-3.582-3.582h-20.12a3.582,3.582,0,0,0-3.582,3.582v3.905a3.582,3.582,0,0,0,3.582,3.582h3.871a1.067,1.067,0,0,0,0-2.134Z" transform="translate(-240.556 -171.302)"/>
      <path id="Path_1242732" data-name="Path 1242732" d="M282.991,366.541h3.646a2.235,2.235,0,0,0,2.234-2.234v-3.645a2.236,2.236,0,0,0-2.234-2.234h-3.646a2.236,2.236,0,0,0-2.234,2.234v3.645A2.236,2.236,0,0,0,282.991,366.541Zm-.1-5.879a.1.1,0,0,1,.1-.1h3.646a.1.1,0,0,1,.1.1v3.645a.1.1,0,0,1-.1.1h-3.646a.1.1,0,0,1-.1-.1Z" transform="translate(-240.556 -307.708)"/>
      <path id="Path_1242733" data-name="Path 1242733" d="M422.935,291.068H419.29a2.236,2.236,0,0,0-2.234,2.234v3.645a2.236,2.236,0,0,0,2.234,2.234h3.645a2.236,2.236,0,0,0,2.234-2.234V293.3A2.236,2.236,0,0,0,422.935,291.068Zm.1,5.879a.1.1,0,0,1-.1.1H419.29a.1.1,0,0,1-.1-.1c.044-3.607-.093-3.745.1-3.745h3.645a.1.1,0,0,1,.1.1Z" transform="translate(-357.567 -249.879)"/>
      <path id="Path_1242734" data-name="Path 1242734" d="M282.991,299.18h3.646a2.236,2.236,0,0,0,2.234-2.234V293.3a2.236,2.236,0,0,0-2.234-2.234h-3.646a2.236,2.236,0,0,0-2.234,2.234v3.645A2.236,2.236,0,0,0,282.991,299.18Zm-.1-5.879a.1.1,0,0,1,.1-.1h3.646a.1.1,0,0,1,.1.1v3.645a.1.1,0,0,1-.1.1h-3.646a.1.1,0,0,1-.1-.1Z" transform="translate(-240.556 -249.879)"/>
      <path id="Path_1242735" data-name="Path 1242735" d="M288.286,423.244a2.233,2.233,0,0,0-1.672-.753h-3.646a2.227,2.227,0,0,0-1.67.753,3.052,3.052,0,0,0-.563,2.276v2.85a2.236,2.236,0,0,0,2.234,2.234h3.646a2.236,2.236,0,0,0,2.234-2.234v-2.85A3.077,3.077,0,0,0,288.286,423.244Zm-1.672,5.226c-3.6-.044-3.746.092-3.746-.1,0-3.86-.043-3.745.1-3.745h3.646c.175,0,.067.243.1.895A15.174,15.174,0,0,1,286.614,428.469Z" transform="translate(-240.533 -362.705)"/>
      <path id="Path_1242736" data-name="Path 1242736" d="M422.367,358.428h-2.512a2.8,2.8,0,0,0-2.8,2.8v11.32a3.061,3.061,0,0,0,3.056,3.057h2a3.06,3.06,0,0,0,3.056-3.057v-11.32A2.8,2.8,0,0,0,422.367,358.428Zm.666,14.12a.923.923,0,0,1-.922.923h-2a.924.924,0,0,1-.922-.923v-11.32a.667.667,0,0,1,.666-.666h2.512a.667.667,0,0,1,.666.666v11.32Z" transform="translate(-357.567 -307.707)"/>
      <path id="Path_1242737" data-name="Path 1242737" d="M167.227,174.61h0c-1.3-.478-2.241-.823-2.241-2.029,0-1.1.73-1.656,2.168-1.656,1.527,0,1.939.672,2.477.672a1.025,1.025,0,0,0,.909-1.051c0-.889-1.45-1.33-2.746-1.446v-.8a1.011,1.011,0,0,0-2.022,0v.929a3.307,3.307,0,0,0-2.746,3.459c0,2.483,1.828,3.171,3.3,3.723,1.439.541,2.575.968,2.575,2.61,0,1.357-.753,2.045-2.239,2.045-2.175,0-2.2-1.468-3.025-1.468a1.067,1.067,0,0,0-.927,1.051c0,.841,1.252,1.946,3.065,2.233v.774a1.011,1.011,0,1,0,2.022,0v-.8a3.653,3.653,0,0,0,3.065-3.946C170.859,175.944,168.845,175.2,167.227,174.61Z" transform="translate(-139.211 -143.615)"/>
      <path id="Path_1242738" data-name="Path 1242738" d="M354.358,422.491h-3.646a2.232,2.232,0,0,0-1.672.753,3.064,3.064,0,0,0-.562,2.276v2.85a2.236,2.236,0,0,0,2.234,2.234h3.646a2.235,2.235,0,0,0,2.232-2.234v-3.646a2.236,2.236,0,0,0-2.232-2.232Zm0,5.978c-3.6-.044-3.746.092-3.746-.1v-3.646a.1.1,0,0,1,.1-.1h3.646a.1.1,0,0,1,.1.1C354.413,428.334,354.547,428.469,354.358,428.469Z" transform="translate(-298.69 -362.705)"/>
      <path id="Path_1242739" data-name="Path 1242739" d="M354.379,291.068h-3.646A2.236,2.236,0,0,0,348.5,293.3v3.645a2.236,2.236,0,0,0,2.234,2.234h3.646a2.2,2.2,0,0,0,.812-.154,2.236,2.236,0,0,0,1.42-2.08V293.3A2.236,2.236,0,0,0,354.379,291.068Zm.1,5.879a.1.1,0,0,1-.1.1h-3.646a.1.1,0,0,1-.1-.1V293.3c0-.192.132-.057,3.746-.1a.1.1,0,0,1,.1.1v3.645Z" transform="translate(-298.712 -249.879)"/>
      <path id="Path_1242740" data-name="Path 1242740" d="M355.191,358.582a2.2,2.2,0,0,0-.812-.154h-3.646a2.236,2.236,0,0,0-2.234,2.234v3.645a2.236,2.236,0,0,0,2.234,2.234h3.646a2.235,2.235,0,0,0,2.232-2.234v-3.645A2.236,2.236,0,0,0,355.191,358.582Zm-.714,5.725a.1.1,0,0,1-.1.1h-3.646a.1.1,0,0,1-.1-.1v-3.645a.1.1,0,0,1,.1-.1h3.646a.1.1,0,0,1,.1.1Z" transform="translate(-298.712 -307.707)"/>
      <path id="Path_1242741" data-name="Path 1242741" d="M321.114,105.176h2.68a1.067,1.067,0,1,0,0-2.134h-2.68a1.067,1.067,0,1,0,0,2.134Z" transform="translate(-274.286 -88.461)"/>
      <path id="Path_1242742" data-name="Path 1242742" d="M157.237,105.176h18.922a1.067,1.067,0,1,0,0-2.134H157.237a1.067,1.067,0,1,0,0,2.134Z" transform="translate(-133.599 -88.461)"/>
      <path id="Path_1242743" data-name="Path 1242743" d="M160.629,142.606a1.067,1.067,0,0,0,0-2.134h-3.392a1.067,1.067,0,1,0,0,2.134Z" transform="translate(-133.599 -120.594)"/>
      <path id="Path_1242744" data-name="Path 1242744" d="M230.644,141.539a1.067,1.067,0,0,0-1.067-1.067H211.366a1.067,1.067,0,0,0,0,2.134h18.211A1.067,1.067,0,0,0,230.644,141.539Z" transform="translate(-180.068 -120.594)"/>
      <path id="Path_1242745" data-name="Path 1242745" d="M79.686,401.995c0-.268.1-.345.191-.4a1.834,1.834,0,0,1,1.547.1,1.22,1.22,0,0,0,.578.175c1.052,0,1.885-1.956-.629-2.388v-.067a1.081,1.081,0,1,0-2.163,0v.205a2.426,2.426,0,0,0-1.649,2.43c0,1.82,1.322,2.317,2.288,2.679.921.346,1.239.5,1.239,1.124,0,.392-.105.754-.871.754-1.115,0-.982-.882-1.817-.882a1.115,1.115,0,0,0-1.031,1.105c0,.739.769,1.441,1.841,1.725v.081a1.081,1.081,0,1,0,2.163,0v-.109a2.673,2.673,0,0,0,1.841-2.738C83.213,402.555,79.686,403.042,79.686,401.995Z" transform="translate(-65.949 -341.973)"/>
    </g>
  </g>
</svg>
