<svg xmlns="http://www.w3.org/2000/svg" width="126.61" height="65" viewBox="0 0 126.61 65">
  <g id="Group_1202568" data-name="Group 1202568" transform="translate(507.5 10137.021)">
    <g id="Group_1202510" data-name="Group 1202510" transform="translate(-1297.281 -12696.021)">
      <g id="Group_1200259" data-name="Group 1200259" transform="translate(-6 557.578)">
        <g id="Rectangle_410589" data-name="Rectangle 410589" transform="translate(795.781 2013.422)" fill="#ffeb00" stroke="#ffeb00" stroke-width="1">
          <rect width="126.61" height="43.021" rx="8" stroke="none"/>
          <rect x="0.5" y="0.5" width="125.61" height="42.021" rx="7.5" fill="none"/>
        </g>
      </g>
    </g>
    <circle id="Ellipse_13360" data-name="Ellipse 13360" cx="32.5" cy="32.5" r="32.5" transform="translate(-476.5 -10137.021)" fill="#b7a8f1"/>
    <path id="Path_1243560" data-name="Path 1243560" d="M3.174-15.8v2.557h-.3a5.274,5.274,0,0,0-3.389,1.1A4.452,4.452,0,0,0-2.057-9.2,4.228,4.228,0,0,1,1.09-10.463,3.984,3.984,0,0,1,4.334-9a5.856,5.856,0,0,1,1.2,3.846A5.761,5.761,0,0,1,4.877-2.4,4.738,4.738,0,0,1,3.008-.473,5.43,5.43,0,0,1,.274.215,5.072,5.072,0,0,1-3.717-1.5a6.672,6.672,0,0,1-1.52-4.587V-7.208a10.04,10.04,0,0,1,.961-4.5,7.05,7.05,0,0,1,2.761-3.019A8.09,8.09,0,0,1,2.659-15.8ZM.145-7.971a2.477,2.477,0,0,0-1.364.392,2.361,2.361,0,0,0-.9,1.037V-5.6a4.194,4.194,0,0,0,.612,2.433,1.977,1.977,0,0,0,1.719.875,1.956,1.956,0,0,0,1.617-.79,3.224,3.224,0,0,0,.618-2.046,3.218,3.218,0,0,0-.623-2.062A2.029,2.029,0,0,0,.145-7.971Z" transform="translate(-443.167 -10098.521)" fill="#fff"/>
  </g>
</svg>
