<svg xmlns="http://www.w3.org/2000/svg" xmlns:xlink="http://www.w3.org/1999/xlink" width="190" height="172" viewBox="0 0 190 172">
  <defs>
    <clipPath id="clip-path">
      <path id="path9156" d="M0-682.665H70.649v70.649H0Z" transform="translate(0 682.665)"/>
    </clipPath>
  </defs>
  <g id="Group_1202415" data-name="Group 1202415" transform="translate(-1230.051 -394)">
    <g id="Group_1201262" data-name="Group 1201262" transform="translate(0 14)">
      <rect id="Rectangle_410977" data-name="Rectangle 410977" width="190" height="172" transform="translate(1230.051 380)" fill="#f7f5fd"/>
      <g id="Group_1201261" data-name="Group 1201261" transform="translate(1261.568 428.717)">
        <g id="Group_1200259" data-name="Group 1200259" transform="translate(0 16.01)">
          <g id="Rectangle_410589" data-name="Rectangle 410589" fill="#ffeb00" stroke="#ffeb00" stroke-width="1">
            <rect width="126.61" height="43.021" rx="8" stroke="none"/>
            <rect x="0.5" y="0.5" width="125.61" height="42.021" rx="7.5" fill="none"/>
          </g>
        </g>
      </g>
    </g>
    <g id="g9150" transform="translate(1289.726 1127.34)">
      <g id="g9152" transform="translate(0 -682.665)">
        <g id="g9154" clip-path="url(#clip-path)">
          <g id="g9160" transform="translate(58.577 18.841)">
            <path id="path9162" d="M-3.636,0h-.01l-.41.241V7.348H2.171l.341-.29v-.91A6.166,6.166,0,0,0-3.636,0" transform="translate(4.056)" fill="#ffa90f"/>
          </g>
          <g id="g9164" transform="translate(17.872 1.035)">
            <path id="path9166" d="M-284.934-8.569l-.44-.989h-30.172a2.28,2.28,0,0,0-2.28,2.28v3.935l.948.777h25.3l8.3,8.072v10.28h5.911l.657-.48V-.895l-1.025-.453Z" transform="translate(317.826 9.559)" fill="#62ddfc"/>
          </g>
          <g id="g9168" transform="translate(17.872 1.035)">
            <path id="path9170" d="M-61.251-19.748a2.28,2.28,0,0,1,2.28-2.28h-7.071a2.28,2.28,0,0,0-2.28,2.28v3.935l.948.777H-60.3l-.948-.777Z" transform="translate(68.321 22.028)" fill="#00d2fc"/>
          </g>
          <g id="g9172" transform="translate(5.506 18.841)">
            <path id="path9174" d="M-53.336,0h-.126a6.049,6.049,0,0,0-6.031,6.031V7.058l.6.165h6.025V.388Z" transform="translate(59.493)" fill="#ffa90f"/>
          </g>
          <g id="g9176" transform="translate(50.324 1.035)">
            <path id="path9178" d="M0,0V6.384a2.28,2.28,0,0,0,2.28,2.28H8.664Z" fill="#00d2fc"/>
          </g>
          <g id="g9180" transform="translate(11.663 7.25)">
            <path id="path9182" d="M-285.725-11.31l-.531-1.306h-30.172a2.28,2.28,0,0,0-2.28,2.28V6.033l.894.894h37.767l2.455-.894V-3.952l-1.279-.6Z" transform="translate(318.709 12.616)" fill="#dbedff"/>
          </g>
          <g id="g9184" transform="translate(11.663 7.25)">
            <path id="path9186" d="M-61.251-19.748a2.28,2.28,0,0,1,2.28-2.28h-7.071a2.28,2.28,0,0,0-2.28,2.28v16.37l.894.894h7.071l-.894-.894Z" transform="translate(68.321 22.028)" fill="#b5dcff"/>
          </g>
          <g id="g9188" transform="translate(44.115 7.25)">
            <path id="path9190" d="M0,0V6.384a2.28,2.28,0,0,0,2.28,2.28H8.664Z" fill="#b5dcff"/>
          </g>
          <g id="g9192" transform="translate(50.324 1.035)">
            <path id="path9194" d="M-32.274-55.3v-2.658L-36-61.688V-55.3a2.28,2.28,0,0,0,2.28,2.28h3.726a2.28,2.28,0,0,1-2.28-2.28" transform="translate(36 61.688)" fill="#00c2fb"/>
          </g>
          <g id="g9196" transform="translate(44.115 7.25)">
            <path id="path9198" d="M-32.274-55.3v-2.658L-36-61.688V-55.3a2.28,2.28,0,0,0,2.28,2.28h3.726a2.28,2.28,0,0,1-2.28-2.28" transform="translate(36 61.688)" fill="#8bcaff"/>
          </g>
          <g id="g9200" transform="translate(5.506 25.899)">
            <path id="path9202" d="M-516.63,0h-59.638V41.883a1.833,1.833,0,0,0,1.833,1.833h55.973a1.833,1.833,0,0,0,1.833-1.833Z" transform="translate(576.268)" fill="#ffd086"/>
          </g>
          <g id="g9204" transform="translate(5.506 25.899)">
            <path id="path9206" d="M-76.143-362.819V-404.7h-8.79v41.883a1.833,1.833,0,0,0,1.833,1.833h8.79a1.833,1.833,0,0,1-1.833-1.833" transform="translate(84.933 404.702)" fill="#ffc365"/>
          </g>
          <g id="g9208" transform="translate(35.325 44.162)">
            <path id="path9210" d="M-200.411,0h-21.962a1.173,1.173,0,0,0-1.173,1.173V18.46a1.173,1.173,0,0,0,1.173,1.173h21.962a1.173,1.173,0,0,0,1.173-1.173V1.173A1.173,1.173,0,0,0-200.411,0" transform="translate(223.546)" fill="#dbedff"/>
          </g>
          <g id="g9212" transform="translate(35.325 44.162)">
            <path id="path9214" d="M-47.742-159.914V-177.2a1.173,1.173,0,0,1,1.173-1.173H-52.08a1.173,1.173,0,0,0-1.173,1.173v17.287a1.173,1.173,0,0,0,1.173,1.173h5.511a1.173,1.173,0,0,1-1.173-1.173" transform="translate(53.253 178.374)" fill="#b5dcff"/>
          </g>
          <g id="g9216" transform="translate(4.471 17.806)">
            <path id="path9218" d="M-62.427-10h.126a1.035,1.035,0,0,1,1.035,1.035v7.058A1.035,1.035,0,0,1-62.3-.873h-6.157a1.035,1.035,0,0,1-1.035-1.035V-2.934A7.074,7.074,0,0,1-62.427-10Zm-.909,7.058V-7.847a5,5,0,0,0-4.087,4.905Z" transform="translate(69.493 10)"/>
          </g>
          <g id="g9220" transform="translate(57.952 17.806)">
            <path id="path9222" d="M-9.056-10h.009A7.191,7.191,0,0,1-1.864-2.818v.91A1.035,1.035,0,0,1-2.9-.873H-9.056a1.035,1.035,0,0,1-1.035-1.035V-8.965A1.035,1.035,0,0,1-9.056-10Zm5.12,7.058A5.122,5.122,0,0,0-8.021-7.827v4.884Z" transform="translate(10.091 10)"/>
          </g>
          <g id="g9224" transform="translate(16.836 0)">
            <path id="path9226" d="M-28.713-10H1.459a1.035,1.035,0,0,1,.732.3l8.664,8.664a1.035,1.035,0,0,1,.3.732V15.9a1.035,1.035,0,0,1-1.035,1.035H3.914A1.035,1.035,0,0,1,2.879,15.9V6.342L-5.178-1.715H-30.993A1.035,1.035,0,0,1-32.028-2.75V-6.685A3.318,3.318,0,0,1-28.713-10ZM1.03-7.93H-28.713a1.246,1.246,0,0,0-1.245,1.245v2.9H-4.75a1.035,1.035,0,0,1,.732.3L4.646,5.182a1.035,1.035,0,0,1,.3.732v8.951H9.088V.127Z" transform="translate(32.028 10)"/>
          </g>
          <g id="g9228" transform="translate(10.628 6.215)">
            <path id="path9230" d="M-320.259-10h30.172a1.035,1.035,0,0,1,.732.3l8.664,8.664a1.035,1.035,0,0,1,.3.732V9.684a1.035,1.035,0,0,1-1.035,1.035h-41.116a1.035,1.035,0,0,1-1.035-1.035V-6.685A3.318,3.318,0,0,1-320.259-10Zm29.744,2.07h-29.744A1.246,1.246,0,0,0-321.5-6.685V8.649h39.046V.127Z" transform="translate(323.574 10)"/>
          </g>
          <g id="g9232" transform="translate(43.08 6.215)">
            <path id="path9234" d="M-8.965-10a1.035,1.035,0,0,1,.732.3L.431-1.033A1.035,1.035,0,0,1,.655.095,1.035,1.035,0,0,1-.3.733H-6.685A3.318,3.318,0,0,1-10-2.581V-8.965a1.035,1.035,0,0,1,.639-.956A1.033,1.033,0,0,1-8.965-10ZM-2.8-1.336l-5.13-5.13v3.886A1.246,1.246,0,0,0-6.685-1.336Z" transform="translate(10 10)"/>
          </g>
          <g id="g9236" transform="translate(49.288 0)">
            <path id="path9238" d="M-8.965-10a1.035,1.035,0,0,1,.732.3L.431-1.033A1.035,1.035,0,0,1,.655.094,1.035,1.035,0,0,1-.3.733H-6.685A3.318,3.318,0,0,1-10-2.581V-8.965a1.035,1.035,0,0,1,.639-.956A1.034,1.034,0,0,1-8.965-10ZM-2.8-1.337l-5.13-5.13v3.886A1.246,1.246,0,0,0-6.685-1.337Z" transform="translate(10 10)"/>
          </g>
          <g id="g9240" transform="translate(39.13 58.662)">
            <path id="path9242" d="M5.662-7.93H-8.965A1.035,1.035,0,0,1-10-8.965,1.035,1.035,0,0,1-8.965-10H5.662A1.035,1.035,0,0,1,6.7-8.965,1.035,1.035,0,0,1,5.662-7.93Z" transform="translate(10 10)"/>
          </g>
          <g id="g9244" transform="translate(39.13 54.85)">
            <path id="path9246" d="M5.662-7.93H-8.965A1.035,1.035,0,0,1-10-8.965,1.035,1.035,0,0,1-8.965-10H5.662A1.035,1.035,0,0,1,6.7-8.965,1.035,1.035,0,0,1,5.662-7.93Z" transform="translate(10 10)"/>
          </g>
          <g id="g9248" transform="translate(39.13 51.038)">
            <path id="path9250" d="M5.662-7.93H-8.965A1.035,1.035,0,0,1-10-8.965,1.035,1.035,0,0,1-8.965-10H5.662A1.035,1.035,0,0,1,6.7-8.965,1.035,1.035,0,0,1,5.662-7.93Z" transform="translate(10 10)"/>
          </g>
          <g id="g9252" transform="translate(39.13 47.225)">
            <path id="path9254" d="M5.662-7.93H-8.965A1.035,1.035,0,0,1-10-8.965,1.035,1.035,0,0,1-8.965-10H5.662A1.035,1.035,0,0,1,6.7-8.965,1.035,1.035,0,0,1,5.662-7.93Z" transform="translate(10 10)"/>
          </g>
          <g id="g9256" transform="translate(16.364 20.645)">
            <path id="path9258" d="M19.5-7.93H-8.965A1.035,1.035,0,0,1-10-8.965,1.035,1.035,0,0,1-8.965-10H19.5a1.035,1.035,0,0,1,1.035,1.035A1.035,1.035,0,0,1,19.5-7.93Z" transform="translate(10 10)"/>
          </g>
          <g id="g9260" transform="translate(16.364 16.833)">
            <path id="path9262" d="M15-7.93H-8.965A1.035,1.035,0,0,1-10-8.965,1.035,1.035,0,0,1-8.965-10H15a1.035,1.035,0,0,1,1.035,1.035A1.035,1.035,0,0,1,15-7.93Z" transform="translate(10 10)"/>
          </g>
          <g id="g9264" transform="translate(34.29 43.127)">
            <path id="path9266" d="M-79.937,11.7H-101.9A2.21,2.21,0,0,1-104.106,9.5V-7.792A2.21,2.21,0,0,1-101.9-10h8.566A1.035,1.035,0,0,1-92.3-8.965,1.035,1.035,0,0,1-93.332-7.93H-101.9a.138.138,0,0,0-.138.138V9.5a.138.138,0,0,0,.138.138h21.962A.138.138,0,0,0-79.8,9.5V-7.792a.138.138,0,0,0-.138-.138H-88.5a1.035,1.035,0,0,1-1.035-1.035A1.035,1.035,0,0,1-88.5-10h8.566a2.21,2.21,0,0,1,2.208,2.208V9.5A2.21,2.21,0,0,1-79.937,11.7Z" transform="translate(104.106 10)"/>
          </g>
          <g id="g9268" transform="translate(4.471 24.864)">
            <path id="path9270" d="M-527.427-141.25H-583.4a2.871,2.871,0,0,1-2.868-2.868V-186a1.035,1.035,0,0,1,1.035-1.035h59.638A1.035,1.035,0,0,1-524.56-186v18.322a1.035,1.035,0,0,1-1.035,1.035,1.035,1.035,0,0,1-1.035-1.035v-17.287H-584.2v40.848a.8.8,0,0,0,.8.8h55.973a.8.8,0,0,0,.8-.8V-162.85a1.035,1.035,0,0,1,1.035-1.035,1.035,1.035,0,0,1,1.035,1.035v18.732A2.871,2.871,0,0,1-527.427-141.25Z" transform="translate(586.268 187.035)"/>
          </g>
        </g>
      </g>
    </g>
  </g>
</svg>
