<svg xmlns="http://www.w3.org/2000/svg" xmlns:xlink="http://www.w3.org/1999/xlink" width="94" height="124.79" viewBox="0 0 94 124.79">
  <defs>
    <filter id="Rectangle_410591" x="0" y="0" width="73" height="124.79" filterUnits="userSpaceOnUse">
      <feOffset dy="3" input="SourceAlpha"/>
      <feGaussianBlur stdDeviation="3" result="blur"/>
      <feFlood flood-opacity="0.161"/>
      <feComposite operator="in" in2="blur"/>
      <feComposite in="SourceGraphic"/>
    </filter>
  </defs>
  <g id="Group_1202397" data-name="Group 1202397" transform="translate(-276 -3807.88)">
    <g id="Group_1201419" data-name="Group 1201419" transform="translate(33.15 -1957.444)">
      <g id="Group_1200292" data-name="Group 1200292" transform="translate(0 4.873)">
        <g transform="matrix(1, 0, 0, 1, 242.85, 5760.45)" filter="url(#Rectangle_410591)">
          <rect id="Rectangle_410591-2" data-name="Rectangle 410591" width="55" height="106.79" rx="10" transform="translate(9 6)" fill="#fd9826"/>
        </g>
      </g>
    </g>
    <g id="ley" transform="translate(279.809 3827.368)">
      <g id="Group_1202373" data-name="Group 1202373" transform="translate(30.86 1.169)">
        <path id="Path_1242638" data-name="Path 1242638" d="M166.738,7.5H117.094a.78.78,0,0,0-.779.779V29.89h5.112a3.82,3.82,0,0,1,.267,7.631V42.26h0a1.558,1.558,0,0,1,1.322,1.539v9.676a1.558,1.558,0,0,1-1.322,1.539h0v4.739a3.82,3.82,0,0,1-.267,7.631h-5.112v6.4h10.758a1.559,1.559,0,0,1,1.559,1.559v3.1s0,0,0,0h1.188A1.559,1.559,0,0,1,131.378,80v4.972h36.139V8.279A.78.78,0,0,0,166.738,7.5Z" transform="translate(-116.315 -7.5)" fill="#fff3de"/>
      </g>
      <g id="Group_1202374" data-name="Group 1202374" transform="translate(30.86 1.169)">
        <path id="Path_1242639" data-name="Path 1242639" d="M121.427,29.89c.047,0,.093,0,.139,0V8.279a.78.78,0,0,1,.779-.779h-5.251a.78.78,0,0,0-.779.779V29.89Z" transform="translate(-116.315 -7.5)" fill="#ffe5c2"/>
        <path id="Path_1242640" data-name="Path 1242640" d="M121.427,391.63h-5.112v6.4h5.251v-6.4C121.52,391.629,121.474,391.63,121.427,391.63Z" transform="translate(-116.315 -331.746)" fill="#ffe5c2"/>
      </g>
      <g id="Group_1202392" data-name="Group 1202392" transform="translate(16.247 23.559)">
        <g id="Group_1202375" data-name="Group 1202375" transform="translate(21.313 16.082)">
          <path id="Path_1242641" data-name="Path 1242641" d="M159.3,254.29h7.216v5.331H159.3Z" transform="translate(-159.296 -254.29)" fill="#883f2e"/>
          <path id="Path_1242642" data-name="Path 1242642" d="M237.5,254.29h10.307v5.331H237.5Z" transform="translate(-225.311 -254.29)" fill="#883f2e"/>
        </g>
        <g id="Group_1202376" data-name="Group 1202376" transform="translate(21.313 18.843)">
          <path id="Path_1242643" data-name="Path 1242643" d="M159.3,272h7.216v2.57H159.3Z" transform="translate(-159.296 -272)" fill="#6d3326"/>
          <path id="Path_1242644" data-name="Path 1242644" d="M237.5,272h10.307v2.57H237.5Z" transform="translate(-225.311 -272)" fill="#6d3326"/>
        </g>
        <g id="Group_1202377" data-name="Group 1202377" transform="translate(43.811 14.838)">
          <path id="Path_1242645" data-name="Path 1242645" d="M332.581,250.22a3.909,3.909,0,0,1-3.909,3.909H304.5a.889.889,0,0,1-.889-.889V247.2a.889.889,0,0,1,.889-.889h24.167A3.91,3.91,0,0,1,332.581,250.22Z" transform="translate(-303.616 -246.31)" fill="#ca6e59"/>
        </g>
        <g id="Group_1202378" data-name="Group 1202378" transform="translate(43.811 14.838)">
          <path id="Path_1242646" data-name="Path 1242646" d="M308.929,250.782a.888.888,0,0,1-.888-.889V246.31H304.5a.889.889,0,0,0-.889.889v6.042a.889.889,0,0,0,.889.889h24.167a3.91,3.91,0,0,0,3.868-3.346Z" transform="translate(-303.616 -246.31)" fill="#bb5d4c"/>
        </g>
        <g id="Group_1202379" data-name="Group 1202379" transform="translate(28.529 14.838)">
          <path id="Path_1242647" data-name="Path 1242647" d="M210.561,247.09v6.26a.78.78,0,0,1-.779.779h-3.417a.78.78,0,0,1-.779-.779v-6.26a.78.78,0,0,1,.779-.779h3.417A.779.779,0,0,1,210.561,247.09Z" transform="translate(-205.585 -246.311)" fill="#ca6e59"/>
        </g>
        <g id="Group_1202380" data-name="Group 1202380" transform="translate(28.529 14.838)">
          <path id="Path_1242648" data-name="Path 1242648" d="M207.845,253.35v-6.26a.78.78,0,0,1,.779-.779h-2.26a.78.78,0,0,0-.779.779v6.26a.78.78,0,0,0,.779.779h2.26A.779.779,0,0,1,207.845,253.35Z" transform="translate(-205.585 -246.311)" fill="#bb5d4c"/>
        </g>
        <g id="Group_1202381" data-name="Group 1202381" transform="translate(9.685 7.631)">
          <path id="Path_1242649" data-name="Path 1242649" d="M94.772,312.317H84.94a1.564,1.564,0,0,1-.237-.02v4.739c.088-.006.177-.01.267-.01h9.773c.09,0,.178,0,.267.01V312.3A1.548,1.548,0,0,1,94.772,312.317Z" transform="translate(-84.703 -294.803)" fill="#883f2e"/>
          <path id="Path_1242650" data-name="Path 1242650" d="M84.94,312.317a1.564,1.564,0,0,1-.237-.02v4.739c.088-.006.177-.01.267-.01h3.659v-4.709H84.94Z" transform="translate(-84.703 -294.803)" fill="#6d3326"/>
          <path id="Path_1242651" data-name="Path 1242651" d="M84.94,204.8h9.832a1.563,1.563,0,0,1,.237.02v-4.739c-.088.006-.177.01-.267.01H84.97c-.09,0-.178,0-.267-.01v4.739A1.563,1.563,0,0,1,84.94,204.8Z" transform="translate(-84.703 -200.079)" fill="#883f2e"/>
          <path id="Path_1242652" data-name="Path 1242652" d="M84.94,204.8h3.688v-4.709H84.97c-.09,0-.178,0-.267-.01v4.739A1.591,1.591,0,0,1,84.94,204.8Z" transform="translate(-84.703 -200.078)" fill="#6d3326"/>
        </g>
        <g id="Group_1202382" data-name="Group 1202382" transform="translate(8.363 12.35)">
          <path id="Path_1242653" data-name="Path 1242653" d="M89.175,231.911v9.676a1.559,1.559,0,0,1-1.559,1.559H77.784a1.559,1.559,0,0,1-1.559-1.559v-9.676a1.559,1.559,0,0,1,1.559-1.559h9.832A1.559,1.559,0,0,1,89.175,231.911Z" transform="translate(-76.225 -230.352)" fill="#ca6e59"/>
        </g>
        <g id="Group_1202383" data-name="Group 1202383" transform="translate(8.363 12.35)">
          <path id="Path_1242654" data-name="Path 1242654" d="M81.49,241.587v-9.676a1.559,1.559,0,0,1,1.559-1.559H77.784a1.559,1.559,0,0,0-1.559,1.559v9.676a1.559,1.559,0,0,0,1.559,1.559h5.265A1.559,1.559,0,0,1,81.49,241.587Z" transform="translate(-76.225 -230.352)" fill="#bb5d4c"/>
        </g>
        <g id="Group_1202386" data-name="Group 1202386" transform="translate(0 43.892)">
          <path id="Path_1242655" data-name="Path 1242655" d="M64.37,437.506a1.594,1.594,0,0,0,.008-.16v-3.1a1.559,1.559,0,0,0-1.559-1.559H41.754a1.559,1.559,0,0,0-1.559,1.559v3.1a1.6,1.6,0,0,0,.008.16Z" transform="translate(-37.449 -432.685)" fill="#ca6e59"/>
          <path id="Path_1242656" data-name="Path 1242656" d="M45.473,437.506a1.6,1.6,0,0,1-.008-.16v-3.1a1.559,1.559,0,0,1,1.559-1.559h-5.27a1.559,1.559,0,0,0-1.559,1.559v3.1a1.6,1.6,0,0,0,.008.16Z" transform="translate(-37.449 -432.685)" fill="#bb5d4c"/>
          <g id="Group_1202384" data-name="Group 1202384" transform="translate(0 4.665)">
            <path id="Path_1242657" data-name="Path 1242657" d="M52.254,469.138h-28.9a.78.78,0,0,1-.779-.779v-4.192a1.559,1.559,0,0,1,1.559-1.559H50.695a1.559,1.559,0,0,1,1.559,1.559Z" transform="translate(-22.578 -462.608)" fill="#883f2e"/>
          </g>
          <g id="Group_1202385" data-name="Group 1202385" transform="translate(0 4.665)">
            <path id="Path_1242658" data-name="Path 1242658" d="M27.788,468.359v-4.192a1.559,1.559,0,0,1,1.559-1.559h-5.21a1.559,1.559,0,0,0-1.559,1.559v4.192a.78.78,0,0,0,.779.779h5.21A.78.78,0,0,1,27.788,468.359Z" transform="translate(-22.578 -462.608)" fill="#6d3326"/>
          </g>
        </g>
        <g id="Group_1202391" data-name="Group 1202391" transform="translate(6.131)">
          <g id="Group_1202387" data-name="Group 1202387" transform="translate(0 29.853)">
            <path id="Path_1242659" data-name="Path 1242659" d="M79.319,346.454a3.821,3.821,0,0,1-3.821,3.821H65.726a3.821,3.821,0,0,1,0-7.641H75.5A3.821,3.821,0,0,1,79.319,346.454Z" transform="translate(-61.905 -342.633)" fill="#ca6e59"/>
          </g>
          <g id="Group_1202388" data-name="Group 1202388" transform="translate(0 29.853)">
            <path id="Path_1242660" data-name="Path 1242660" d="M67.109,346.454a3.821,3.821,0,0,1,3.821-3.821h-5.2a3.821,3.821,0,0,0,0,7.641h5.2A3.821,3.821,0,0,1,67.109,346.454Z" transform="translate(-61.905 -342.633)" fill="#bb5d4c"/>
          </g>
          <g id="Group_1202389" data-name="Group 1202389" transform="translate(0)">
            <path id="Path_1242661" data-name="Path 1242661" d="M79.319,154.949a3.821,3.821,0,0,1-3.821,3.821H65.726a3.821,3.821,0,1,1,0-7.641H75.5A3.821,3.821,0,0,1,79.319,154.949Z" transform="translate(-61.905 -151.128)" fill="#ca6e59"/>
          </g>
          <g id="Group_1202390" data-name="Group 1202390">
            <path id="Path_1242662" data-name="Path 1242662" d="M67.109,154.949a3.821,3.821,0,0,1,3.821-3.821h-5.2a3.821,3.821,0,1,0,0,7.641h5.2A3.82,3.82,0,0,1,67.109,154.949Z" transform="translate(-61.905 -151.128)" fill="#bb5d4c"/>
          </g>
        </g>
      </g>
      <g id="Group_1202395" data-name="Group 1202395" transform="translate(45.522 8.435)">
        <g id="Group_1202393" data-name="Group 1202393">
          <circle id="Ellipse_13343" data-name="Ellipse 13343" cx="10.939" cy="10.939" r="10.939" fill="#4fc123"/>
        </g>
        <g id="Group_1202394" data-name="Group 1202394" transform="translate(0)">
          <path id="Path_1242663" data-name="Path 1242663" d="M215.614,65.046a10.941,10.941,0,0,1,8.317-10.62,10.939,10.939,0,1,0,0,21.24A10.941,10.941,0,0,1,215.614,65.046Z" transform="translate(-210.372 -54.107)" fill="#47a920"/>
        </g>
      </g>
      <g id="Group_1202396" data-name="Group 1202396" transform="translate(15.078 0)">
        <path id="Path_1242664" data-name="Path 1242664" d="M85.114,37.228H83.231V16.992a1.169,1.169,0,0,0-1.205-1.169,1.2,1.2,0,0,0-1.133,1.218V37.228H73.056a1.169,1.169,0,1,0,0,2.338H85.114a2.74,2.74,0,0,1,0,5.48H61.227v-5.48H67.6a1.169,1.169,0,1,0,0-2.338H60.946a2.06,2.06,0,0,0-1.889,1.244H50.787a1.95,1.95,0,0,0-1.815-1.244H45.555a1.95,1.95,0,0,0-1.815,1.244H38.729v-1a2.726,2.726,0,0,0-1.322-2.333V32.158a4.989,4.989,0,0,0-1.436-9.768H32.029V2.338H80.893v9.2A1.169,1.169,0,0,0,82.1,12.7a1.2,1.2,0,0,0,1.133-1.218V1.949A1.949,1.949,0,0,0,81.282,0H31.639A1.949,1.949,0,0,0,29.69,1.949V22.39H26.2a4.989,4.989,0,0,0-1.436,9.768v2.977a2.726,2.726,0,0,0-1.322,2.333v9.676a2.726,2.726,0,0,0,1.322,2.333v2.977A4.989,4.989,0,0,0,26.2,62.223H29.69v4.059H20.552a2.731,2.731,0,0,0-2.728,2.728v1.937h-.018a2.731,2.731,0,0,0-2.728,2.728v4.192a1.951,1.951,0,0,0,1.949,1.949H81.282a1.949,1.949,0,0,0,1.949-1.949V47.385h1.883a5.079,5.079,0,0,0,0-10.157ZM50.921,40.81h7.968V43.8H50.921Zm-4.976-1.244h2.637v5.48H45.945ZM38.729,40.81h4.878V43.8H38.729ZM23.547,27.38A2.654,2.654,0,0,1,26.2,24.728h9.773a2.651,2.651,0,0,1,0,5.3H26.2A2.654,2.654,0,0,1,23.547,27.38Zm2.622,20.155a.39.39,0,0,1-.39-.39V37.468a.39.39,0,0,1,.39-.39H36a.39.39,0,0,1,.39.39v9.676a.39.39,0,0,1-.39.39Zm8.9,2.338v2.371H27.1V49.873ZM27.1,34.74V32.369h7.968V34.74Zm-.9,25.144a2.651,2.651,0,1,1,0-5.3h9.773a2.651,2.651,0,0,1,0,5.3ZM44.754,77.477H17.416v-3.8a.39.39,0,0,1,.39-.39h7.237a1.169,1.169,0,1,0,0-2.338h-4.88V69.01a.39.39,0,0,1,.39-.39H41.618a.39.39,0,0,1,.39.39v1.937H30.5a1.169,1.169,0,1,0,0,2.338H44.364a.39.39,0,0,1,.39.39Zm36.139,0h-33.8v-3.8a2.731,2.731,0,0,0-2.728-2.728h-.018V69.01a2.731,2.731,0,0,0-2.728-2.728H32.029V62.223h3.943a4.989,4.989,0,0,0,1.436-9.768V49.478a2.726,2.726,0,0,0,1.322-2.333v-1h5.012a1.95,1.95,0,0,0,1.815,1.244h3.417a1.95,1.95,0,0,0,1.815-1.244h8.271a2.06,2.06,0,0,0,1.889,1.244H80.893V77.477Z" transform="translate(-15.078 0)"/>
        <path id="Path_1242665" data-name="Path 1242665" d="M202.872,58.715A12.108,12.108,0,1,0,214.98,46.607,12.121,12.121,0,0,0,202.872,58.715Zm21.877,0a9.769,9.769,0,1,1-9.769-9.769A9.78,9.78,0,0,1,224.749,58.715Z" transform="translate(-173.597 -39.342)"/>
        <path id="Path_1242666" data-name="Path 1242666" d="M248.339,103.48a1.169,1.169,0,0,0-1.654,1.653l3.6,3.6a1.169,1.169,0,0,0,1.654,0l5.574-5.574a1.169,1.169,0,1,0-1.654-1.653l-4.747,4.748Z" transform="translate(-210.292 -85.39)"/>
        <path id="Path_1242667" data-name="Path 1242667" d="M243.681,328.238a1.169,1.169,0,0,0,1.169,1.169h21.5a1.169,1.169,0,0,0,0-2.338h-21.5A1.169,1.169,0,0,0,243.681,328.238Z" transform="translate(-208.044 -276.083)"/>
        <path id="Path_1242668" data-name="Path 1242668" d="M322.754,363.546H311.669a1.169,1.169,0,1,0,0,2.338h11.085a1.169,1.169,0,1,0,0-2.338Z" transform="translate(-264.447 -306.873)"/>
        <path id="Path_1242669" data-name="Path 1242669" d="M244.85,365.884h6.363a1.169,1.169,0,1,0,0-2.338H244.85a1.169,1.169,0,1,0,0,2.338Z" transform="translate(-208.044 -306.873)"/>
        <path id="Path_1242670" data-name="Path 1242670" d="M266.351,400.023h-21.5a1.169,1.169,0,0,0,0,2.338h21.5a1.169,1.169,0,0,0,0-2.338Z" transform="translate(-208.044 -337.664)"/>
        <path id="Path_1242671" data-name="Path 1242671" d="M352.3,436.5h-5.629a1.169,1.169,0,1,0,0,2.338H352.3a1.169,1.169,0,1,0,0-2.338Z" transform="translate(-293.991 -368.455)"/>
        <path id="Path_1242672" data-name="Path 1242672" d="M257.137,436.5H244.85a1.169,1.169,0,1,0,0,2.338h12.287a1.169,1.169,0,1,0,0-2.338Z" transform="translate(-208.044 -368.455)"/>
      </g>
    </g>
  </g>
</svg>
