<svg xmlns="http://www.w3.org/2000/svg" xmlns:xlink="http://www.w3.org/1999/xlink" width="145.631" height="68.03" viewBox="0 0 145.631 68.03">
  <defs>
    <clipPath id="clip-path">
      <path id="path2922" d="M0-682.665H68.03v68.03H0Z" transform="translate(0 682.665)"/>
    </clipPath>
  </defs>
  <g id="Group_1202573" data-name="Group 1202573" transform="translate(-727.051 -3324.936)">
    <g id="Group_1202418" data-name="Group 1202418">
      <g id="Group_1202222" data-name="Group 1202222" transform="translate(414.27 -553.716)">
        <g id="Group_1200263" data-name="Group 1200263" transform="translate(-483 1870.915)">
          <g id="Rectangle_410589" data-name="Rectangle 410589" transform="translate(795.781 2016.085)" fill="#b7a8f1" stroke="#dfab32" stroke-width="1">
            <rect width="145.631" height="48.544" rx="8" stroke="none"/>
            <rect x="0.5" y="0.5" width="144.631" height="47.544" rx="7.5" fill="none"/>
          </g>
        </g>
      </g>
      <g id="g2916" transform="translate(766.051 4007.601)">
        <g id="g2918" transform="translate(0 -682.665)">
          <g id="g2920" clip-path="url(#clip-path)">
            <g id="g2926" transform="translate(1.329 1.329)">
              <path id="path2928" d="M-79.406-448.972h-5.6a3.189,3.189,0,0,1-3.189-3.189v-43.316a3.189,3.189,0,0,1,3.189-3.189h53.68a3.189,3.189,0,0,1,3.189,3.189v42.253a4.252,4.252,0,0,1-4.252,4.252H-79.406Z" transform="translate(88.194 498.665)" fill="#fff"/>
            </g>
            <g id="g2930" transform="translate(1.329 1.329)">
              <path id="path2932" d="M-513.8,0h-53.68a3.189,3.189,0,0,0-3.189,3.189V9.567h60.057V3.189A3.189,3.189,0,0,0-513.8,0" transform="translate(570.665)" fill="#a0e557"/>
            </g>
            <g id="g2934" transform="translate(1.343 9.567)">
              <path id="path2936" d="M46.045-10.676H-12A1.329,1.329,0,0,1-13.333-12,1.329,1.329,0,0,1-12-13.333h58.05A1.329,1.329,0,0,1,47.374-12,1.329,1.329,0,0,1,46.045-10.676Z" transform="translate(13.333 13.333)"/>
            </g>
            <g id="g2938" transform="translate(2.672 10.895)">
              <path id="path2940" d="M0,0H58.05" fill="#231f20"/>
            </g>
            <g id="g2942" transform="translate(25.886 4.783)">
              <path id="path2944" d="M-261.179-10.676h-27.579A1.329,1.329,0,0,1-290.087-12a1.329,1.329,0,0,1,1.329-1.329h27.579A1.329,1.329,0,0,1-259.85-12,1.329,1.329,0,0,1-261.179-10.676Z" transform="translate(290.087 13.333)"/>
            </g>
            <g id="g2946" transform="translate(12.803 6.112)">
              <path id="path2948"/>
            </g>
            <g id="g2950" transform="translate(7.92 6.112)">
              <path id="path2952" transform="translate(0)"/>
            </g>
            <g id="g2954" transform="translate(17.686 6.112)">
              <path id="path2956"/>
            </g>
            <g id="g2958" transform="translate(0 0)">
              <path id="path2960" d="M-178.868-459.648h-15.28a4.523,4.523,0,0,1-4.518-4.518v-43.316A4.523,4.523,0,0,1-194.149-512h53.68a4.523,4.523,0,0,1,4.518,4.518v31.29a1.329,1.329,0,0,1-1.329,1.329,1.329,1.329,0,0,1-1.329-1.329v-31.29a1.862,1.862,0,0,0-1.86-1.86h-53.68a1.862,1.862,0,0,0-1.86,1.86v43.316a1.862,1.862,0,0,0,1.86,1.86h15.28a1.329,1.329,0,0,1,1.329,1.329A1.329,1.329,0,0,1-178.868-459.648Z" transform="translate(198.666 511.999)"/>
            </g>
            <g id="g2962" transform="translate(24.913 51.022)">
              <path id="path2964"/>
            </g>
            <g id="g2966" transform="translate(18.767 25.72)">
              <path id="path2968" d="M-251.8-9.493h0a3.588,3.588,0,0,0,0,5.074l-2.018-2.018a3.588,3.588,0,0,0-5.074,0,3.588,3.588,0,0,0,0,5.074,3.588,3.588,0,0,0-5.074,0,3.588,3.588,0,0,0,0,5.074l-9.581-9.581a3.588,3.588,0,0,0-5.074,0,3.588,3.588,0,0,0,0,5.074l7.943,7.943,12.421,12.421-8.083-1.961a3.766,3.766,0,0,0-4.525,2.685h0a3.766,3.766,0,0,0,2.4,4.53l13.289,4.633A17.635,17.635,0,0,0-236.9,25.271h0a17.635,17.635,0,0,0,0-24.939l-9.825-9.825a3.588,3.588,0,0,0-5.074,0" transform="translate(279.671 10.544)" fill="#feda9b"/>
            </g>
            <g id="g2970" transform="translate(17.441 24.392)">
              <path id="path2972" d="M-261.248-23.877a4.884,4.884,0,0,1,3.476,1.44l9.825,9.825A18.839,18.839,0,0,1-242.393.8a18.839,18.839,0,0,1-5.554,13.409,18.842,18.842,0,0,1-13.412,5.555A18.911,18.911,0,0,1-267.6,18.7l-13.289-4.633a5.115,5.115,0,0,1-3.244-6.129,5.1,5.1,0,0,1,4.918-3.777,5.112,5.112,0,0,1,1.2.144l3.483.845-17.017-17.017a4.922,4.922,0,0,1,0-6.953,4.885,4.885,0,0,1,3.476-1.44,4.884,4.884,0,0,1,3.476,1.44l6.492,6.492a4.893,4.893,0,0,1,1.21-1.984,4.884,4.884,0,0,1,3.476-1.44l.162,0a4.9,4.9,0,0,1,1.435-3.636,4.884,4.884,0,0,1,3.476-1.44A4.891,4.891,0,0,1-266-20.23a4.886,4.886,0,0,1,1.272-2.207A4.884,4.884,0,0,1-261.248-23.877Zm-.11,40.981a16.2,16.2,0,0,0,11.533-4.776A16.2,16.2,0,0,0-245.05.8a16.2,16.2,0,0,0-4.776-11.53l-9.825-9.825a2.244,2.244,0,0,0-1.6-.662,2.244,2.244,0,0,0-1.6.662,2.261,2.261,0,0,0,0,3.194h0a1.329,1.329,0,0,1,0,1.879,1.329,1.329,0,0,1-1.879,0l-.006-.006-2.012-2.012a2.244,2.244,0,0,0-1.6-.662,2.244,2.244,0,0,0-1.6.662,2.261,2.261,0,0,0,0,3.194,1.325,1.325,0,0,1,.389.94,1.325,1.325,0,0,1-.389.94,1.329,1.329,0,0,1-1.879,0,2.244,2.244,0,0,0-1.6-.662,2.244,2.244,0,0,0-1.6.662,2.244,2.244,0,0,0-.662,1.6,2.244,2.244,0,0,0,.662,1.6,1.325,1.325,0,0,1,.389.94,1.325,1.325,0,0,1-.389.94,1.329,1.329,0,0,1-1.879,0l-9.581-9.581a2.244,2.244,0,0,0-1.6-.662,2.244,2.244,0,0,0-1.6.662,2.261,2.261,0,0,0,0,3.194L-269.3,6.622a1.329,1.329,0,0,1,.219,1.59,1.329,1.329,0,0,1-1.472.641l-8.083-1.961a2.452,2.452,0,0,0-.577-.07,2.439,2.439,0,0,0-2.351,1.807,2.447,2.447,0,0,0,1.552,2.932l13.289,4.633A16.26,16.26,0,0,0-261.359,17.1Z" transform="translate(292.982 23.877)"/>
            </g>
            <g id="g2974" transform="translate(33.144 38.645)">
              <path id="path2976" d="M-5.111-3.783a1.325,1.325,0,0,1-.94-.389l-6.893-6.893a1.329,1.329,0,0,1,0-1.879,1.329,1.329,0,0,1,1.879,0l6.893,6.893a1.329,1.329,0,0,1,0,1.879A1.325,1.325,0,0,1-5.111-3.783Z" transform="translate(13.333 13.333)"/>
            </g>
            <g id="g2978" transform="translate(38.218 33.572)">
              <path id="path2980" d="M-4.753-3.424a1.325,1.325,0,0,1-.94-.389l-7.252-7.252a1.329,1.329,0,0,1,0-1.879,1.329,1.329,0,0,1,1.879,0l7.252,7.252a1.329,1.329,0,0,1,0,1.879A1.325,1.325,0,0,1-4.753-3.424Z" transform="translate(13.333 13.333)"/>
            </g>
            <g id="g2982" transform="translate(45.309 30.516)">
              <path id="path2984" d="M-6.7-5.376a1.325,1.325,0,0,1-.94-.389l-5.3-5.3a1.329,1.329,0,0,1,0-1.879,1.329,1.329,0,0,1,1.879,0l5.3,5.3a1.329,1.329,0,0,1,0,1.879A1.325,1.325,0,0,1-6.7-5.376Z" transform="translate(13.333 13.333)"/>
            </g>
            <g id="g2986" transform="translate(20.56 19.987)">
              <path id="path2988" d="M-12-7.815a1.329,1.329,0,0,1-1.329-1.329V-12A1.329,1.329,0,0,1-12-13.333,1.329,1.329,0,0,1-10.676-12v2.861A1.329,1.329,0,0,1-12-7.815Z" transform="translate(13.333 13.333)"/>
            </g>
            <g id="g2990" transform="translate(9.268 31.279)">
              <path id="path2992" d="M-9.144-10.676H-12A1.329,1.329,0,0,1-13.333-12,1.329,1.329,0,0,1-12-13.333h2.861A1.329,1.329,0,0,1-7.815-12,1.329,1.329,0,0,1-9.144-10.676Z" transform="translate(13.333 13.333)"/>
            </g>
            <g id="g2994" transform="translate(9.76 20.479)">
              <path id="path2996" d="M-56.863-55.535a1.325,1.325,0,0,1-.94-.389l-4.965-4.965a1.329,1.329,0,0,1,0-1.879,1.329,1.329,0,0,1,1.879,0l4.965,4.965a1.329,1.329,0,0,1,0,1.879A1.325,1.325,0,0,1-56.863-55.535Z" transform="translate(63.157 63.157)"/>
            </g>
          </g>
        </g>
      </g>
    </g>
  </g>
</svg>
