<svg xmlns="http://www.w3.org/2000/svg" xmlns:xlink="http://www.w3.org/1999/xlink" width="145.631" height="69.636" viewBox="0 0 145.631 69.636">
  <defs>
    <clipPath id="clip-path">
      <path id="path165" d="M0-682.665H69.636v69.636H0Z" transform="translate(0 682.665)"/>
    </clipPath>
  </defs>
  <g id="Group_1202572" data-name="Group 1202572" transform="translate(-313.051 -3320.297)">
    <g id="Group_1202221" data-name="Group 1202221" transform="translate(0.27 -553.716)">
      <g id="Group_1200263" data-name="Group 1200263" transform="translate(-483 1870.915)">
        <g id="Rectangle_410589" data-name="Rectangle 410589" transform="translate(795.781 2016.085)" fill="#b7a8f1" stroke="#dfab32" stroke-width="1">
          <rect width="145.631" height="48.544" rx="8" stroke="none"/>
          <rect x="0.5" y="0.5" width="144.631" height="47.544" rx="7.5" fill="none"/>
        </g>
      </g>
    </g>
    <g id="g159" transform="translate(351.051 4002.962)">
      <g id="g161" transform="translate(0 -682.665)">
        <g id="g163" clip-path="url(#clip-path)">
          <g id="g169" transform="translate(44.778 1.02)">
            <path id="path171" d="M-146.882-139.086a15.8,15.8,0,0,0-15.8-15.8h-.886a6.911,6.911,0,0,1,6.911,6.911v1.037a1.825,1.825,0,0,0,1.825,1.825h1.037a6.911,6.911,0,0,1,6.911,6.911Z" transform="translate(163.566 154.885)" fill="#e2dfe2"/>
          </g>
          <g id="g173" transform="translate(8.173 8.5)">
            <path id="path175" d="M-164.706,0h-15.95a2.759,2.759,0,0,0-2.759,2.759V12.978a2.759,2.759,0,0,1,2.759-2.759h15.951a2.759,2.759,0,0,0,2.759-2.759v-4.7A2.759,2.759,0,0,0-164.706,0" transform="translate(183.416)" fill="#a2f4c1"/>
          </g>
          <g id="g177" transform="translate(12.854 1.02)">
            <path id="path179" d="M-367.083-86.042h-1.037a1.825,1.825,0,0,1-1.825-1.825V-88.9a6.911,6.911,0,0,0-6.911-6.911h-30.1a1.825,1.825,0,0,0-1.825,1.825v5.655h14.028a2.759,2.759,0,0,1,2.759,2.759v4.7a2.759,2.759,0,0,1-2.759,2.759h-14.029v48.071a1.825,1.825,0,0,0,1.825,1.825H-362a1.825,1.825,0,0,0,1.825-1.825V-79.131a6.911,6.911,0,0,0-6.911-6.911" transform="translate(408.782 95.816)" fill="#f9f6f9"/>
          </g>
          <g id="g181" transform="translate(12.854 10.794)">
            <path id="path183" d="M-367.574,0a6.881,6.881,0,0,1,1.415,4.191V41.516A13.585,13.585,0,0,1-379.745,55.1h-29.584V56a1.825,1.825,0,0,0,1.825,1.825h44.959A1.825,1.825,0,0,0-360.719,56V6.911A6.911,6.911,0,0,0-367.574,0" transform="translate(409.328)" fill="#efecef"/>
          </g>
          <g id="g185" transform="translate(8.173 18.72)">
            <path id="path187" d="M-41.209-48.574h-1.922a2.759,2.759,0,0,1-2.759-2.759,2.759,2.759,0,0,1,2.759-2.759h1.922Z" transform="translate(45.891 54.092)" fill="#86f1a7"/>
          </g>
          <g id="g189" transform="translate(25.006 25.447)">
            <path id="path191" d="M-273.051-59.088V-64.44a1.36,1.36,0,0,0-1.36-1.36h-29.657v6.712Z" transform="translate(304.067 65.8)" fill="#80e29d"/>
          </g>
          <g id="g193" transform="translate(18.294 25.447)">
            <path id="path195" d="M-59.088,0H-64.44A1.36,1.36,0,0,0-65.8,1.36V6.712h6.712Z" transform="translate(65.8)" fill="#78d090"/>
          </g>
          <g id="g197" transform="translate(18.294 32.159)">
            <path id="path199" d="M0,0V29.657a1.36,1.36,0,0,0,1.36,1.36H6.712V0Z" fill="#80e29d"/>
          </g>
          <g id="g201" transform="translate(25.006 32.159)">
            <path id="path203" d="M0,0V31.017H29.657a1.36,1.36,0,0,0,1.36-1.36V0Z" fill="#a2f4c1"/>
          </g>
          <g id="g205" transform="translate(50.594 52.315)">
            <path id="path207" d="M-35.82-95.606a1.36,1.36,0,0,0,1.36-1.36v-9.5a13.565,13.565,0,0,1-5.429,10.86Z" transform="translate(39.889 106.466)" fill="#86f1a7"/>
          </g>
          <g id="g209" transform="translate(43.758 0)">
            <path id="path211" d="M-155.861-146.16a1.02,1.02,0,0,1-1.02-1.02,5.9,5.9,0,0,0-5.891-5.891h-1.037a2.848,2.848,0,0,1-2.845-2.845v-1.037a5.9,5.9,0,0,0-5.891-5.891,1.02,1.02,0,0,1-1.02-1.02,1.02,1.02,0,0,1,1.02-1.02h.886a16.838,16.838,0,0,1,16.819,16.819v.886A1.02,1.02,0,0,1-155.861-146.16ZM-166.3-161.84a7.891,7.891,0,0,1,1.688,4.886v1.037a.806.806,0,0,0,.805.805h1.037a7.892,7.892,0,0,1,4.886,1.688A14.86,14.86,0,0,0-166.3-161.84Z" transform="translate(173.566 164.885)"/>
          </g>
          <g id="g213" transform="translate(7.153 7.48)">
            <path id="path215" d="M-154.87-95.167a1.02,1.02,0,0,1-1.02-1.02v-10.219a3.784,3.784,0,0,1,3.779-3.779h15.95a3.784,3.784,0,0,1,3.779,3.779v4.7a3.784,3.784,0,0,1-3.779,3.779h-3.828a1.02,1.02,0,0,1-1.02-1.02,1.02,1.02,0,0,1,1.02-1.02h3.828a1.741,1.741,0,0,0,1.739-1.739v-4.7a1.741,1.741,0,0,0-1.739-1.739h-15.95a1.741,1.741,0,0,0-1.739,1.739v6.865a3.756,3.756,0,0,1,1.739-.424h7.363a1.02,1.02,0,0,1,1.02,1.02,1.02,1.02,0,0,1-1.02,1.02h-7.363a1.741,1.741,0,0,0-1.739,1.739A1.02,1.02,0,0,1-154.87-95.167Z" transform="translate(155.89 110.185)"/>
          </g>
          <g id="g217" transform="translate(11.834 0)">
            <path id="path219" d="M-321.947-.479a1.02,1.02,0,0,1-1.02-1.02V-7.155A2.849,2.849,0,0,1-320.122-10h30.1A1.02,1.02,0,0,1-289-8.98a1.02,1.02,0,0,1-1.02,1.02h-30.1a.806.806,0,0,0-.805.805V-1.5A1.02,1.02,0,0,1-321.947-.479Z" transform="translate(322.967 10)"/>
          </g>
          <g id="g221" transform="translate(60.443 16.685)">
            <path id="path223" d="M-8.98-294.96A1.02,1.02,0,0,1-10-295.98v-32.6a1.02,1.02,0,0,1,1.02-1.02,1.02,1.02,0,0,1,1.02,1.02v32.6A1.02,1.02,0,0,1-8.98-294.96Z" transform="translate(10 329.602)"/>
          </g>
          <g id="g225" transform="translate(11.834 17.7)">
            <path id="path227" d="M37.8,41.936H-7.155A2.848,2.848,0,0,1-10,39.091V-8.98A1.02,1.02,0,0,1-8.98-10,1.02,1.02,0,0,1-7.96-8.98V39.091a.806.806,0,0,0,.805.805H37.8a.806.806,0,0,0,.805-.805V27.367a1.02,1.02,0,0,1,2.04,0V39.091A2.848,2.848,0,0,1,37.8,41.936Z" transform="translate(10 10)"/>
          </g>
          <g id="g229" transform="translate(7.153 20.459)">
            <path id="path231" d="M-50.189-32.248h-1.922a3.783,3.783,0,0,1-3.779-3.779,1.02,1.02,0,0,1,1.02-1.02,1.02,1.02,0,0,1,1.02,1.02,1.741,1.741,0,0,0,1.739,1.739h1.922a1.02,1.02,0,0,1,1.02,1.02A1.02,1.02,0,0,1-50.189-32.248Z" transform="translate(55.891 37.047)"/>
          </g>
          <g id="g233" transform="translate(23.986 24.427)">
            <path id="path235" d="M-282.03-67.048a1.02,1.02,0,0,1-1.02-1.02V-73.42a.34.34,0,0,0-.34-.34h-28.637v5.692a1.02,1.02,0,0,1-1.02,1.02,1.02,1.02,0,0,1-1.02-1.02V-74.78a1.02,1.02,0,0,1,1.02-1.02h29.657a2.383,2.383,0,0,1,2.38,2.38v5.352A1.02,1.02,0,0,1-282.03-67.048Z" transform="translate(314.067 75.8)"/>
          </g>
          <g id="g237" transform="translate(17.274 24.427)">
            <path id="path239" d="M-73.42-10h5.352a1.02,1.02,0,0,1,1.02,1.02v6.712a1.02,1.02,0,0,1-1.02,1.02H-74.78a1.02,1.02,0,0,1-1.02-1.02V-7.62A2.383,2.383,0,0,1-73.42-10Zm4.332,2.04H-73.42a.34.34,0,0,0-.34.34v4.332h4.672Z" transform="translate(75.8 10)"/>
          </g>
          <g id="g241" transform="translate(17.274 31.139)">
            <path id="path243" d="M-2.268,23.057H-7.62A2.383,2.383,0,0,1-10,20.677V-8.98A1.02,1.02,0,0,1-8.98-10,1.02,1.02,0,0,1-7.96-8.98V20.677a.34.34,0,0,0,.34.34h5.352a1.02,1.02,0,0,1,1.02,1.02A1.02,1.02,0,0,1-2.268,23.057Z" transform="translate(10 10)"/>
          </g>
          <g id="g245" transform="translate(23.986 31.139)">
            <path id="path247" d="M-97.412,23.057h-29.657a1.02,1.02,0,0,1-1.02-1.02V-8.98a1.02,1.02,0,0,1,1.02-1.02h12.046A1.02,1.02,0,0,1-114-8.98a1.02,1.02,0,0,1-1.02,1.02h-11.026V21.017h28.637a.34.34,0,0,0,.34-.34V-7.96h-13.191a1.02,1.02,0,0,1-1.02-1.02,1.02,1.02,0,0,1,1.02-1.02h14.211a1.02,1.02,0,0,1,1.02,1.02V20.677A2.383,2.383,0,0,1-97.412,23.057Z" transform="translate(128.089 10)"/>
          </g>
          <g id="g249" transform="translate(34.325 24.427)">
            <path id="path251" d="M-8.98,29.769A1.02,1.02,0,0,1-10,28.749V-8.98A1.02,1.02,0,0,1-8.98-10,1.02,1.02,0,0,1-7.96-8.98V28.749A1.02,1.02,0,0,1-8.98,29.769Z" transform="translate(10 10)"/>
          </g>
          <g id="g253" transform="translate(44.664 24.427)">
            <path id="path255" d="M-8.98,29.769A1.02,1.02,0,0,1-10,28.749V-8.98A1.02,1.02,0,0,1-8.98-10,1.02,1.02,0,0,1-7.96-8.98V28.749A1.02,1.02,0,0,1-8.98,29.769Z" transform="translate(10 10)"/>
          </g>
          <g id="g257" transform="translate(17.274 37.342)">
            <path id="path259" d="M28.749-7.96H-8.98A1.02,1.02,0,0,1-10-8.98,1.02,1.02,0,0,1-8.98-10H28.749a1.02,1.02,0,0,1,1.02,1.02A1.02,1.02,0,0,1,28.749-7.96Z" transform="translate(10 10)"/>
          </g>
          <g id="g261" transform="translate(17.274 43.546)">
            <path id="path263" d="M28.749-7.96H-8.98A1.02,1.02,0,0,1-10-8.98,1.02,1.02,0,0,1-8.98-10H28.749a1.02,1.02,0,0,1,1.02,1.02A1.02,1.02,0,0,1,28.749-7.96Z" transform="translate(10 10)"/>
          </g>
          <g id="g265" transform="translate(17.274 49.749)">
            <path id="path267" d="M28.749-7.96H-8.98A1.02,1.02,0,0,1-10-8.98,1.02,1.02,0,0,1-8.98-10H28.749a1.02,1.02,0,0,1,1.02,1.02A1.02,1.02,0,0,1,28.749-7.96Z" transform="translate(10 10)"/>
          </g>
          <g id="g269" transform="translate(17.274 55.952)">
            <path id="path271" d="M28.749-7.96H-8.98A1.02,1.02,0,0,1-10-8.98,1.02,1.02,0,0,1-8.98-10H28.749a1.02,1.02,0,0,1,1.02,1.02A1.02,1.02,0,0,1,28.749-7.96Z" transform="translate(10 10)"/>
          </g>
        </g>
      </g>
    </g>
  </g>
</svg>
