<svg xmlns="http://www.w3.org/2000/svg" xmlns:xlink="http://www.w3.org/1999/xlink" width="92" height="124.79" viewBox="0 0 92 124.79">
  <defs>
    <filter id="Rectangle_410591" x="0" y="0" width="73" height="124.79" filterUnits="userSpaceOnUse">
      <feOffset dy="3" input="SourceAlpha"/>
      <feGaussianBlur stdDeviation="3" result="blur"/>
      <feFlood flood-opacity="0.161"/>
      <feComposite operator="in" in2="blur"/>
      <feComposite in="SourceGraphic"/>
    </filter>
  </defs>
  <g id="Group_1202400" data-name="Group 1202400" transform="translate(-906 -3807.88)">
    <g id="Group_1201420" data-name="Group 1201420" transform="translate(663.15 -1957.444)">
      <g id="Group_1200292" data-name="Group 1200292" transform="translate(0 4.873)">
        <g transform="matrix(1, 0, 0, 1, 242.85, 5760.45)" filter="url(#Rectangle_410591)">
          <rect id="Rectangle_410591-2" data-name="Rectangle 410591" width="55" height="106.79" rx="10" transform="translate(9 6)" fill="#ffeb00"/>
        </g>
      </g>
    </g>
    <g id="decision" transform="translate(900.29 3828.024)">
      <g id="Group_1202398" data-name="Group 1202398" transform="translate(23.649 1.209)">
        <path id="Path_1242673" data-name="Path 1242673" d="M226.306,7.5H182.477a2.424,2.424,0,0,0-2.417,2.417V68.248l47.052,1.611,1.611-59.943A2.424,2.424,0,0,0,226.306,7.5Z" transform="translate(-155.87 -7.5)" fill="#e1dee2"/>
        <path id="Path_1242674" data-name="Path 1242674" d="M225.5,24.917v2.417H180.06v56.72h46.246a2.424,2.424,0,0,0,2.417-2.417V22.5h-.806A2.424,2.424,0,0,0,225.5,24.917Z" transform="translate(-155.87 -20.083)" fill="#c5bec6"/>
        <path id="Path_1242675" data-name="Path 1242675" d="M196.306,37.5H152.477a2.424,2.424,0,0,0-2.417,2.417V98.248l47.052,1.611,1.611-59.943A2.424,2.424,0,0,0,196.306,37.5Z" transform="translate(-130.704 -32.666)" fill="#faf8f8"/>
        <path id="Path_1242676" data-name="Path 1242676" d="M195.5,54.917v54.706a1.209,1.209,0,0,1-1.209,1.209H150.06v.806a2.424,2.424,0,0,0,2.417,2.417h43.829a2.424,2.424,0,0,0,2.417-2.417V52.5h-.806A2.424,2.424,0,0,0,195.5,54.917Z" transform="translate(-130.704 -45.249)" fill="#e1dee2"/>
        <path id="Path_1242677" data-name="Path 1242677" d="M71.725,462.318a7.737,7.737,0,0,0-1.055-.071H43.564a6.757,6.757,0,0,0-6.068,3.586l37.237,1.611A7.982,7.982,0,0,0,71.725,462.318Z" transform="translate(-36.278 -388.971)" fill="#d09180"/>
        <path id="Path_1242678" data-name="Path 1242678" d="M71.617,469.425s-.98-6.017-6.23-6.738a10.188,10.188,0,0,1,.934,1.892,1.207,1.207,0,0,1-1.135,1.623H31.157a10.452,10.452,0,0,0-1.217,3.223Z" transform="translate(-29.94 -389.34)" fill="#b46e5a"/>
        <path id="Path_1242679" data-name="Path 1242679" d="M301.364,424.61c.406-.7,1-3.355-.379-4.082-3.737-1.913-12.949-6.4-12.949-6.4l-2.417,1.141v3.045s8.5,5.732,12.021,8.012C298.958,427.152,300.958,425.313,301.364,424.61Z" transform="translate(-244.419 -348.602)" fill="#d09180"/>
        <path id="Path_1242680" data-name="Path 1242680" d="M364.942,454.6c-.241-.139-.727-.395-1.378-.728a6.052,6.052,0,0,1-3.346,5.795c.613.4,1.078.69,1.319.829a3.4,3.4,0,1,0,3.4-5.9Z" transform="translate(-306.999 -381.942)" fill="#b46e5a"/>
        <path id="Path_1242681" data-name="Path 1242681" d="M238.595,385.58l-9.5-5.483-2.417,1.22v2.966l9.5,5.483Z" transform="translate(-194.979 -320.058)" fill="#b46e5a"/>
        <path id="Path_1242682" data-name="Path 1242682" d="M0,0H4.834V5.345H0Z" transform="matrix(0.5, -0.866, 0.866, 0.5, 27.071, 61.553)" fill="#a65d4e"/>
        <path id="Path_1242683" data-name="Path 1242683" d="M170.288,345.6s3.4,1.881,2.284,3.821l-2.417,4.186c-1.12,1.939-4.451-.068-4.451-.068l-2.817-6.92Z" transform="translate(-141.464 -291.117)" fill="#d09180"/>
        <path id="Path_1242684" data-name="Path 1242684" d="M107.06,279.212,105.07,274.9l-9.793.9c-1.212,2.1-1.212,5.5-2.424,7.6s-4.157,3.8-5.369,5.9l4.119,8.93,4.732-.434Z" transform="translate(-78.211 -231.81)" fill="#d09180"/>
        <path id="Path_1242685" data-name="Path 1242685" d="M153.142,301.676c-1.765,2.862-5.761,5.212-7.427,8.1s-1.7,7.52-3.3,10.48l5.061-.464c1.212-2.1,1.212-5.5,2.424-7.6s4.157-3.8,5.369-5.9Z" transform="translate(-124.292 -254.274)" fill="#b46e5a"/>
        <path id="Path_1242686" data-name="Path 1242686" d="M69.805,400.138c2.2,0,6.521-2.867,6.521-2.867L59.7,390.12a6.832,6.832,0,0,0-.293,3.534c.324,1.209,1.95,2.781,4.015,4.216a14.682,14.682,0,0,0,6.382,2.268Z" transform="translate(-54.554 -328.466)" fill="#d09180"/>
        <path id="Path_1242687" data-name="Path 1242687" d="M90.644,436.207c-1.209.324-3.383-.3-5.659-1.369,3.359,2.336,7.878,4.313,9.845,3.786a6.858,6.858,0,0,0,2.918-2.018v-2.417H93.562A6.856,6.856,0,0,1,90.644,436.207Z" transform="translate(-76.115 -365.434)" fill="#b46e5a"/>
        <path id="Path_1242688" data-name="Path 1242688" d="M66.01,363.012a1.672,1.672,0,0,0-2.325.623L62.551,365.6a8.239,8.239,0,0,0-.665,1.582l12.3,7.1,4.965-1.719c.47-.814-1.009-2.548-3.25-3.842Z" transform="translate(-56.738 -305.528)" fill="#ebae9d"/>
        <path id="Path_1242689" data-name="Path 1242689" d="M139.932,399.676a1.551,1.551,0,0,1,.459,2.23l-1.135,1.966a8.194,8.194,0,0,1-1.039,1.365l4.186,2.417a8.187,8.187,0,0,0,1.039-1.365l1.135-1.966a1.7,1.7,0,0,0-.623-2.325Z" transform="translate(-120.77 -336.482)" fill="#d09180"/>
        <path id="Path_1242690" data-name="Path 1242690" d="M159.192,238.135c1.1,1.9.778,7.081.778,7.081l-14.506-10.822a6.833,6.833,0,0,1,2.914-2.02c1.209-.324,3.383.3,5.659,1.369a14.68,14.68,0,0,1,5.155,4.393Z" transform="translate(-126.849 -196.066)" fill="#d09180"/>
        <path id="Path_1242691" data-name="Path 1242691" d="M202.683,245.53c-.324-1.209-1.95-2.781-4.015-4.216,3.7,1.741,7.674,4.667,8.2,6.633a6.855,6.855,0,0,1-.289,3.536l-2.093,1.209-2.093-3.626A6.857,6.857,0,0,0,202.683,245.53Z" transform="translate(-171.48 -203.638)" fill="#b46e5a"/>
        <path id="Path_1242692" data-name="Path 1242692" d="M131.338,251.015a1.672,1.672,0,0,1-.623-2.325l1.135-1.966a8.254,8.254,0,0,1,1.038-1.366l12.3,7.1.993,5.16c-.47.814-2.711.4-4.952-.893Z" transform="translate(-114.273 -207.031)" fill="#ebae9d"/>
        <path id="Path_1242693" data-name="Path 1242693" d="M197.227,293.693a1.551,1.551,0,0,0,2.161-.718l1.135-1.966a8.185,8.185,0,0,0,.663-1.583l4.186,2.417a8.2,8.2,0,0,1-.663,1.583l-1.135,1.966a1.7,1.7,0,0,1-2.325.623Z" transform="translate(-170.271 -243.998)" fill="#d09180"/>
      </g>
      <g id="Group_1202399" data-name="Group 1202399" transform="translate(22.441)">
        <path id="Path_1242694" data-name="Path 1242694" d="M407.014,85.5a1.208,1.208,0,0,0-1.209,1.209v46.971a1.21,1.21,0,0,1-1.208,1.209h-1.209v-6.639a1.209,1.209,0,1,0-2.417,0v11.07a1.21,1.21,0,0,1-1.209,1.209h-5.956a1.209,1.209,0,1,0,0,2.417h5.956a3.63,3.63,0,0,0,3.626-3.626V137.3H404.6a3.63,3.63,0,0,0,3.626-3.626V86.707a1.208,1.208,0,0,0-1.208-1.209Z" transform="translate(-332.952 -71.721)"/>
        <path id="Path_1242695" data-name="Path 1242695" d="M194.849,0H151.02a3.63,3.63,0,0,0-3.626,3.626V4.834h-1.209A3.63,3.63,0,0,0,142.56,8.46V20.824a1.209,1.209,0,1,0,2.417,0V8.46a1.21,1.21,0,0,1,1.209-1.209h43.829a1.21,1.21,0,0,1,1.209,1.209V51.692a1.209,1.209,0,1,0,2.417,0V8.46a3.63,3.63,0,0,0-3.626-3.626h-40.2V3.626a1.21,1.21,0,0,1,1.209-1.209h43.829a1.21,1.21,0,0,1,1.209,1.209v6.526a1.209,1.209,0,1,0,2.417,0V3.626A3.63,3.63,0,0,0,194.849,0Z" transform="translate(-123.204)"/>
        <path id="Path_1242696" data-name="Path 1242696" d="M193.449,172.717h28.128a1.209,1.209,0,0,0,0-2.417H193.449a1.209,1.209,0,0,0,0,2.417Z" transform="translate(-164.879 -142.859)"/>
        <path id="Path_1242697" data-name="Path 1242697" d="M193.449,132.717h23.294a1.209,1.209,0,1,0,0-2.417H193.449a1.209,1.209,0,0,0,0,2.417Z" transform="translate(-164.879 -109.304)"/>
        <path id="Path_1242698" data-name="Path 1242698" d="M193.449,92.717h32.6a1.209,1.209,0,0,0,0-2.417h-32.6a1.209,1.209,0,0,0,0,2.417Z" transform="translate(-164.879 -75.749)"/>
        <path id="Path_1242699" data-name="Path 1242699" d="M82.2,200.1c-1.524-.879-12.118-6.057-14.1-7.024h5.148a1.209,1.209,0,1,0,0-2.417H63.87l-6.977-4.028H83.611a1.209,1.209,0,0,0,0-2.417H55.63a6.337,6.337,0,0,0-1.272-1.4,11.362,11.362,0,0,0,.769-.893A2.909,2.909,0,0,0,58,180.492l.177-.306H83.611a1.209,1.209,0,1,0,0-2.417h-24.1a10.3,10.3,0,0,0,.86-4.028H83.611a1.209,1.209,0,0,0,0-2.417H59.669a15.938,15.938,0,0,0-4.4-4.028H83.611a1.209,1.209,0,1,0,0-2.417h-32.7c-1.94-.871-4.388-1.689-6.047-1.245a4.841,4.841,0,0,0-.653.229V152.943a1.209,1.209,0,0,0-2.417,0v12.618a10.13,10.13,0,0,0-1.616,2.022l-1.128,1.954a2.824,2.824,0,0,0-.324,2.172,2.911,2.911,0,0,0,.511,1.049,19.722,19.722,0,0,0-.917,3.26,12.832,12.832,0,0,1-1.078,3.456,1.208,1.208,0,1,0,2.093,1.209,14.653,14.653,0,0,0,1.346-4.144,23.834,23.834,0,0,1,.6-2.339l11.577,6.684a23.842,23.842,0,0,1-1.728,1.685,14.647,14.647,0,0,0-2.916,3.237,14.654,14.654,0,0,0-1.346,4.144,23.835,23.835,0,0,1-.6,2.339l-11.576-6.683c.341-.385.728-.762,1.116-1.124a1.209,1.209,0,0,0-1.649-1.767,15.517,15.517,0,0,0-1.736,1.845,2.906,2.906,0,0,0-1.164.082,2.824,2.824,0,0,0-1.719,1.366l-1.128,1.954a9.19,9.19,0,0,0-1.078,6.033c.712,2.659,5.248,5.452,6.621,6.245.152.088.346.2.573.321h-3.6c-5.7,0-8.038,5.117-8.478,7.823a1.209,1.209,0,0,0,1.193,1.4H65.326a1.209,1.209,0,0,0,1.193-1.4c-.44-2.706-2.779-7.823-8.478-7.823H46.1a9.421,9.421,0,0,0,1.269-1.656l1.135-1.966a2.912,2.912,0,0,0-.2-3.206,11.393,11.393,0,0,0,.39-1.11,6.1,6.1,0,0,0,2.047.409,3.5,3.5,0,0,0,.876-.105,2.863,2.863,0,0,0,.931-.428l6.221,3.592H52.34a1.209,1.209,0,1,0,0,2.417H62.96l1.248.72c.837.565,11.759,7.929,13.376,8.863A4.613,4.613,0,0,0,82.2,200.1Zm-17.791-3.549-10.415-6.013,1.209-2.093,10.415,6.013ZM45.491,165.968a1.728,1.728,0,0,1,.44-.048c1.19,0,3.587.768,6.445,2.419,3.273,1.89,5.242,3.834,5.5,4.778a3.784,3.784,0,0,1,.052,1.351L44.3,166.6a3.764,3.764,0,0,1,1.194-.632Zm-4.369,4.816.016-.026,1.135-1.966c.074-.129.166-.268.271-.413l14.719,8.5a4.879,4.879,0,0,1-.222.442l-1.135,1.966a.494.494,0,0,1-.674.181l-13.913-8.032a.524.524,0,0,1-.248-.318.416.416,0,0,1,.052-.33Zm-5.956,27.362c-3.274-1.89-5.242-3.834-5.5-4.777a3.762,3.762,0,0,1-.05-1.35l13.626,7.867a3.783,3.783,0,0,1-1.2.631,1.508,1.508,0,0,1-.308.044h-.268A16.477,16.477,0,0,1,35.167,198.146Zm28.571,9.223H25.247A9.032,9.032,0,0,1,26,205.808a5.512,5.512,0,0,1,4.93-2.83H58.041c3.506,0,5.06,2.674,5.7,4.391ZM46.41,195.73,45.276,197.7a4.931,4.931,0,0,1-.271.413l-14.719-8.5c.073-.163.148-.313.223-.442l1.135-1.965.015-.027a.415.415,0,0,1,.259-.21.482.482,0,0,1,.13-.018.542.542,0,0,1,.27.074l13.913,8.032a.494.494,0,0,1,.181.674Zm2.864-5.478a11.971,11.971,0,0,1,1.03-3.239,11.962,11.962,0,0,1,2.289-2.511,3.287,3.287,0,0,1,1.161,1.345.392.392,0,0,1-.044.342l-2.417,4.186a.392.392,0,0,1-.274.209,3.285,3.285,0,0,1-1.745-.332Zm32.517,14.941a2.2,2.2,0,0,1-3,.8c-1.168-.674-8.111-5.323-12.334-8.167l1.29-2.234c4.574,2.235,12.072,5.924,13.24,6.6A2.2,2.2,0,0,1,81.792,205.193Z" transform="translate(-22.441 -127.285)"/>
      </g>
    </g>
  </g>
</svg>
