<svg xmlns="http://www.w3.org/2000/svg" width="126.61" height="65" viewBox="0 0 126.61 65">
  <g id="Group_1202569" data-name="Group 1202569" transform="translate(843.801 9866.299)">
    <g id="Group_1202512" data-name="Group 1202512" transform="translate(-1633.583 -12425.299)">
      <g id="Group_1200259" data-name="Group 1200259" transform="translate(-6 557.578)">
        <g id="Rectangle_410589" data-name="Rectangle 410589" transform="translate(795.781 2013.422)" fill="#ffeb00" stroke="#ffeb00" stroke-width="1">
          <rect width="126.61" height="43.021" rx="8" stroke="none"/>
          <rect x="0.5" y="0.5" width="125.61" height="42.021" rx="7.5" fill="none"/>
        </g>
      </g>
    </g>
    <circle id="Ellipse_13362" data-name="Ellipse 13362" cx="32.5" cy="32.5" r="32.5" transform="translate(-812.801 -9866.299)" fill="#7f74a8"/>
    <path id="Path_1243561" data-name="Path 1243561" d="M4.947-11.483a3.638,3.638,0,0,1-.569,2.02A4.1,4.1,0,0,1,2.809-8.057a4.536,4.536,0,0,1,1.8,1.509A3.872,3.872,0,0,1,5.28-4.286,4.1,4.1,0,0,1,3.862-.994,5.752,5.752,0,0,1,.005.215,5.778,5.778,0,0,1-3.862-1,4.089,4.089,0,0,1-5.291-4.286a3.9,3.9,0,0,1,.666-2.267,4.454,4.454,0,0,1,1.794-1.5A4.056,4.056,0,0,1-4.394-9.464a3.664,3.664,0,0,1-.564-2.02,4.054,4.054,0,0,1,1.332-3.185,5.244,5.244,0,0,1,3.62-1.187,5.279,5.279,0,0,1,3.615,1.176A4.038,4.038,0,0,1,4.947-11.483ZM2.165-4.512a2.252,2.252,0,0,0-.591-1.633,2.107,2.107,0,0,0-1.59-.612A2.1,2.1,0,0,0-1.6-6.15a2.248,2.248,0,0,0-.591,1.638A2.247,2.247,0,0,0-1.606-2.9a2.113,2.113,0,0,0,1.611.612A2.108,2.108,0,0,0,1.59-2.879,2.243,2.243,0,0,0,2.165-4.512Zm-.322-6.821A2.149,2.149,0,0,0,1.359-12.8a1.715,1.715,0,0,0-1.364-.553,1.727,1.727,0,0,0-1.354.537,2.136,2.136,0,0,0-.483,1.482,2.245,2.245,0,0,0,.483,1.5A1.692,1.692,0,0,0,.005-9.26a1.676,1.676,0,0,0,1.359-.569A2.261,2.261,0,0,0,1.842-11.333Z" transform="translate(-779.468 -9827.799)" fill="#fff"/>
  </g>
</svg>
