<svg xmlns="http://www.w3.org/2000/svg" width="145.631" height="68.03" viewBox="0 0 145.631 68.03">
  <g id="Group_1202574" data-name="Group 1202574" transform="translate(-1147.184 -3320.935)">
    <g id="Group_1202420" data-name="Group 1202420">
      <g id="Group_1202223" data-name="Group 1202223" transform="translate(834.402 -553.716)">
        <g id="Group_1200263" data-name="Group 1200263" transform="translate(-483 1870.915)">
          <g id="Rectangle_410589" data-name="Rectangle 410589" transform="translate(795.781 2016.085)" fill="#b7a8f1" stroke="#dfab32" stroke-width="1">
            <rect width="145.631" height="48.544" rx="8" stroke="none"/>
            <rect x="0.5" y="0.5" width="144.631" height="47.544" rx="7.5" fill="none"/>
          </g>
        </g>
      </g>
      <g id="archivo" transform="translate(1185.92 3320.937)">
        <path id="Path_1242756" data-name="Path 1242756" d="M57.888,43.134V59.007a2.274,2.274,0,0,1-2.268,2.268H10.268A2.274,2.274,0,0,1,8,59.007V43.134L9.134,42h47.62Z" transform="translate(0.134 5.62)" fill="#4fba63"/>
        <path id="Path_1242757" data-name="Path 1242757" d="M57.888,15.74V48.62H8V3.268A2.274,2.274,0,0,1,10.268,1H43.148a1.446,1.446,0,0,1,.227.011A5.115,5.115,0,0,1,47,2.587l9.3,9.3a5.115,5.115,0,0,1,1.576,3.628A1.445,1.445,0,0,1,57.888,15.74Z" transform="translate(0.134 0.134)" fill="#e9edf3"/>
        <path id="Path_1242758" data-name="Path 1242758" d="M53.7,15.511a2.274,2.274,0,0,0-2.256-2.041h-6.8a3.4,3.4,0,0,1-3.4-3.4v-6.8A2.274,2.274,0,0,0,39.2,1.01a5.115,5.115,0,0,1,3.628,1.576l9.3,9.3A5.115,5.115,0,0,1,53.7,15.511Z" transform="translate(4.309 0.135)" fill="#c1cfdd"/>
        <g id="Group_1202419" data-name="Group 1202419" transform="translate(7 -0.001)">
          <path id="Path_1242759" data-name="Path 1242759" d="M10.4,68.029H55.754a3.4,3.4,0,0,0,3.4-3.4V15.874a6.289,6.289,0,0,0-1.921-4.658l-9.3-9.3A6.289,6.289,0,0,0,43.282,0H10.4A3.4,3.4,0,0,0,7,3.4V9.071a1.134,1.134,0,1,0,2.268,0V3.4A1.134,1.134,0,0,1,10.4,2.268H43.282A1.134,1.134,0,0,1,44.416,3.4v6.8a4.535,4.535,0,0,0,4.535,4.535h6.8a1.134,1.134,0,0,1,1.134,1.134V47.62H9.268V13.606a1.134,1.134,0,0,0-2.268,0V64.628a3.4,3.4,0,0,0,3.4,3.4ZM46.684,10.2V3.871l8.6,8.6H48.951A2.268,2.268,0,0,1,46.684,10.2Zm10.2,39.684v14.74a1.134,1.134,0,0,1-1.134,1.134H10.4a1.134,1.134,0,0,1-1.134-1.134V49.888Z" transform="translate(-7 0.001)" fill="#262626"/>
          <path id="Path_1242760" data-name="Path 1242760" d="M40.535,17h-3.4a1.134,1.134,0,1,0,0,2.268h3.4a1.134,1.134,0,1,0,0-2.268Z" transform="translate(-3.119 2.276)" fill="#262626"/>
          <path id="Path_1242761" data-name="Path 1242761" d="M35.007,17H19.134a1.134,1.134,0,0,0,0,2.268H35.007a1.134,1.134,0,1,0,0-2.268Z" transform="translate(-5.528 2.276)" fill="#262626"/>
          <path id="Path_1242762" data-name="Path 1242762" d="M15.268,17H14.134a1.134,1.134,0,1,0,0,2.268h1.134a1.134,1.134,0,1,0,0-2.268Z" transform="translate(-6.197 2.276)" fill="#262626"/>
          <path id="Path_1242763" data-name="Path 1242763" d="M42.535,23h-3.4a1.134,1.134,0,0,0,0,2.268h3.4a1.134,1.134,0,0,0,0-2.268Z" transform="translate(-2.852 3.079)" fill="#262626"/>
          <path id="Path_1242764" data-name="Path 1242764" d="M37.007,23H21.134a1.134,1.134,0,0,0,0,2.268H37.007a1.134,1.134,0,0,0,0-2.268Z" transform="translate(-5.26 3.079)" fill="#262626"/>
          <path id="Path_1242765" data-name="Path 1242765" d="M17.268,23H16.134a1.134,1.134,0,0,0,0,2.268h1.134a1.134,1.134,0,0,0,0-2.268Z" transform="translate(-5.929 3.079)" fill="#262626"/>
          <path id="Path_1242766" data-name="Path 1242766" d="M44.535,29h-3.4a1.134,1.134,0,1,0,0,2.268h3.4a1.134,1.134,0,1,0,0-2.268Z" transform="translate(-2.584 3.882)" fill="#262626"/>
          <path id="Path_1242767" data-name="Path 1242767" d="M22,30.134a1.134,1.134,0,0,0,1.134,1.134H39.007a1.134,1.134,0,0,0,0-2.268H23.134A1.134,1.134,0,0,0,22,30.134Z" transform="translate(-4.993 3.882)" fill="#262626"/>
          <path id="Path_1242768" data-name="Path 1242768" d="M17,30.134a1.134,1.134,0,0,0,1.134,1.134h1.134a1.134,1.134,0,1,0,0-2.268H18.134A1.134,1.134,0,0,0,17,30.134Z" transform="translate(-5.662 3.882)" fill="#262626"/>
          <path id="Path_1242769" data-name="Path 1242769" d="M42,36.134a1.134,1.134,0,0,0,1.134,1.134h3.4a1.134,1.134,0,0,0,0-2.268h-3.4A1.134,1.134,0,0,0,42,36.134Z" transform="translate(-2.316 4.685)" fill="#262626"/>
          <path id="Path_1242770" data-name="Path 1242770" d="M25.134,35a1.134,1.134,0,0,0,0,2.268H41.007a1.134,1.134,0,0,0,0-2.268Z" transform="translate(-4.725 4.685)" fill="#262626"/>
          <path id="Path_1242771" data-name="Path 1242771" d="M20.134,35a1.134,1.134,0,1,0,0,2.268h1.134a1.134,1.134,0,0,0,0-2.268Z" transform="translate(-5.394 4.685)" fill="#262626"/>
          <path id="Path_1242772" data-name="Path 1242772" d="M38.134,57.338H43.8a1.134,1.134,0,1,0,0-2.268H39.268V47.134a1.134,1.134,0,1,0-2.268,0V56.2A1.134,1.134,0,0,0,38.134,57.338Z" transform="translate(-2.986 6.157)" fill="#262626"/>
          <path id="Path_1242773" data-name="Path 1242773" d="M17.454,57.111a1.134,1.134,0,0,0,1.587-.227l2.494-3.327,2.494,3.327a1.134,1.134,0,0,0,1.814-1.361l-2.891-3.855,2.891-3.855a1.134,1.134,0,1,0-1.814-1.361L21.535,49.78l-2.494-3.327a1.134,1.134,0,1,0-1.814,1.361l2.891,3.855-2.891,3.855a1.134,1.134,0,0,0,.227,1.587Z" transform="translate(-5.662 6.157)" fill="#262626"/>
          <path id="Path_1242774" data-name="Path 1242774" d="M28.134,57.338A1.134,1.134,0,0,0,29.268,56.2V50.535l1.361,1.814a1.175,1.175,0,0,0,1.814,0L33.8,50.535V56.2a1.134,1.134,0,1,0,2.268,0V47.134a1.134,1.134,0,0,0-2.041-.68l-2.494,3.325-2.494-3.325a1.134,1.134,0,0,0-2.041.68V56.2A1.134,1.134,0,0,0,28.134,57.338Z" transform="translate(-4.324 6.157)" fill="#262626"/>
        </g>
      </g>
    </g>
  </g>
</svg>
