<svg xmlns="http://www.w3.org/2000/svg" width="190" height="115" viewBox="0 0 190 115">
  <g id="Group_1202561" data-name="Group 1202561" transform="translate(-1230.051 -394)">
    <g id="Group_1201262" data-name="Group 1201262" transform="translate(0 14)">
      <rect id="Rectangle_410977" data-name="Rectangle 410977" width="190" height="115" transform="translate(1230.051 380)" fill="#f0edfc"/>
      <g id="Group_1201261" data-name="Group 1201261" transform="translate(471.787 -2154.862)">
        <g id="Group_1200259" data-name="Group 1200259" transform="translate(-6 557.578)">
          <g id="Rectangle_410589" data-name="Rectangle 410589" transform="translate(795.781 2013.422)" fill="#ffeb00" stroke="#ffeb00" stroke-width="1">
            <rect width="126.61" height="43.021" rx="8" stroke="none"/>
            <rect x="0.5" y="0.5" width="125.61" height="42.021" rx="7.5" fill="none"/>
          </g>
        </g>
      </g>
    </g>
    <g id="reglamento" transform="translate(1289.054 408)">
      <g id="Group_1202372" data-name="Group 1202372" transform="translate(10.583 9.903)">
        <path id="Path_1242624" data-name="Path 1242624" d="M90.762,25.2c.024,0,.047.007.071.01l.022,0c.028.006.055.013.082.02l.008,0c.027.008.054.018.08.029l.008,0c.025.01.049.022.072.034l.012.006c.021.011.042.024.062.037l.018.011c.019.013.037.027.055.041l.02.015c.02.017.04.035.059.053l.01.009,9.767,9.767.009.01c.018.019.036.038.053.059l.015.02c.014.018.028.036.041.055l.011.018c.013.02.026.041.037.062l.006.012c.012.023.024.047.034.072l0,.008c.011.026.02.053.029.08l0,.008c.008.027.015.054.02.082,0,.007,0,.014,0,.022,0,.023.008.047.01.071a.948.948,0,0,1,0,.1v9.981l5.228,3.018q0-7.258,0-14.516,0-7.2,0-14.4H61.169l0,5.2h29.5a.946.946,0,0,1,.1,0Z" transform="translate(-58.682 -19.999)" fill="#ffb229"/>
        <path id="Path_1242625" data-name="Path 1242625" d="M45.514,115.241H67.4v3.87H45.514Z" transform="translate(-45.514 -100.133)" fill="#ffb229"/>
        <path id="Path_1242626" data-name="Path 1242626" d="M259.665,79.754l-6.518-6.518v6.518Z" transform="translate(-220.211 -64.791)" fill="#ffb229"/>
        <path id="Path_1242627" data-name="Path 1242627" d="M174.344,463.764h27.805v4.479H174.344Z" transform="translate(-153.908 -393.371)" fill="#ffb229"/>
        <path id="Path_1242628" data-name="Path 1242628" d="M315.242,331.884l.333.192a3.147,3.147,0,0,1,1.149,4.29l-.505.875a3.124,3.124,0,0,1-1.5,1.321v.137h5.216q0-3.577.006-7.154l-3.378-1.95-1.322,2.289Z" transform="translate(-272.016 -280.485)" fill="#ffb229"/>
        <path id="Path_1242629" data-name="Path 1242629" d="M0,0H5.442V20.631H0Z" transform="matrix(0.5, -0.866, 0.866, 0.5, 45.498, 47.463)" fill="#ffb229"/>
        <path id="Path_1242630" data-name="Path 1242630" d="M260.8,231.587h0l1.8-3.113-9.859-5.693-7.268,12.588,9.859,5.693,5.47-9.475Z" transform="translate(-213.75 -190.614)" fill="#ffb229"/>
      </g>
      <path id="Path_1242631" data-name="Path 1242631" d="M39.385,224.522a.952.952,0,1,0,0,1.9H67.839a.952.952,0,1,0,0-1.9Z" transform="translate(-28.974 -182.176)"/>
      <path id="Path_1242632" data-name="Path 1242632" d="M64.955,265.139H39.385a.952.952,0,1,0,0,1.9h25.57a.952.952,0,0,0,0-1.9Z" transform="translate(-28.974 -216.35)"/>
      <path id="Path_1242633" data-name="Path 1242633" d="M4.949,77.14H33.521v1.253H30.067a.952.952,0,0,0-.952.952v6.382a.952.952,0,0,0,.952.952H59.776a.952.952,0,0,0,.952-.952V79.345a.952.952,0,0,0-.952-.952H56.322V73.032a.952.952,0,0,0-.952-.952H53.286V70.021h6.167a.952.952,0,0,0,.952-.951q0-3.5.006-7.008l12.684,7.323a3.144,3.144,0,0,0,1.463,3.524l.875.5a3.112,3.112,0,0,0,1.561.42,3.176,3.176,0,0,0,.822-.109,3.119,3.119,0,0,0,1.907-1.461l3.8-6.59a3.144,3.144,0,0,0-1.149-4.29l-.875-.5a3.143,3.143,0,0,0-3.782.5l-17.3-9.99V49.858l.66-1.144.333.192a3.142,3.142,0,0,0,4.29-1.149l.505-.875a3.144,3.144,0,0,0-1.149-4.29l-4.638-2.678q0-7.808,0-15.615,0-7.675,0-15.349A.952.952,0,0,0,59.463,8H12.119a.952.952,0,0,0-.952.951L11.162,15.1H4.949A.952.952,0,0,0,4,16.05V76.189a.952.952,0,0,0,.952.952ZM58.824,80.3v4.479H31.019V80.3Zm-4.406-6.312v4.409H35.424V73.984Zm-1.28-8.277a1.235,1.235,0,0,1-.9.6l-.016,0a1.229,1.229,0,0,1-.777-.154L37.626,58.18a1.238,1.238,0,0,1-.453-1.689l.505-.875a1.238,1.238,0,0,1,1.689-.453l1.158.668h0L53.19,63.144a1.238,1.238,0,0,1,.453,1.689ZM42.3,54.659,49.569,42.07l9.859,5.692-1.8,3.113h0l-5.47,9.475L42.3,54.658ZM58.5,68.118H53.286v-.137a3.123,3.123,0,0,0,1.5-1.321l.505-.875a3.147,3.147,0,0,0-1.149-4.29l-.333-.192,1.322-2.289,3.377,1.95q0,3.577-.006,7.154Zm20.358-5.137a1.238,1.238,0,0,1,1.689-.453l.875.505a1.238,1.238,0,0,1,.453,1.689l-3.8,6.59a1.243,1.243,0,0,1-1.689.453l-.875-.505a1.243,1.243,0,0,1-.453-1.689l3.8-6.59Zm-2.19-.013-2.721,4.713L56.082,57.365,58.8,52.652ZM64.1,44.241a1.238,1.238,0,0,1,.453,1.689l-.5.875a1.238,1.238,0,0,1-1.69.453L61.2,46.59h0L48.539,39.278a1.243,1.243,0,0,1-.453-1.689l.505-.875a1.237,1.237,0,0,1,1.689-.453l1.465.846a.948.948,0,0,0,.237.137l12.121,7ZM13.07,9.9H58.511q0,7.2,0,14.4,0,7.257,0,14.516L53.286,35.8V25.818a.946.946,0,0,0,0-.1c0-.024-.007-.047-.01-.071,0-.007,0-.014,0-.022-.006-.028-.013-.055-.02-.082l0-.008c-.008-.027-.018-.054-.029-.08l0-.008c-.01-.025-.022-.049-.034-.072l-.006-.012c-.011-.021-.024-.042-.037-.062l-.011-.018c-.013-.019-.027-.037-.041-.055l-.015-.02c-.017-.02-.035-.04-.053-.059l-.009-.01L43.24,15.378l-.01-.009c-.019-.018-.038-.036-.059-.053l-.02-.015c-.018-.014-.036-.028-.055-.041l-.018-.011c-.02-.013-.041-.026-.062-.037L43,15.206c-.023-.012-.047-.024-.072-.034l-.008,0c-.026-.011-.053-.02-.08-.029l-.008,0c-.027-.008-.054-.015-.082-.02l-.022,0c-.023,0-.047-.008-.071-.01a.946.946,0,0,0-.1,0h-29.5l0-5.2ZM50.037,24.866H43.519V18.348ZM5.9,17H41.615v8.815a.952.952,0,0,0,.952.952h8.815V34.7l-.15-.087a3.144,3.144,0,0,0-4.29,1.149l-.5.875a3.147,3.147,0,0,0,1.149,4.29l.333.192L40.652,53.707l-.333-.192a3.144,3.144,0,0,0-4.29,1.149l-.505.875a3.144,3.144,0,0,0,1.15,4.29L50.5,67.809a3.125,3.125,0,0,0,.886.344v3.928H34.473a.952.952,0,0,0-.952.952v2.2H5.9Z"/>
      <path id="Path_1242634" data-name="Path 1242634" d="M64.928,361.161c-.221.011-.519.048-.9.094a11.629,11.629,0,0,1-3.025.111,2.561,2.561,0,0,0-2.389-1.605,3.335,3.335,0,0,0-1.44.509,3.258,3.258,0,0,1-.36.185,1.871,1.871,0,0,1-.4-.485,2.7,2.7,0,0,0-2.017-1.451,3.312,3.312,0,0,0-2.545,1.548c-.011-.062-.022-.129-.033-.2a3.034,3.034,0,0,0-1.633-2.621c-.936-.378-2.076-.061-3.386.94-1.289.985-2.875,2.863-3.07,3.9A.957.957,0,0,0,44.5,363.2a.946.946,0,0,0,1.109-.754,8.806,8.806,0,0,1,2.358-2.753c.878-.671,1.367-.748,1.518-.687.114.046.34.339.463,1.142.15.981.385,2.05,1.289,2.306.879.249,1.491-.471,2.031-1.107.217-.256.793-.934,1.011-.934h0s.2.046.542.58c1.314,2.046,2.651,1.292,3.294.93a1.767,1.767,0,0,1,.632-.268c.1-.006.375.138.592.626.358.807,1.248,1.056,2.465,1.056a21.218,21.218,0,0,0,2.46-.2c.314-.038.61-.075.764-.082a.952.952,0,1,0-.1-1.9Z" transform="translate(-33.422 -293.715)"/>
      <path id="Path_1242635" data-name="Path 1242635" d="M59.1,307.659a.952.952,0,0,0,0-1.9H39.385a.952.952,0,0,0,0,1.9Z" transform="translate(-28.974 -250.523)"/>
      <path id="Path_1242636" data-name="Path 1242636" d="M38.433,184.858a.952.952,0,0,0,.952.952H67.436a.952.952,0,0,0,0-1.9H39.385A.952.952,0,0,0,38.433,184.858Z" transform="translate(-28.974 -148.002)"/>
      <path id="Path_1242637" data-name="Path 1242637" d="M58.257,110.918a.952.952,0,0,0,.952-.952v-5.773a.952.952,0,0,0-.952-.952H34.466a.952.952,0,0,0-.952.952v5.773a.952.952,0,0,0,.952.952Zm-22.84-5.773H57.306v3.87H35.418Z" transform="translate(-24.835 -80.133)"/>
    </g>
  </g>
</svg>
