<svg xmlns="http://www.w3.org/2000/svg" xmlns:xlink="http://www.w3.org/1999/xlink" width="91" height="124.79" viewBox="0 0 91 124.79">
  <defs>
    <filter id="Rectangle_410591" x="0" y="0" width="73" height="124.79" filterUnits="userSpaceOnUse">
      <feOffset dy="3" input="SourceAlpha"/>
      <feGaussianBlur stdDeviation="3" result="blur"/>
      <feFlood flood-opacity="0.161"/>
      <feComposite operator="in" in2="blur"/>
      <feComposite in="SourceGraphic"/>
    </filter>
  </defs>
  <g id="Group_1202402" data-name="Group 1202402" transform="translate(-276 -5900.364)">
    <g id="Group_1201604" data-name="Group 1201604" transform="translate(33.15 135.04)">
      <g id="Group_1200292" data-name="Group 1200292" transform="translate(0 4.873)">
        <g transform="matrix(1, 0, 0, 1, 242.85, 5760.45)" filter="url(#Rectangle_410591)">
          <rect id="Rectangle_410591-2" data-name="Rectangle 410591" width="55" height="106.79" rx="10" transform="translate(9 6)" fill="#fd9826"/>
        </g>
      </g>
    </g>
    <g id="Page-1" transform="translate(296.969 5926.742)">
      <g id="_059---Money-Bag" data-name="059---Money-Bag" transform="translate(0 -0.001)">
        <path id="Shape" d="M50.9,60.822h-22.4V46.815c0-1.938-3.4-3.5-7.587-3.5A15.312,15.312,0,0,0,18,43.582V30.871c3.692-8.608,9.989-14.865,15.583-17.637a6.332,6.332,0,0,0,3.3.9h6.537a6.3,6.3,0,0,0,3.327-.922c2.545,1.261,14.019,7.832,18.162,25.434C69.581,58.488,55.574,60.822,50.9,60.822Z" transform="translate(3.011 1.043)" fill="#ffdc00"/>
        <path id="Shape-2" data-name="Shape" d="M61.089,38.644c-4.144-17.6-15.618-24.174-18.162-25.434A6.091,6.091,0,0,1,40.855,14c4,2.391,13.132,9.356,16.733,24.647,4.669,19.843-9.338,22.178-14.007,22.178h3.5c4.669,0,18.676-2.335,14.007-22.178Z" transform="translate(6.833 1.043)" fill="#fec108"/>
        <path id="Shape-3" data-name="Shape" d="M50.352,3.366c.012,2.568-.5,8.171-4.611,11.381a3.649,3.649,0,0,1-.49.339,6.3,6.3,0,0,1-3.327.922H35.388a6.332,6.332,0,0,1-3.3-.9c-.175-.117-.35-.233-.514-.362-4.109-3.21-4.611-8.813-4.611-11.381a1.167,1.167,0,0,1,1.611-1.074c1.494.63,2,2.043,4.26,2.043C35.738,4.335,35.738,2,38.644,2s2.918,2.335,5.836,2.335c2.264,0,2.766-1.424,4.26-2.043a1.167,1.167,0,0,1,1.611,1.074Z" transform="translate(4.509 -0.832)" fill="#ffdc00"/>
        <path id="Shape-4" data-name="Shape" d="M47.1,2.263a9.421,9.421,0,0,0-1.891,1.286C45.191,6.2,44.6,11.59,40.6,14.717a3.649,3.649,0,0,1-.49.339,6.3,6.3,0,0,1-3.327.922h3.5a6.3,6.3,0,0,0,3.327-.922,3.649,3.649,0,0,0,.49-.339c4.106-3.21,4.62-8.813,4.608-11.381A1.167,1.167,0,0,0,47.1,2.263Z" transform="translate(6.152 -0.803)" fill="#fec108"/>
        <ellipse id="Oval" cx="7.587" cy="3.502" rx="7.587" ry="3.502" transform="translate(12.84 5.837)" fill="#ffdc00"/>
        <path id="Shape-5" data-name="Shape" d="M26.174,9V20.649a38.286,38.286,0,0,0-7,10.925V25.342c0-1.938-3.4-3.5-7.587-3.5-.2,0-.385,0-.584.012V9c0,1.938,3.4,3.5,7.587,3.5S26.174,10.938,26.174,9Z" transform="translate(1.84 0.339)" fill="#ff9801"/>
        <path id="Shape-6" data-name="Shape" d="M20.174,23.5c0,1.938-3.4,3.5-7.587,3.5S5,25.439,5,23.5c0-1.844,3.082-3.35,7-3.49.2-.012.385-.012.584-.012C16.778,20,20.174,21.564,20.174,23.5Z" transform="translate(0.836 2.179)" fill="#ffdc00"/>
        <path id="Shape-7" data-name="Shape" d="M20.174,23V41.945c-2.743.525-4.669,1.774-4.669,3.233V56.85c0-1.938-3.4-3.5-7.587-3.5A15.312,15.312,0,0,0,5,53.617V23c0,1.938,3.4,3.5,7.587,3.5S20.174,24.938,20.174,23Z" transform="translate(0.836 2.68)" fill="#ff9801"/>
        <path id="Shape-8" data-name="Shape" d="M16.174,52.5c0,1.938-3.4,3.5-7.587,3.5S1,54.439,1,52.5c0-1.459,1.926-2.708,4.669-3.233A15.312,15.312,0,0,1,8.587,49C12.778,49,16.174,50.564,16.174,52.5Z" transform="translate(0.167 7.029)" fill="#ffeb3a"/>
        <path id="Shape-9" data-name="Shape" d="M16.174,52v5.836c0,1.938-3.4,3.5-7.587,3.5S1,59.774,1,57.836V52c0,1.938,3.4,3.5,7.587,3.5S16.174,53.938,16.174,52Z" transform="translate(0.167 7.531)" fill="#ffdc00"/>
        <path id="Shape-10" data-name="Shape" d="M29.174,42.5c0,1.938-3.4,3.5-7.587,3.5S14,44.439,14,42.5c0-1.459,1.926-2.708,4.669-3.233A15.312,15.312,0,0,1,21.587,39C25.778,39,29.174,40.564,29.174,42.5Z" transform="translate(2.342 5.356)" fill="#ffeb3a"/>
        <path id="Shape-11" data-name="Shape" d="M29.174,42V57.174c0,1.938-3.4,3.5-7.587,3.5S14,59.112,14,57.174V42c0,1.938,3.4,3.5,7.587,3.5S29.174,43.938,29.174,42Z" transform="translate(2.342 5.858)" fill="#ffdc00"/>
        <g id="Group_1202401" data-name="Group 1202401">
          <path id="Shape-12" data-name="Shape" d="M55.171,17.416c5.791.437,7.655,2.846,7.71,2.918a1.167,1.167,0,0,0,1.933-1.308c-.084-.126-1.705-2.442-6.42-3.5a5.354,5.354,0,0,0,1.953-4.019,5.994,5.994,0,0,0-4.464-5.437,21.29,21.29,0,0,0,.156-2.541,2.335,2.335,0,0,0-3.246-2.145,6.668,6.668,0,0,0-1.625,1.042,3.009,3.009,0,0,1-2.183.91,3.013,3.013,0,0,1-2.179-.91,5.369,5.369,0,0,0-7.286,0,3.069,3.069,0,0,1-4.363,0,6.679,6.679,0,0,0-1.62-1.041A2.335,2.335,0,0,0,30.3,3.528c0,2.9.574,8.084,4.21,11.563a32.2,32.2,0,0,0-5.325,4.052v-8.8c0-2.661-3.764-4.669-8.754-4.669s-8.754,2.008-8.754,4.669V22.1c-4.094.409-7,2.247-7,4.581V56.369C1.849,57.126,0,58.662,0,60.53v5.836c0,2.661,3.764,4.669,8.754,4.669,4.462,0,7.937-1.607,8.622-3.852A13.112,13.112,0,0,0,23.929,68.7c4.99,0,8.754-2.008,8.754-4.669V48.857c0-2.661-3.764-4.669-8.754-4.669a17.32,17.32,0,0,0-1.751.088V26.68c0-2.556-3.475-4.5-8.171-4.654V13.57a13.293,13.293,0,0,0,6.42,1.437,13.293,13.293,0,0,0,6.42-1.437v7.961c-.768.86-1.542,1.8-2.3,2.836a1.167,1.167,0,0,0,1.882,1.379,35.384,35.384,0,0,1,2.407-2.918c.009-.011.018-.021.027-.03a30.685,30.685,0,0,1,7.747-6.209,7.407,7.407,0,0,0,1.8.6L35.4,20A1.168,1.168,0,0,0,36.991,21.7l4.669-4.355h.372v3.5a1.167,1.167,0,1,0,2.335,0V17.342h.372L49.409,21.7A1.168,1.168,0,1,0,51,19.99l-3.029-2.82a7.354,7.354,0,0,0,1.789-.6c3.085,1.669,13.226,8.264,17.024,24.385,1.652,7.018,1.056,12.386-1.768,15.952-3.614,4.558-9.884,4.792-11.1,4.792H37.352a1.167,1.167,0,1,0,0,2.335H53.915c1.984,0,8.76-.41,12.933-5.676,3.289-4.154,4.034-10.189,2.211-17.936-2.876-12.222-9.27-19.3-13.888-23ZM8.754,58.2c3.86,0,6.42,1.4,6.42,2.335s-2.56,2.335-6.42,2.335-6.42-1.4-6.42-2.335S4.894,58.2,8.754,58.2Zm0,10.505c-3.86,0-6.42-1.4-6.42-2.335v-2.6A13.293,13.293,0,0,0,8.754,65.2a13.293,13.293,0,0,0,6.42-1.437v2.6C15.174,67.3,12.614,68.7,8.754,68.7Zm15.174-2.335c-3.86,0-6.42-1.4-6.42-2.335V52.09a13.293,13.293,0,0,0,6.42,1.437,13.293,13.293,0,0,0,6.42-1.437V64.032C30.349,64.966,27.789,66.366,23.929,66.366Zm6.42-17.509c0,.934-2.56,2.335-6.42,2.335s-6.42-1.4-6.42-2.335,2.56-2.335,6.42-2.335S30.349,47.924,30.349,48.857Zm-15.174,0V57.3a13.293,13.293,0,0,0-6.42-1.437A17.32,17.32,0,0,0,7,55.949V29.912a13.293,13.293,0,0,0,6.42,1.437,13.293,13.293,0,0,0,6.42-1.437V44.7C17.023,45.454,15.174,46.99,15.174,48.857ZM19.843,26.68c0,.934-2.56,2.335-6.42,2.335S7,27.613,7,26.68s2.56-2.335,6.42-2.335S19.843,25.746,19.843,26.68Zm.584-14.007c-3.86,0-6.42-1.4-6.42-2.335S16.567,8,20.427,8s6.42,1.4,6.42,2.335S24.287,12.673,20.427,12.673Zm37.586-1.167c0,1.913-2.072,3.483-4.669,3.5a6.028,6.028,0,0,1-1.291-.148A13.84,13.84,0,0,0,55.462,8.4a3.576,3.576,0,0,1,2.55,3.1ZM33.7,4.245a5.366,5.366,0,0,0,7.281,0,3.072,3.072,0,0,1,4.366,0,5.263,5.263,0,0,0,3.643,1.424,5.268,5.268,0,0,0,3.643-1.424,4.889,4.889,0,0,1,1.07-.719c0,2.168-.4,7.526-4.164,10.464a5.006,5.006,0,0,1-2.93,1,25.247,25.247,0,0,0,2.382-5.511,1.168,1.168,0,0,0-2.25-.626,21.413,21.413,0,0,1-2.944,6.15h-1.2a21.615,21.615,0,0,1-2.945-6.15,1.167,1.167,0,1,0-2.249.627A25.264,25.264,0,0,0,39.785,15a5.019,5.019,0,0,1-2.991-1.007c-3.761-2.937-4.164-8.3-4.164-10.456a4.565,4.565,0,0,1,1.066.71Z" transform="translate(0 -0.999)"/>
          <path id="Shape-13" data-name="Shape" d="M55.631,48.766a11.206,11.206,0,0,0,2.143-6.544A1.167,1.167,0,0,0,56.664,41a1.18,1.18,0,0,0-1.222,1.11A8.939,8.939,0,0,1,53.8,47.316c-2.277,2.876-6.6,3.022-7.442,3.022a1.167,1.167,0,1,0,0,2.335c1.032,0,6.328-.188,9.274-3.907Z" transform="translate(7.558 5.691)"/>
          <path id="Shape-14" data-name="Shape" d="M34.335,37.007a1.167,1.167,0,1,0-2.335,0,4.669,4.669,0,0,0,4.669,4.669v1.167a1.167,1.167,0,0,0,2.335,0V41.676a4.669,4.669,0,0,0,0-9.338V27.669A2.335,2.335,0,0,1,41.338,30a1.167,1.167,0,1,0,2.335,0A4.669,4.669,0,0,0,39,25.335V24.167a1.167,1.167,0,0,0-2.335,0v1.167a4.669,4.669,0,1,0,0,9.338v4.669A2.335,2.335,0,0,1,34.335,37.007Zm0-7a2.335,2.335,0,0,1,2.335-2.335v4.669A2.335,2.335,0,0,1,34.335,30ZM39,34.673a2.335,2.335,0,0,1,0,4.669Z" transform="translate(5.352 2.68)"/>
        </g>
      </g>
    </g>
  </g>
</svg>
