<svg xmlns="http://www.w3.org/2000/svg" width="126.61" height="71.979" viewBox="0 0 126.61 71.979">
  <g id="Group_1202576" data-name="Group 1202576" transform="translate(-4419.677 2032.117)">
    <g id="Group_1202445" data-name="Group 1202445">
      <g id="Group_1202240" data-name="Group 1202240" transform="translate(3629.896 -4590)">
        <g id="Group_1200259" data-name="Group 1200259" transform="translate(-6 557.578)">
          <g id="Rectangle_410589" data-name="Rectangle 410589" transform="translate(795.781 2013.422)" fill="#ffeb00" stroke="#ffeb00" stroke-width="1">
            <rect width="126.61" height="43.021" rx="8" stroke="none"/>
            <rect x="0.5" y="0.5" width="125.61" height="42.021" rx="7.5" fill="none"/>
          </g>
        </g>
      </g>
      <g id="compras1" transform="translate(4446.855 -2032.117)">
        <path id="Path_1242826" data-name="Path 1242826" d="M184.556,79.632v47.2a1.475,1.475,0,0,1-1.474,1.475H143.66a1.475,1.475,0,0,1-1.476-1.475v-47.2a1.476,1.476,0,0,1,1.476-1.476h39.421A1.475,1.475,0,0,1,184.556,79.632Zm0,0" transform="translate(-122.195 -67.169)" fill="#f44545"/>
        <path id="Path_1242827" data-name="Path 1242827" d="M373.375,79.632v47.2a1.475,1.475,0,0,1-1.474,1.475h-10.01V78.156H371.9A1.475,1.475,0,0,1,373.375,79.632Zm0,0" transform="translate(-311.014 -67.169)" fill="#c42d2d"/>
        <path id="Path_1242828" data-name="Path 1242828" d="M219.088,331.255a3.14,3.14,0,0,0-1.375,4.226l.967,1.9a.922.922,0,0,1-.822,1.34h-3.732l-8.826,0a2.091,2.091,0,1,0-.058,4.181c-4.124,0-3.889,0-3.907,0a2.189,2.189,0,0,0-1.473.66,2.127,2.127,0,0,0-.568,2.055,1.97,1.97,0,0,0,2,1.462h1.815a2.089,2.089,0,0,0,.042,4.179l6.516,0a2.086,2.086,0,0,0-2.091,2.089,2.09,2.09,0,0,0,2.089,2.09l14.615,0h.038a4.933,4.933,0,0,0,4.934-4.916l-.019-11.046a5.021,5.021,0,0,0-.058-.759h-2.787a3.339,3.339,0,0,1-2.978-1.826l-2.585-5.078A1.289,1.289,0,0,0,219.088,331.255Zm0,0" transform="translate(-171.218 -284.565)" fill="#f2bb88"/>
        <path id="Path_1242829" data-name="Path 1242829" d="M280.278,455.758a4.934,4.934,0,0,1-4.932,4.76h-.038l-16.7,0a2.089,2.089,0,0,0,2.088,2.046l14.615,0h.038a4.933,4.933,0,0,0,4.935-4.916Zm0,0" transform="translate(-222.249 -391.685)" fill="#e3a76f"/>
        <path id="Path_1242830" data-name="Path 1242830" d="M413.656,385.254h7.5c1.543,0,2.813-.951,2.813-2.116V367.527c0-1.165-1.261-2.124-2.8-2.125h-7.5c-1.543,0-2.806.952-2.807,2.116l-.005,15.612C410.851,384.294,412.113,385.254,413.656,385.254Zm0,0" transform="translate(-353.092 -314.032)" fill="#d2d2d7"/>
        <path id="Path_1242831" data-name="Path 1242831" d="M447.328,385.254H452.5c1.543,0,2.813-.951,2.813-2.116V367.527c0-1.165-1.261-2.124-2.8-2.125h-5.181Zm0,0" transform="translate(-384.441 -314.032)" fill="#5596fb"/>
        <path id="Path_1242832" data-name="Path 1242832" d="M109.193,125.72a3.142,3.142,0,0,1,1.375,4.226l-.968,1.9a.923.923,0,0,0,.822,1.34h3.732l8.826,0a2.091,2.091,0,1,1,.058,4.181c3.3,0,3.885,0,3.907,0a2.187,2.187,0,0,1,1.472.66,2.133,2.133,0,0,1,.569,2.055,1.971,1.971,0,0,1-2,1.462h-1.815a2.09,2.09,0,0,1-.042,4.179l-6.515,0a2.085,2.085,0,0,1,2.091,2.089,2.09,2.09,0,0,1-2.089,2.09l-14.615,0h-.038a4.934,4.934,0,0,1-4.935-4.916l.02-11.046a4.951,4.951,0,0,1,.058-.759H101.9a3.34,3.34,0,0,0,2.978-1.826l2.585-5.078A1.29,1.29,0,0,1,109.193,125.72Zm0,0" transform="translate(-85.109 -107.925)" fill="#f2bb88"/>
        <path id="Path_1242833" data-name="Path 1242833" d="M99.038,250.227a4.932,4.932,0,0,0,4.931,4.759h.038l16.7,0a2.089,2.089,0,0,1-2.088,2.046l-14.615,0h-.038a4.931,4.931,0,0,1-4.934-4.916Zm0,0" transform="translate(-85.112 -215.048)" fill="#e3a76f"/>
        <path id="Path_1242834" data-name="Path 1242834" d="M20.8,174.505c0,1.164-1.262,2.124-2.8,2.124H10.5c-1.544,0-2.814-.952-2.814-2.117V158.9c0-1.165,1.261-2.124,2.8-2.125h7.5c1.543,0,2.806.952,2.807,2.116Zm0,0" transform="translate(-6.603 -134.737)" fill="#ebebf0"/>
        <path id="Path_1242835" data-name="Path 1242835" d="M14.962,174.662l1.686,1.968H10.5c-1.544,0-2.814-.952-2.814-2.117V158.9c0-1.165,1.261-2.124,2.8-2.125h6.16l-1.686,1.966a2.05,2.05,0,0,0,0,2.668l.554.645a2.051,2.051,0,0,1,0,2.668l-.554.645a2.048,2.048,0,0,0,0,2.666l.554.645a2.051,2.051,0,0,1,0,2.668l-.554.646A2.048,2.048,0,0,0,14.962,174.662Zm0,0" transform="translate(-6.603 -134.737)" fill="#ffa90b"/>
        <path id="Path_1242836" data-name="Path 1242836" d="M68.082,49.862H63.39V12.576a2.544,2.544,0,0,0-2.542-2.542H51.857V8.524A8.521,8.521,0,0,0,39.6.861,8.521,8.521,0,0,0,27.351,8.524v1.511H21.428a2.544,2.544,0,0,0-2.542,2.542V22.953a2.31,2.31,0,0,1-2.1,1.368H15.256v-.063c0-1.756-1.74-3.183-3.874-3.183H3.873C1.738,21.076,0,22.51,0,24.268V39.9a2.961,2.961,0,0,0,1.254,2.348,4.376,4.376,0,0,0,2.626.837h7.508a4.352,4.352,0,0,0,2.627-.844,3.341,3.341,0,0,0,.7-.714,5.973,5.973,0,0,0,4.149,1.669h.021V59.78a2.544,2.544,0,0,0,2.542,2.54h6.034a2.981,2.981,0,0,0,1.516,1.113A3.159,3.159,0,0,0,31.9,67.787l3.536,0a.085.085,0,0,0,0,.013,3.16,3.16,0,0,0,2.99,4.174l14.671,0a5.973,5.973,0,0,0,4.149-1.668,4.091,4.091,0,0,0,3.326,1.557h7.51a4.615,4.615,0,0,0,1.679-.314,3.932,3.932,0,0,0,.946-.522,2.991,2.991,0,0,0,1.254-2.348V53.054C71.956,51.295,70.218,49.863,68.082,49.862ZM8.066,36.031l-.554.645a3.1,3.1,0,0,0,0,4.055l.189.221H3.88a2.275,2.275,0,0,1-1.345-.409.89.89,0,0,1-.4-.645V24.268c0-.5.744-1.061,1.741-1.063H7.7l-.188.22a3.1,3.1,0,0,0,0,4.055l.553.645a.978.978,0,0,1,0,1.281l-.552.645a3.1,3.1,0,0,0,0,4.055l.554.645A.978.978,0,0,1,8.066,36.031Zm5.064,3.86a.9.9,0,0,1-.4.65,3.6,3.6,0,0,1-2.219.411L9.13,39.345a.979.979,0,0,1,0-1.281l.554-.645a3.1,3.1,0,0,0,0-4.055l-.554-.645a.978.978,0,0,1,0-1.281l.552-.645a3.1,3.1,0,0,0,0-4.056l-.553-.645a.978.978,0,0,1,0-1.28l1.379-1.607h.874c1,0,1.741.557,1.743,1.054C13.125,24.275,13.13,40.944,13.13,39.892Zm30.2-37.761a6.4,6.4,0,0,1,6.392,6.393v1.511H44.4V8.524a8.5,8.5,0,0,0-2.671-6.188A6.374,6.374,0,0,1,43.333,2.131ZM39.6,3.336a6.387,6.387,0,0,1,2.664,5.187v1.511H36.94V8.524A6.388,6.388,0,0,1,39.6,3.336ZM29.482,8.524a6.393,6.393,0,0,1,8-6.188A8.5,8.5,0,0,0,34.81,8.524v1.511H29.482Zm-10.6,32.54h-.021a3.842,3.842,0,0,1-1.663-.375,3.894,3.894,0,0,1-1.941-2.083l0-12.153h1.534a4.388,4.388,0,0,0,3.931-2.411l2.548-5,0,0h0l0-.008a0,0,0,0,0,0,0s0,0,0,0L23.288,19l0,0,0-.008c.005-.011.01-.02.013-.026l-.008.016.015-.03a.229.229,0,0,1,.306-.1,2.084,2.084,0,0,1,.911,2.8l-.97,1.9a1.991,1.991,0,0,0,1.774,2.892l12.572,0a1.078,1.078,0,0,1,1.086,1.042A1.031,1.031,0,0,1,37.962,28.5H30.8a1.065,1.065,0,1,0,0,2.131H41.835a1.127,1.127,0,0,1,.759.349.963.963,0,0,1-.678,1.7H30.722a1.065,1.065,0,1,0,0,2.131h9.337a1.027,1.027,0,0,1,0,2.054l-10.2,0a1.065,1.065,0,1,0,0,2.131c3.936,0,4-.107,4.408.3a1.028,1.028,0,0,1-.726,1.753h-.022ZM26.929,60.19h-5.5a.41.41,0,0,1-.41-.409V43.193l12.519,0a3.16,3.16,0,0,0,2.99-4.174l0-.012,3.536,0a3.157,3.157,0,0,0,2.921-4.354A3.1,3.1,0,0,0,44.1,29.475a3.853,3.853,0,0,0-3.154-.973A3.178,3.178,0,0,0,37.9,24.317l-12.342,0,.863-1.7a4.209,4.209,0,0,0-1.842-5.664,2.355,2.355,0,0,0-3.171,1.031l-.393.773V12.576a.411.411,0,0,1,.41-.41h5.924v3.947a1.066,1.066,0,0,0,2.131,0V12.166H42.268v3.947a1.066,1.066,0,0,0,2.131,0V12.166h5.375V45.9a2.353,2.353,0,0,0-2.4-.158,4.217,4.217,0,0,0-1.844,5.664l.864,1.7-12.341,0a3.219,3.219,0,0,0-3.036,2.127,3.085,3.085,0,0,0-.009,2.057h-.888A3.283,3.283,0,0,0,26.929,60.19Zm29.766,7.2a3.873,3.873,0,0,1-3.6,2.458l-14.67,0a1.029,1.029,0,0,1-.727-1.753c.52-.52,1.008-.215,4.408-.3a1.065,1.065,0,1,0,0-2.131H38.421c-7.079-.011-6.835.112-7.248-.3a1.028,1.028,0,0,1,.7-1.755h0a.094.094,0,0,0,.021,0h9.334a1.066,1.066,0,0,0,0-2.131H31.9c-1.492-.071-2.231.194-2.664-.333a1.111,1.111,0,0,1,.889-1.719H41.158a1.065,1.065,0,0,0,0-2.131H33.97a1.022,1.022,0,0,1-.947-1.34,1.1,1.1,0,0,1,1.029-.713l12.574,0A1.989,1.989,0,0,0,48.4,52.346l-.969-1.9a2.083,2.083,0,0,1,.911-2.8.226.226,0,0,1,.305.1l2.547,5.006s0,0,0,0l0,.005,0,0v0s0,0,0,0l.005.012,0,.01,0,0,0,.009,0,.008v0l0,.008,0-.006,0,.007,0,0h0a.037.037,0,0,1,0,.007v0l0,0,0,0s0,0,0,0l0,.009,0-.006,0,.008,0,.007h0a4.573,4.573,0,0,0,4.347,2.41H56.7C56.7,57.472,56.694,68.066,56.694,67.391Zm-.049-43.374a1.066,1.066,0,0,0-1.065,1.065V53.106a2.449,2.449,0,0,1-2.448-1.245L51.9,49.45V12.166H55.58V20.82a1.065,1.065,0,1,0,2.131,0V12.166h3.137a.41.41,0,0,1,.411.41V49.862h-.685A4.282,4.282,0,0,0,57.711,50.9V25.082A1.065,1.065,0,0,0,56.645,24.017ZM69.825,68.685a.934.934,0,0,1-.342.6,2.231,2.231,0,0,1-1.409.456h-4.12V63.6a1.066,1.066,0,0,0-2.131,0v6.138H60.566a2.254,2.254,0,0,1-1.338-.409.906.906,0,0,1-.4-.652v-.929c0-.015.005-14.679.005-14.7,0-.5.746-1.054,1.745-1.054h1.247v7.346a1.066,1.066,0,0,0,2.131,0V51.992h4.129c1,0,1.743.561,1.743,1.062Zm0,0"/>
        <path id="Path_1242837" data-name="Path 1242837" d="M465.824,465.375a1.457,1.457,0,1,0,1.457,1.457A1.461,1.461,0,0,0,465.824,465.375Zm0,0" transform="translate(-399.084 -399.95)"/>
      </g>
    </g>
  </g>
</svg>
