<svg xmlns="http://www.w3.org/2000/svg" width="126.61" height="67.655" viewBox="0 0 126.61 67.655">
  <g id="Group_1202578" data-name="Group 1202578" transform="translate(-3768 2030.677)">
    <g id="Group_1202443" data-name="Group 1202443">
      <g id="Group_1202238" data-name="Group 1202238" transform="translate(2978.219 -4590)">
        <g id="Group_1200259" data-name="Group 1200259" transform="translate(-6 557.578)">
          <g id="Rectangle_410589" data-name="Rectangle 410589" transform="translate(795.781 2013.422)" fill="#ffeb00" stroke="#ffeb00" stroke-width="1">
            <rect width="126.61" height="43.021" rx="8" stroke="none"/>
            <rect x="0.5" y="0.5" width="125.61" height="42.021" rx="7.5" fill="none"/>
          </g>
        </g>
      </g>
      <g id="ganador" transform="translate(3789.404 -2031.677)">
        <g id="Group_1202442" data-name="Group 1202442" transform="translate(9.659 2.061)">
          <g id="Group_1202439" data-name="Group 1202439" transform="translate(0 41.009)">
            <path id="Path_1242814" data-name="Path 1242814" d="M48.08,324.8l4.179,15.593a26.063,26.063,0,0,1,2.754-2.044,8.613,8.613,0,0,1,3.059-1.332,7.91,7.91,0,0,1,3.545.092h0l8.481,1.945a7.248,7.248,0,0,0,5.462-.719l21.208-12.244a3.973,3.973,0,0,0-3.973-6.881l-14.769,8.526.032-.111a4.412,4.412,0,0,0-3.087-5.4L60.168,318.2a6.957,6.957,0,0,0-5.322,1.421Z" transform="translate(-43.905 -318.131)" fill="#ffd6bd" fill-rule="evenodd"/>
            <path id="Path_1242815" data-name="Path 1242815" d="M172.448,382.872a4.414,4.414,0,0,0,5.025-2.16,4.3,4.3,0,0,1-.151,1.019,4.409,4.409,0,0,1-5.4,3.087c-2.881-.787-5.768-1.545-8.655-2.319a1.011,1.011,0,1,1,.523-1.953C166.676,381.318,169.553,382.086,172.448,382.872Z" transform="translate(-143.165 -372.237)" fill="#f9c6aa" fill-rule="evenodd"/>
            <path id="Path_1242816" data-name="Path 1242816" d="M74.86,353.539l.626,2.337a26.062,26.062,0,0,1,2.754-2.044A8.612,8.612,0,0,1,81.3,352.5a7.911,7.911,0,0,1,3.545.092h0l8.481,1.945a7.248,7.248,0,0,0,5.462-.719L120,341.574a3.985,3.985,0,0,0,1.454-5.427c-.033-.057-.066-.113-.1-.167a3.979,3.979,0,0,1-1.978,3.257L98.164,351.481a7.25,7.25,0,0,1-5.462.719l-8.481-1.945h0a7.911,7.911,0,0,0-3.545-.092,8.579,8.579,0,0,0-3.059,1.332,25.923,25.923,0,0,0-2.754,2.044Z" transform="translate(-67.132 -333.612)" fill="#f9c6aa" fill-rule="evenodd"/>
            <path id="Path_1242817" data-name="Path 1242817" d="M21.849,339.283l5.107,19.061a.878.878,0,0,1-.618,1.072l-3.523.945a.878.878,0,0,1-1.072-.618l-5.107-19.061a.877.877,0,0,1,.618-1.072l3.523-.945a.877.877,0,0,1,1.072.618Z" transform="translate(-16.606 -335.915)" fill="#64b5f6" fill-rule="evenodd"/>
            <path id="Path_1242818" data-name="Path 1242818" d="M21.849,339.278l.06.222-3.3.884a.878.878,0,0,0-.618,1.072l5.048,18.839-.224.06a.878.878,0,0,1-1.072-.618l-5.107-19.06a.878.878,0,0,1,.618-1.072l3.523-.945a.879.879,0,0,1,1.072.62Z" transform="translate(-16.606 -335.91)" fill="#42a5f5" fill-rule="evenodd"/>
          </g>
          <g id="Group_1202440" data-name="Group 1202440" transform="translate(19.008 0)">
            <path id="Path_1242819" data-name="Path 1242819" d="M182.419,17.095v2.662c6.774,6.32,12.709,15.455,6.9,23.06a11.56,11.56,0,0,1-9.463,4.68H171.7a11.561,11.561,0,0,1-9.463-4.682c-5.805-7.605.129-16.739,6.9-23.059V17.095a11.242,11.242,0,0,0-1.774-3.149c-1.994-2.847-1.591-3.811,3.282-2.01C172.7,12.691,171.835,9,175.781,9s3.086,3.691,5.13,2.934c4.871-1.8,5.276-.836,3.282,2.01a11.263,11.263,0,0,0-1.774,3.151Z" transform="translate(-159.886 -9)" fill="#72d561" fill-rule="evenodd"/>
            <path id="Path_1242820" data-name="Path 1242820" d="M225.225,17.095v2.662c6.774,6.32,12.709,15.455,6.9,23.06a11.56,11.56,0,0,1-9.463,4.68h-1.9a11.561,11.561,0,0,0,9.463-4.68c5.807-7.605-.127-16.74-6.9-23.06V17.095a11.242,11.242,0,0,1,1.774-3.149c.995-1.421,1.393-2.373.937-2.746,2.619-.627,2.575.444.962,2.746a11.242,11.242,0,0,0-1.774,3.149ZM209.24,11.2c.414-.338,1.528-.2,3.534.491a.986.986,0,0,1-1.215.244A21.267,21.267,0,0,0,209.24,11.2Zm8.4-2.116c2.865.543,2.319,3.539,4.18,2.851.239-.088.466-.17.683-.244-.728-.8-1.088-2.69-3.915-2.69A5.107,5.107,0,0,0,217.639,9.084Z" transform="translate(-202.693 -9)" fill="#57ca5a" fill-rule="evenodd"/>
            <path id="Path_1242821" data-name="Path 1242821" d="M213.016,66.75h14.628a1.766,1.766,0,1,1,0,3.531H213.016a1.766,1.766,0,0,1,0-3.531Z" transform="translate(-204.436 -59.089)" fill="#ffda2d" fill-rule="evenodd"/>
            <path id="Path_1242822" data-name="Path 1242822" d="M213.016,66.75h14.628a1.771,1.771,0,0,1,1.658,1.163,1.747,1.747,0,0,0-.662-.13H214.013a1.771,1.771,0,0,0-1.766,1.766,1.748,1.748,0,0,0,.106.6,1.765,1.765,0,0,1,.662-3.4Z" transform="translate(-204.436 -59.089)" fill="#ffc700" fill-rule="evenodd"/>
          </g>
          <g id="Group_1202441" data-name="Group 1202441" transform="translate(6.288 7.136)">
            <path id="Path_1242823" data-name="Path 1242823" d="M71.937,70.349h2.389A.649.649,0,0,0,74.84,69.3l-4.833-6.255a.649.649,0,0,0-1.028,0L64.145,69.3a.649.649,0,0,0,.515,1.047h2.389V82.342a.852.852,0,0,0,.85.85h3.188a.852.852,0,0,0,.85-.85Zm46.256,0h2.389A.649.649,0,0,0,121.1,69.3l-4.834-6.255a.649.649,0,0,0-1.028,0L110.4,69.3a.649.649,0,0,0,.515,1.047H113.3V82.342a.852.852,0,0,0,.85.85h3.188a.852.852,0,0,0,.85-.85Z" transform="translate(-64.006 -62.795)" fill="#ffda2d" fill-rule="evenodd"/>
            <path id="Path_1242824" data-name="Path 1242824" d="M102.888,70.349H104.6a.649.649,0,0,0,.513-1.047l-4.834-6.255a.649.649,0,0,0-1.028,0l-.342.443L103.4,69.3A.648.648,0,0,1,102.888,70.349ZM99.65,83.191a.854.854,0,0,0,.849-.85V70.349h1.713V82.34a.852.852,0,0,1-.85.85Zm49.493-12.841h1.713a.649.649,0,0,0,.513-1.047l-4.834-6.255a.649.649,0,0,0-1.028,0l-.342.443,4.492,5.813A.647.647,0,0,1,149.143,70.349ZM145.9,83.191a.854.854,0,0,0,.849-.85V70.349h1.713V82.34a.853.853,0,0,1-.85.85Z" transform="translate(-94.28 -62.795)" fill="#ffc700" fill-rule="evenodd"/>
          </g>
        </g>
        <path id="Path_1242825" data-name="Path 1242825" d="M21.434,10.521l4,5.17H23.879a1.061,1.061,0,0,0-1.061,1.061v11.78H20.051V16.752a1.062,1.062,0,0,0-1.061-1.061H17.439ZM16.6,17.813h1.329V28.742a1.915,1.915,0,0,0,1.912,1.913h3.188a1.914,1.914,0,0,0,1.912-1.913V17.813h1.328a1.71,1.71,0,0,0,1.353-2.757L22.786,8.8a1.71,1.71,0,0,0-2.706,0l-4.834,6.256A1.71,1.71,0,0,0,16.6,17.813Zm53.535-2.123a1.06,1.06,0,0,0-1.061,1.061v11.78H66.3V16.752a1.062,1.062,0,0,0-1.061-1.061H63.693l4-5.17,4,5.17Zm3.744-.634L69.043,8.8a1.71,1.71,0,0,0-2.706,0L61.5,15.057a1.71,1.71,0,0,0,1.353,2.757h1.329V28.742A1.915,1.915,0,0,0,66.1,30.655h3.188A1.914,1.914,0,0,0,71.2,28.742V17.813h1.328a1.71,1.71,0,0,0,1.353-2.757ZM40.55,24.035A3.721,3.721,0,0,1,43.5,20.4V19.115a1.061,1.061,0,1,1,2.123,0v1.243a3.734,3.734,0,0,1,2.489,1.507,1.061,1.061,0,1,1-1.721,1.243,1.6,1.6,0,0,0-1.291-.665h-.836a1.592,1.592,0,1,0,0,3.184h.593a3.715,3.715,0,0,1,.765,7.349V34.26a1.061,1.061,0,1,1-2.123,0V33.017a3.734,3.734,0,0,1-2.489-1.507,1.061,1.061,0,1,1,1.719-1.244,1.6,1.6,0,0,0,1.291.665h.836a1.592,1.592,0,1,0,0-3.184h-.593a3.714,3.714,0,0,1-3.713-3.712Zm-9.91.482c-1.535,4.037-1.122,7.641,1.224,10.716a10.488,10.488,0,0,0,8.62,4.265h8.153a10.487,10.487,0,0,0,8.619-4.264c2.348-3.075,2.759-6.679,1.226-10.718-1.548-4.071-4.736-7.749-7.252-10.2H37.893C35.377,16.769,32.189,20.445,30.641,24.517ZM39.063,5.991a2.512,2.512,0,0,0,.878.171,2.558,2.558,0,0,0,2.072-1.518,2.527,2.527,0,0,1,2.547-1.522,2.526,2.526,0,0,1,2.548,1.523c.43.692,1.23,1.982,2.95,1.345a14.8,14.8,0,0,1,2.8-.819A9.892,9.892,0,0,1,52.1,6.4,17.565,17.565,0,0,0,50.676,8.66H38.446A17.326,17.326,0,0,0,37.019,6.4a9.892,9.892,0,0,1-.757-1.224,14.8,14.8,0,0,1,2.8.819Zm-1.816,6.2a.7.7,0,0,1,0-1.409h14.63a.7.7,0,1,1,0,1.409Zm-7.069,24.33c-2.822-3.7-3.334-7.99-1.522-12.759A31.226,31.226,0,0,1,35.5,13.7a2.823,2.823,0,0,1,.638-4.82c-.2-.321-.472-.719-.858-1.272-.991-1.415-1.8-2.871-.987-3.921.864-1.12,2.746-.712,5.505.308a.653.653,0,0,0,.074.024,4.776,4.776,0,0,0,.336-.5A4.585,4.585,0,0,1,44.561,1a4.585,4.585,0,0,1,4.351,2.526,4.637,4.637,0,0,0,.336.5A.579.579,0,0,0,49.322,4c2.759-1.02,4.642-1.427,5.505-.308.812,1.052.005,2.506-.986,3.921-.387.552-.657.95-.858,1.272a2.823,2.823,0,0,1,.638,4.82,31.212,31.212,0,0,1,6.845,10.057c1.812,4.769,1.3,9.062-1.523,12.759a12.7,12.7,0,0,1-10.306,5.1H40.484A12.7,12.7,0,0,1,30.178,36.521ZM61.995,50.162,40.787,62.407a6.212,6.212,0,0,1-4.695.6l-8.481-1.943A8.94,8.94,0,0,0,20.263,62.4l-3.6-13.44,4.582-3.509a5.024,5.024,0,0,1,4.4-1.24L40.45,48.241A3.334,3.334,0,1,1,38.7,54.675l-7.909-2.153a1.061,1.061,0,0,0-.557,2.048l7.909,2.153a5.451,5.451,0,0,0,6.514-3.277l14.428-8.33a2.913,2.913,0,0,1,2.912,5.045ZM15.772,66.491l3.163-.848-5.011-18.7-3.163.848ZM61.84,42.782a5,5,0,0,0-3.819.5L44.989,50.8A5.466,5.466,0,0,0,41.007,46.2L26.2,42.166a7.1,7.1,0,0,0-6.247,1.6l-3.886,2.976-.142-.529a1.939,1.939,0,0,0-2.371-1.37l-3.523.945a1.936,1.936,0,0,0-1.369,2.371L13.77,67.22a1.941,1.941,0,0,0,1.87,1.435,1.969,1.969,0,0,0,.5-.065l3.523-.945a1.94,1.94,0,0,0,1.369-2.372l-.186-.694a7.078,7.078,0,0,1,6.289-1.446l8.481,1.943a9.643,9.643,0,0,0,2.161.255,8.016,8.016,0,0,0,4.07-1.089L63.057,52a5.027,5.027,0,0,0-1.218-9.216Z" fill-rule="evenodd"/>
      </g>
    </g>
  </g>
</svg>
