<svg xmlns="http://www.w3.org/2000/svg" xmlns:xlink="http://www.w3.org/1999/xlink" width="86.504" height="105.79" viewBox="0 0 86.504 105.79">
  <defs>
    <filter id="Rectangle_410591" x="0" y="0" width="63.214" height="105.79" filterUnits="userSpaceOnUse">
      <feOffset dy="3" input="SourceAlpha"/>
      <feGaussianBlur stdDeviation="3" result="blur"/>
      <feFlood flood-opacity="0.161"/>
      <feComposite operator="in" in2="blur"/>
      <feComposite in="SourceGraphic"/>
    </filter>
  </defs>
  <g id="Group_1202470" data-name="Group 1202470" transform="translate(-282.051 -14954.057)">
    <g id="Group_1201604" data-name="Group 1201604" transform="translate(39.201 9188.732)">
      <g id="Group_1200292" data-name="Group 1200292" transform="translate(251.85 5771.324)">
        <g transform="matrix(1, 0, 0, 1, -9, -6)" filter="url(#Rectangle_410591)">
          <rect id="Rectangle_410591-2" data-name="Rectangle 410591" width="45.214" height="87.79" rx="10" transform="translate(9 6)" fill="#b7a8f1"/>
        </g>
      </g>
    </g>
    <g id="rete" transform="translate(294.989 14963.479)">
      <g id="Group_1202468" data-name="Group 1202468" transform="translate(9.057 17.057)">
        <path id="Path_1242902" data-name="Path 1242902" d="M120,24h44.414V49.38H120Z" transform="translate(-106.253 -24)" fill="#4e901e"/>
        <path id="Path_1242903" data-name="Path 1242903" d="M182.069,53.287v8.46a5.287,5.287,0,0,0-5.287,5.287H149.287A5.287,5.287,0,0,0,144,61.747v-8.46A5.287,5.287,0,0,0,149.287,48h27.495A5.287,5.287,0,0,0,182.069,53.287Z" transform="translate(-127.08 -44.828)" fill="#91cc04"/>
        <circle id="Ellipse_13349" data-name="Ellipse 13349" cx="5.287" cy="5.287" r="5.287" transform="translate(30.667 7.402)" fill="#ffda44"/>
        <path id="Path_1242904" data-name="Path 1242904" d="M106.617,335.468l4.265,1.341,10.094,3.152-3.152,10.094-2.2-.687a2.114,2.114,0,0,0-1.6.138l-9.183,4.726a2.117,2.117,0,0,1-1.593.135l-22.266-6.953a2.115,2.115,0,0,1-1.388-2.649l.631-2.019a2.115,2.115,0,0,1,2.649-1.388l9.995,3.121a2.116,2.116,0,0,1,1.05-2.465l11.008-6.359A2.11,2.11,0,0,1,106.617,335.468Z" transform="translate(-71.104 -294.212)" fill="#ffdaaa"/>
        <path id="Path_1242905" data-name="Path 1242905" d="M0,0H4.23V14.8H0Z" transform="translate(50.525 43.743) rotate(17.33)" fill="#787680"/>
        <rect id="Rectangle_411724" data-name="Rectangle 411724" width="27.495" height="19.035" rx="9.517" transform="translate(0 17.977)" fill="#91cc04"/>
        <path id="Path_1242906" data-name="Path 1242906" d="M16,192H43.495v4.23H16Z" transform="translate(-16 -169.793)" fill="#3e3d42"/>
        <circle id="Ellipse_13350" data-name="Ellipse 13350" cx="10.575" cy="10.575" r="10.575" transform="translate(42.299 20.092)" fill="#ffda44"/>
      </g>
      <g id="Group_1202469" data-name="Group 1202469" transform="translate(8 16)">
        <path id="Path_1242907" data-name="Path 1242907" d="M119.631,331.766a1.057,1.057,0,0,0-.623-.518l-4.037-1.261a1.057,1.057,0,0,0-1.325.694l-.317,1.014-9.078-2.835-4.264-1.34a3.17,3.17,0,0,0-2.538.279l-10.991,6.349a3.186,3.186,0,0,0-1.565,1.962l-8.652-2.7a3.173,3.173,0,0,0-3.974,2.082l-.631,2.018a3.173,3.173,0,0,0,2.082,3.975l22.267,6.953a3.158,3.158,0,0,0,2.393-.2l9.184-4.726a1.066,1.066,0,0,1,.8-.069l1.187.371-.315,1a1.059,1.059,0,0,0,.694,1.324l4.038,1.261a1.059,1.059,0,0,0,1.325-.694l4.414-14.132a1.062,1.062,0,0,0-.073-.806Zm-10.64,9.652a3.151,3.151,0,0,0-2.4.208l-9.179,4.723a1.055,1.055,0,0,1-.8.067l-22.267-6.953a1.058,1.058,0,0,1-.694-1.325l.631-2.018a1.054,1.054,0,0,1,1.325-.694l9.521,2.973a.132.132,0,0,1,.009.02l.982,1.872a3.173,3.173,0,0,0,4.283,1.338l8.429-4.418a1.057,1.057,0,0,0-.982-1.873l-8.429,4.418A1.06,1.06,0,0,1,88,339.31l-.981-1.873a1.1,1.1,0,0,1-.081-.2,1.059,1.059,0,0,1,.526-1.231l.038-.021,11.008-6.359a1.055,1.055,0,0,1,.845-.093l4.267,1.342,9.08,2.835-2.521,8.075Zm4.595,3.646-2.018-.631.286-.916c.012-.029.024-.057.033-.087l3.151-10.094c.009-.03.017-.061.024-.09l.289-.925,2.018.63Z" transform="translate(-63.099 -286.214)"/>
        <path id="Path_1242908" data-name="Path 1242908" d="M246.345,72a6.345,6.345,0,1,0,6.345,6.345A6.345,6.345,0,0,0,246.345,72Zm0,10.575a4.23,4.23,0,1,1,4.23-4.23,4.23,4.23,0,0,1-4.23,4.23Z" transform="translate(-209.333 -64.598)"/>
        <path id="Path_1242909" data-name="Path 1242909" d="M387.172,211.172h4.23a1.057,1.057,0,1,0,0-2.115h-2.115a1.057,1.057,0,1,0-2.115,0,3.172,3.172,0,1,0,0,6.345h1.983a1.174,1.174,0,0,1,1.19,1.057,1.059,1.059,0,0,1-1.057,1.057h-4.23a1.057,1.057,0,0,0,0,2.115h2.115a1.057,1.057,0,1,0,2.115,0,3.176,3.176,0,0,0,3.172-3.172,3.284,3.284,0,0,0-3.3-3.172h-1.983a1.057,1.057,0,1,1,0-2.115Z" transform="translate(-334.298 -182.62)"/>
        <path id="Path_1242910" data-name="Path 1242910" d="M68.277,37.98V17.057A1.057,1.057,0,0,0,67.219,16H22.8a1.057,1.057,0,0,0-1.057,1.057v16.92H11.172A3.177,3.177,0,0,0,8,37.15v14.8a3.177,3.177,0,0,0,3.172,3.172H34.437a3.177,3.177,0,0,0,3.172-3.172v-8.46H51.1A11.634,11.634,0,1,0,68.277,37.98ZM23.862,18.115h42.3V36.888a11.593,11.593,0,0,0-4.23-.8c-.237,0-.472.008-.7.022a4.229,4.229,0,0,1,2.82-1.08A1.057,1.057,0,0,0,65.1,33.977v-8.46a1.057,1.057,0,0,0-1.057-1.057,4.235,4.235,0,0,1-4.23-4.23,1.057,1.057,0,0,0-1.057-1.057H31.265a1.057,1.057,0,0,0-1.057,1.057,4.235,4.235,0,0,1-4.23,4.23,1.057,1.057,0,0,0-1.057,1.057v8.46H23.862ZM35.495,51.954a1.059,1.059,0,0,1-1.057,1.057H11.172a1.059,1.059,0,0,1-1.057-1.057v-7.4h25.38Zm0-9.517H10.115V40.322h25.38Zm0-4.23H10.115V37.15a1.059,1.059,0,0,1,1.057-1.057H34.437a1.059,1.059,0,0,1,1.057,1.057Zm-1.057-4.23H29.484a6.274,6.274,0,0,0-2.449-.97V26.486a6.36,6.36,0,0,0,5.2-5.2H57.79a6.36,6.36,0,0,0,5.2,5.2v6.522a6.345,6.345,0,0,0-4.74,3.681,11.612,11.612,0,0,0-3,1.517H37.61V37.15a3.177,3.177,0,0,0-3.172-3.172Zm3.172,7.4V40.322H52.966a11.766,11.766,0,0,0-.779,1.057ZM61.932,57.242a9.517,9.517,0,1,1,9.517-9.517A9.517,9.517,0,0,1,61.932,57.242Z" transform="translate(-8 -16)"/>
      </g>
    </g>
  </g>
</svg>
