<svg xmlns="http://www.w3.org/2000/svg" width="856" height="36" viewBox="0 0 856 36">
  <g id="Group_1202360" data-name="Group 1202360" transform="translate(-3822 7576)">
    <rect id="Rectangle_411684" data-name="Rectangle 411684" width="856" height="36" transform="translate(3822 -7576)" fill="#ccf5ec"/>
    <path id="Path_1243624" data-name="Path 1243624" d="M2.292-3.618V0H1.073V-9.242H4.481a3.425,3.425,0,0,1,2.377.774,2.625,2.625,0,0,1,.86,2.05,2.591,2.591,0,0,1-.841,2.073,3.578,3.578,0,0,1-2.409.727Zm0-1h2.19a2.192,2.192,0,0,0,1.5-.46A1.681,1.681,0,0,0,6.5-6.4a1.737,1.737,0,0,0-.521-1.32,2.054,2.054,0,0,0-1.428-.514H2.292Zm14.092.292a5.717,5.717,0,0,1-.457,2.371A3.462,3.462,0,0,1,14.631-.406a3.563,3.563,0,0,1-1.955.533A3.532,3.532,0,0,1,10.74-.409a3.545,3.545,0,0,1-1.311-1.53,5.486,5.486,0,0,1-.479-2.3v-.667a5.649,5.649,0,0,1,.463-2.355,3.532,3.532,0,0,1,1.311-1.565,3.517,3.517,0,0,1,1.939-.543,3.583,3.583,0,0,1,1.958.536,3.455,3.455,0,0,1,1.3,1.555,5.745,5.745,0,0,1,.457,2.371Zm-1.212-.6a4.144,4.144,0,0,0-.66-2.523,2.177,2.177,0,0,0-1.847-.879,2.154,2.154,0,0,0-1.819.879A4.059,4.059,0,0,0,10.163-5v.679a4.15,4.15,0,0,0,.67,2.5,2.163,2.163,0,0,0,1.844.911,2.154,2.154,0,0,0,1.828-.86,4.126,4.126,0,0,0,.667-2.466ZM21.6-3.739H19.43V0H18.205V-9.242h3.06a3.621,3.621,0,0,1,2.4.711,2.558,2.558,0,0,1,.841,2.069,2.488,2.488,0,0,1-.467,1.5,2.785,2.785,0,0,1-1.3.958L24.915-.076V0H23.607Zm-2.171-1H21.3a2.114,2.114,0,0,0,1.444-.47,1.587,1.587,0,0,0,.536-1.257,1.671,1.671,0,0,0-.511-1.314A2.166,2.166,0,0,0,21.3-8.239H19.43Zm12.664-3.5H29.123V0H27.911V-8.239H24.946v-1h7.147Zm5.973,5.827H34.195L33.325,0H32.068L35.6-9.242h1.066L40.2,0h-1.25Zm-3.5-1h3.142L36.131-7.738ZM41.444,0V-9.242h2.609a4.2,4.2,0,0,1,2.133.533,3.606,3.606,0,0,1,1.431,1.517,4.938,4.938,0,0,1,.511,2.26v.59a4.955,4.955,0,0,1-.5,2.292A3.55,3.55,0,0,1,46.182-.54,4.467,4.467,0,0,1,44,0Zm1.219-8.239V-1h1.282a2.791,2.791,0,0,0,2.193-.876,3.617,3.617,0,0,0,.784-2.495v-.54a3.674,3.674,0,0,0-.74-2.447,2.633,2.633,0,0,0-2.1-.885ZM54.939-2.412H51.067L50.2,0H48.94L52.47-9.242h1.066L57.072,0h-1.25Zm-3.5-1h3.142L53-7.738Z" transform="translate(3827.949 -7552.5)" fill="#12263f"/>
    <path id="Path_1243623" data-name="Path 1243623" d="M5.275,1.714H4.329V-9.242h.946ZM16.167-3.942a5.371,5.371,0,0,1-.7,3.066,2.506,2.506,0,0,1-2.2,1,2.524,2.524,0,0,1-2.19-.981,5.1,5.1,0,0,1-.736-2.929V-5.351a5.251,5.251,0,0,1,.7-3.028,2.525,2.525,0,0,1,2.209-.99,2.548,2.548,0,0,1,2.2.955,5.068,5.068,0,0,1,.724,2.948ZM14.993-5.548a4.3,4.3,0,0,0-.419-2.174A1.442,1.442,0,0,0,13.248-8.4a1.423,1.423,0,0,0-1.314.679,4.2,4.2,0,0,0-.425,2.088v1.879a4.372,4.372,0,0,0,.435,2.212,1.439,1.439,0,0,0,1.317.714A1.42,1.42,0,0,0,14.552-1.5a4.214,4.214,0,0,0,.441-2.12ZM21.531,0H20.351V-7.827l-2.368.87V-8.023l3.364-1.263h.184Zm8.182-3.618V0H28.495V-9.242H31.9a3.425,3.425,0,0,1,2.377.774,2.625,2.625,0,0,1,.86,2.05A2.591,2.591,0,0,1,34.3-4.345a3.578,3.578,0,0,1-2.409.727Zm0-1H31.9a2.192,2.192,0,0,0,1.5-.46,1.681,1.681,0,0,0,.521-1.33,1.737,1.737,0,0,0-.521-1.32,2.054,2.054,0,0,0-1.428-.514h-2.26ZM40.682,0a2.467,2.467,0,0,1-.165-.724,2.62,2.62,0,0,1-1.955.851A2.424,2.424,0,0,1,36.9-.448,1.859,1.859,0,0,1,36.245-1.9a1.942,1.942,0,0,1,.816-1.666,3.846,3.846,0,0,1,2.295-.594H40.5V-4.7a1.319,1.319,0,0,0-.368-.981,1.48,1.48,0,0,0-1.085-.365,1.712,1.712,0,0,0-1.054.317.935.935,0,0,0-.425.768H36.385a1.621,1.621,0,0,1,.365-.993,2.491,2.491,0,0,1,.99-.759A3.331,3.331,0,0,1,39.114-7a2.715,2.715,0,0,1,1.86.594,2.141,2.141,0,0,1,.7,1.635v3.161a3.865,3.865,0,0,0,.241,1.5V0ZM38.733-.9a2.064,2.064,0,0,0,1.047-.286,1.728,1.728,0,0,0,.717-.743V-3.333h-.92q-2.158,0-2.158,1.263a1.069,1.069,0,0,0,.368.863A1.415,1.415,0,0,0,38.733-.9Zm8.1-4.919a3.519,3.519,0,0,0-.578-.044,1.547,1.547,0,0,0-1.568.984V0H43.513V-6.868h1.143l.019.793A1.829,1.829,0,0,1,46.313-7a1.2,1.2,0,0,1,.521.089ZM51.9,0a2.467,2.467,0,0,1-.165-.724,2.62,2.62,0,0,1-1.955.851,2.424,2.424,0,0,1-1.666-.574A1.859,1.859,0,0,1,47.461-1.9a1.942,1.942,0,0,1,.816-1.666,3.846,3.846,0,0,1,2.295-.594h1.143V-4.7a1.319,1.319,0,0,0-.368-.981,1.48,1.48,0,0,0-1.085-.365,1.712,1.712,0,0,0-1.054.317.935.935,0,0,0-.425.768H47.6a1.621,1.621,0,0,1,.365-.993,2.491,2.491,0,0,1,.99-.759A3.331,3.331,0,0,1,50.331-7a2.715,2.715,0,0,1,1.86.594,2.141,2.141,0,0,1,.7,1.635v3.161A3.865,3.865,0,0,0,53.13-.1V0ZM49.95-.9A2.064,2.064,0,0,0,51-1.181a1.728,1.728,0,0,0,.717-.743V-3.333h-.92q-2.158,0-2.158,1.263A1.069,1.069,0,0,0,49-1.206,1.415,1.415,0,0,0,49.95-.9ZM51.035-9.75h1.422l-1.7,1.866H49.81Zm4.8,2.882.032.762A2.536,2.536,0,0,1,57.9-7a1.964,1.964,0,0,1,1.961,1.1,2.6,2.6,0,0,1,.892-.8,2.634,2.634,0,0,1,1.3-.3q2.26,0,2.3,2.393V0H63.178V-4.532a1.577,1.577,0,0,0-.336-1.1A1.482,1.482,0,0,0,61.712-6a1.557,1.557,0,0,0-1.085.39,1.584,1.584,0,0,0-.5,1.051V0H58.944V-4.5A1.31,1.31,0,0,0,57.478-6a1.571,1.571,0,0,0-1.581.984V0H54.723V-6.868Zm13.14,7A3,3,0,0,1,66.7-.79a3.4,3.4,0,0,1-.876-2.453v-.216a4.121,4.121,0,0,1,.39-1.825,3.045,3.045,0,0,1,1.092-1.257A2.745,2.745,0,0,1,68.828-7a2.572,2.572,0,0,1,2.082.882,3.82,3.82,0,0,1,.743,2.526V-3.1H67a2.441,2.441,0,0,0,.594,1.641,1.866,1.866,0,0,0,1.444.625,2.045,2.045,0,0,0,1.054-.254,2.648,2.648,0,0,0,.755-.673l.717.559A2.884,2.884,0,0,1,68.974.127ZM68.828-6.03a1.566,1.566,0,0,0-1.193.517,2.515,2.515,0,0,0-.6,1.45h3.44v-.089A2.237,2.237,0,0,0,70-5.538,1.475,1.475,0,0,0,68.828-6.03Zm5.776-2.5v1.663h1.282v.908H74.6V-1.7a.951.951,0,0,0,.171.619.722.722,0,0,0,.584.206,2.843,2.843,0,0,0,.559-.076V0a3.4,3.4,0,0,1-.9.127A1.462,1.462,0,0,1,73.83-.349a2.045,2.045,0,0,1-.4-1.352V-5.96h-1.25v-.908h1.25V-8.531Zm5.973,2.717A3.519,3.519,0,0,0,80-5.859a1.547,1.547,0,0,0-1.568.984V0H77.257V-6.868H78.4l.019.793A1.829,1.829,0,0,1,80.057-7a1.2,1.2,0,0,1,.521.089ZM81.218-3.5a4.057,4.057,0,0,1,.4-1.815,2.96,2.96,0,0,1,1.1-1.244A3.007,3.007,0,0,1,84.335-7a2.9,2.9,0,0,1,2.269.971,3.736,3.736,0,0,1,.866,2.583v.083a4.092,4.092,0,0,1-.384,1.8,2.916,2.916,0,0,1-1.1,1.241,3.041,3.041,0,0,1-1.641.444,2.889,2.889,0,0,1-2.263-.971,3.718,3.718,0,0,1-.866-2.571Zm1.181.14a2.938,2.938,0,0,0,.53,1.834,1.7,1.7,0,0,0,1.419.692,1.686,1.686,0,0,0,1.422-.7A3.213,3.213,0,0,0,86.3-3.5a2.933,2.933,0,0,0-.536-1.831,1.705,1.705,0,0,0-1.425-.7,1.686,1.686,0,0,0-1.4.692A3.189,3.189,0,0,0,82.4-3.358Z" transform="translate(3887.949 -7552.5)" fill="#12263f"/>
    <path id="Path_1243622" data-name="Path 1243622" d="M5.275,1.714H4.329V-9.242h.946ZM16.167-3.942a5.371,5.371,0,0,1-.7,3.066,2.506,2.506,0,0,1-2.2,1,2.524,2.524,0,0,1-2.19-.981,5.1,5.1,0,0,1-.736-2.929V-5.351a5.251,5.251,0,0,1,.7-3.028,2.525,2.525,0,0,1,2.209-.99,2.548,2.548,0,0,1,2.2.955,5.068,5.068,0,0,1,.724,2.948ZM14.993-5.548a4.3,4.3,0,0,0-.419-2.174A1.442,1.442,0,0,0,13.248-8.4a1.423,1.423,0,0,0-1.314.679,4.2,4.2,0,0,0-.425,2.088v1.879a4.372,4.372,0,0,0,.435,2.212,1.439,1.439,0,0,0,1.317.714A1.42,1.42,0,0,0,14.552-1.5a4.214,4.214,0,0,0,.441-2.12ZM23.728,0H17.672V-.844l3.2-3.555a7.6,7.6,0,0,0,.981-1.311,2.188,2.188,0,0,0,.27-1.044,1.658,1.658,0,0,0-.438-1.187A1.531,1.531,0,0,0,20.516-8.4a1.814,1.814,0,0,0-1.362.5,1.9,1.9,0,0,0-.486,1.387H17.494a2.726,2.726,0,0,1,.822-2.063,3.047,3.047,0,0,1,2.2-.787,2.928,2.928,0,0,1,2.038.676,2.306,2.306,0,0,1,.749,1.8,5.287,5.287,0,0,1-1.739,3.25L19.087-.958h4.64ZM29.8,0H28.583V-9.242H29.8Zm3.155-6.868L33-6A2.5,2.5,0,0,1,35.052-7q2.177,0,2.2,2.457V0H36.074V-4.545a1.581,1.581,0,0,0-.34-1.1A1.361,1.361,0,0,0,34.7-6a1.7,1.7,0,0,0-1,.3,2.069,2.069,0,0,0-.673.8V0H31.846V-6.868ZM38.74-3.491a4.037,4.037,0,0,1,.743-2.555A2.375,2.375,0,0,1,41.45-7a2.363,2.363,0,0,1,1.961.889l.057-.762h1.073v6.7a2.794,2.794,0,0,1-.79,2.1,2.916,2.916,0,0,1-2.123.768,3.532,3.532,0,0,1-1.454-.317,2.5,2.5,0,0,1-1.085-.87l.609-.7a2.3,2.3,0,0,0,1.847.933,1.8,1.8,0,0,0,1.336-.482A1.844,1.844,0,0,0,43.361-.1v-.59a2.414,2.414,0,0,1-1.923.813,2.346,2.346,0,0,1-1.952-.971A4.244,4.244,0,0,1,38.74-3.491Zm1.181.133A3.08,3.08,0,0,0,40.4-1.533a1.547,1.547,0,0,0,1.333.663,1.72,1.72,0,0,0,1.631-1.009V-5.015A1.74,1.74,0,0,0,41.742-6a1.561,1.561,0,0,0-1.339.667A3.354,3.354,0,0,0,39.92-3.358Zm9.712-2.457a3.519,3.519,0,0,0-.578-.044,1.547,1.547,0,0,0-1.568.984V0H46.313V-6.868h1.143l.019.793A1.829,1.829,0,0,1,49.112-7a1.2,1.2,0,0,1,.521.089ZM53.441.127A3,3,0,0,1,51.168-.79a3.4,3.4,0,0,1-.876-2.453v-.216a4.121,4.121,0,0,1,.39-1.825,3.045,3.045,0,0,1,1.092-1.257A2.745,2.745,0,0,1,53.295-7a2.572,2.572,0,0,1,2.082.882,3.82,3.82,0,0,1,.743,2.526V-3.1H51.467a2.441,2.441,0,0,0,.594,1.641A1.866,1.866,0,0,0,53.5-.832a2.045,2.045,0,0,0,1.054-.254,2.648,2.648,0,0,0,.755-.673l.717.559A2.884,2.884,0,0,1,53.441.127ZM53.295-6.03a1.566,1.566,0,0,0-1.193.517,2.515,2.515,0,0,0-.6,1.45h3.44v-.089a2.237,2.237,0,0,0-.482-1.387A1.475,1.475,0,0,0,53.295-6.03Zm8.182,4.208a.865.865,0,0,0-.359-.74,3.452,3.452,0,0,0-1.25-.454,5.912,5.912,0,0,1-1.416-.457,2.014,2.014,0,0,1-.774-.635,1.518,1.518,0,0,1-.251-.876,1.782,1.782,0,0,1,.714-1.428A2.789,2.789,0,0,1,59.966-7a2.87,2.87,0,0,1,1.895.6,1.915,1.915,0,0,1,.727,1.542H61.407A1.06,1.06,0,0,0,61-5.681a1.534,1.534,0,0,0-1.031-.349,1.605,1.605,0,0,0-1,.279.879.879,0,0,0-.362.73.712.712,0,0,0,.336.641,4.139,4.139,0,0,0,1.216.413,6.334,6.334,0,0,1,1.425.47,2.079,2.079,0,0,1,.809.657,1.615,1.615,0,0,1,.263.936,1.758,1.758,0,0,1-.736,1.476A3.089,3.089,0,0,1,60,.127a3.459,3.459,0,0,1-1.46-.292,2.375,2.375,0,0,1-.993-.816,1.966,1.966,0,0,1-.359-1.133h1.174a1.216,1.216,0,0,0,.473.936A1.835,1.835,0,0,0,60-.832a1.894,1.894,0,0,0,1.07-.27A.829.829,0,0,0,61.477-1.822ZM63.87-3.5a4.057,4.057,0,0,1,.4-1.815,2.96,2.96,0,0,1,1.1-1.244A3.007,3.007,0,0,1,66.987-7a2.9,2.9,0,0,1,2.269.971,3.736,3.736,0,0,1,.866,2.583v.083a4.092,4.092,0,0,1-.384,1.8,2.916,2.916,0,0,1-1.1,1.241A3.041,3.041,0,0,1,67,.127a2.889,2.889,0,0,1-2.263-.971,3.718,3.718,0,0,1-.866-2.571Zm1.181.14a2.938,2.938,0,0,0,.53,1.834A1.7,1.7,0,0,0,67-.832a1.686,1.686,0,0,0,1.422-.7A3.213,3.213,0,0,0,68.948-3.5a2.933,2.933,0,0,0-.536-1.831,1.705,1.705,0,0,0-1.425-.7,1.686,1.686,0,0,0-1.4.692A3.189,3.189,0,0,0,65.051-3.358ZM75.594-1.822a.864.864,0,0,0-.359-.74,3.452,3.452,0,0,0-1.25-.454,5.912,5.912,0,0,1-1.416-.457,2.014,2.014,0,0,1-.774-.635,1.518,1.518,0,0,1-.251-.876,1.782,1.782,0,0,1,.714-1.428A2.789,2.789,0,0,1,74.083-7a2.87,2.87,0,0,1,1.895.6,1.915,1.915,0,0,1,.727,1.542H75.524a1.06,1.06,0,0,0-.409-.832,1.534,1.534,0,0,0-1.031-.349,1.606,1.606,0,0,0-1,.279.879.879,0,0,0-.362.73.712.712,0,0,0,.336.641,4.139,4.139,0,0,0,1.216.413A6.334,6.334,0,0,1,75.7-3.5a2.079,2.079,0,0,1,.809.657,1.615,1.615,0,0,1,.263.936,1.758,1.758,0,0,1-.736,1.476,3.089,3.089,0,0,1-1.911.555,3.459,3.459,0,0,1-1.46-.292,2.375,2.375,0,0,1-.993-.816,1.966,1.966,0,0,1-.359-1.133h1.174a1.216,1.216,0,0,0,.473.936,1.835,1.835,0,0,0,1.165.346,1.894,1.894,0,0,0,1.07-.27A.829.829,0,0,0,75.594-1.822Z" transform="translate(3977.949 -7552.5)" fill="#12263f"/>
    <path id="Path_1243621" data-name="Path 1243621" d="M5.275,1.714H4.329V-9.242h.946ZM16.167-3.942a5.371,5.371,0,0,1-.7,3.066,2.506,2.506,0,0,1-2.2,1,2.524,2.524,0,0,1-2.19-.981,5.1,5.1,0,0,1-.736-2.929V-5.351a5.251,5.251,0,0,1,.7-3.028,2.525,2.525,0,0,1,2.209-.99,2.548,2.548,0,0,1,2.2.955,5.068,5.068,0,0,1,.724,2.948ZM14.993-5.548a4.3,4.3,0,0,0-.419-2.174A1.442,1.442,0,0,0,13.248-8.4a1.423,1.423,0,0,0-1.314.679,4.2,4.2,0,0,0-.425,2.088v1.879a4.372,4.372,0,0,0,.435,2.212,1.439,1.439,0,0,0,1.317.714A1.42,1.42,0,0,0,14.552-1.5a4.214,4.214,0,0,0,.441-2.12Zm4.386.355h.882a1.939,1.939,0,0,0,1.308-.438,1.463,1.463,0,0,0,.476-1.149A1.434,1.434,0,0,0,20.427-8.4a1.684,1.684,0,0,0-1.216.435,1.522,1.522,0,0,0-.454,1.152H17.583a2.358,2.358,0,0,1,.8-1.825,2.925,2.925,0,0,1,2.041-.727,2.891,2.891,0,0,1,2.05.692,2.5,2.5,0,0,1,.743,1.923,2.029,2.029,0,0,1-.39,1.168,2.357,2.357,0,0,1-1.063.844,2.271,2.271,0,0,1,1.177.8,2.221,2.221,0,0,1,.416,1.365A2.521,2.521,0,0,1,22.547-.6a3.043,3.043,0,0,1-2.114.73,3.123,3.123,0,0,1-2.117-.7,2.337,2.337,0,0,1-.816-1.86h1.181a1.511,1.511,0,0,0,.476,1.168,1.811,1.811,0,0,0,1.276.438,1.777,1.777,0,0,0,1.3-.444,1.712,1.712,0,0,0,.451-1.276,1.554,1.554,0,0,0-.5-1.238,2.157,2.157,0,0,0-1.428-.444h-.882Zm15.914,2.26A3.4,3.4,0,0,1,34.211-.67a3.547,3.547,0,0,1-2.422.8,3.257,3.257,0,0,1-2.625-1.174,4.724,4.724,0,0,1-.987-3.142v-.889a5.266,5.266,0,0,1,.46-2.266,3.438,3.438,0,0,1,1.3-1.5A3.632,3.632,0,0,1,31.9-9.369a3.34,3.34,0,0,1,2.361.822,3.441,3.441,0,0,1,1.035,2.276H34.068a2.644,2.644,0,0,0-.689-1.6,2.088,2.088,0,0,0-1.482-.5,2.181,2.181,0,0,0-1.831.863A3.961,3.961,0,0,0,29.4-5.046v.9a4.071,4.071,0,0,0,.628,2.393,2.031,2.031,0,0,0,1.758.889,2.345,2.345,0,0,0,1.558-.46,2.554,2.554,0,0,0,.72-1.6ZM36.461-3.5a4.057,4.057,0,0,1,.4-1.815,2.96,2.96,0,0,1,1.1-1.244A3.007,3.007,0,0,1,39.578-7a2.9,2.9,0,0,1,2.269.971,3.736,3.736,0,0,1,.866,2.583v.083a4.092,4.092,0,0,1-.384,1.8,2.916,2.916,0,0,1-1.1,1.241A3.041,3.041,0,0,1,39.59.127a2.889,2.889,0,0,1-2.263-.971,3.718,3.718,0,0,1-.866-2.571Zm1.181.14a2.938,2.938,0,0,0,.53,1.834,1.7,1.7,0,0,0,1.419.692,1.686,1.686,0,0,0,1.422-.7A3.213,3.213,0,0,0,41.539-3.5,2.933,2.933,0,0,0,41-5.329a1.705,1.705,0,0,0-1.425-.7,1.686,1.686,0,0,0-1.4.692A3.189,3.189,0,0,0,37.642-3.358ZM48.185-1.822a.865.865,0,0,0-.359-.74,3.452,3.452,0,0,0-1.25-.454,5.912,5.912,0,0,1-1.416-.457,2.014,2.014,0,0,1-.774-.635,1.518,1.518,0,0,1-.251-.876,1.782,1.782,0,0,1,.714-1.428A2.789,2.789,0,0,1,46.674-7a2.87,2.87,0,0,1,1.895.6A1.915,1.915,0,0,1,49.3-4.85H48.115a1.06,1.06,0,0,0-.409-.832,1.534,1.534,0,0,0-1.031-.349,1.605,1.605,0,0,0-1,.279.879.879,0,0,0-.362.73.712.712,0,0,0,.336.641,4.139,4.139,0,0,0,1.216.413,6.334,6.334,0,0,1,1.425.47,2.079,2.079,0,0,1,.809.657,1.615,1.615,0,0,1,.263.936,1.758,1.758,0,0,1-.736,1.476,3.089,3.089,0,0,1-1.911.555,3.459,3.459,0,0,1-1.46-.292,2.375,2.375,0,0,1-.993-.816A1.966,1.966,0,0,1,43.9-2.114h1.174a1.216,1.216,0,0,0,.473.936,1.835,1.835,0,0,0,1.165.346,1.894,1.894,0,0,0,1.07-.27A.829.829,0,0,0,48.185-1.822Zm4.3-6.709v1.663h1.282v.908H52.482V-1.7a.951.951,0,0,0,.171.619.722.722,0,0,0,.584.206A2.843,2.843,0,0,0,53.8-.952V0a3.4,3.4,0,0,1-.9.127,1.462,1.462,0,0,1-1.187-.476,2.045,2.045,0,0,1-.4-1.352V-5.96h-1.25v-.908h1.25V-8.531ZM54.7-3.5a4.057,4.057,0,0,1,.4-1.815,2.96,2.96,0,0,1,1.1-1.244A3.007,3.007,0,0,1,57.814-7a2.9,2.9,0,0,1,2.269.971A3.736,3.736,0,0,1,60.95-3.44v.083a4.092,4.092,0,0,1-.384,1.8,2.916,2.916,0,0,1-1.1,1.241,3.041,3.041,0,0,1-1.641.444,2.889,2.889,0,0,1-2.263-.971A3.718,3.718,0,0,1,54.7-3.415Zm1.181.14a2.938,2.938,0,0,0,.53,1.834,1.7,1.7,0,0,0,1.419.692,1.686,1.686,0,0,0,1.422-.7A3.213,3.213,0,0,0,59.776-3.5a2.933,2.933,0,0,0-.536-1.831,1.705,1.705,0,0,0-1.425-.7,1.686,1.686,0,0,0-1.4.692A3.189,3.189,0,0,0,55.878-3.358ZM66.422-1.822a.864.864,0,0,0-.359-.74,3.452,3.452,0,0,0-1.25-.454A5.912,5.912,0,0,1,63.4-3.472a2.014,2.014,0,0,1-.774-.635,1.518,1.518,0,0,1-.251-.876,1.782,1.782,0,0,1,.714-1.428A2.789,2.789,0,0,1,64.911-7a2.87,2.87,0,0,1,1.895.6,1.915,1.915,0,0,1,.727,1.542H66.352a1.06,1.06,0,0,0-.409-.832,1.534,1.534,0,0,0-1.031-.349,1.606,1.606,0,0,0-1,.279.879.879,0,0,0-.362.73.712.712,0,0,0,.336.641,4.139,4.139,0,0,0,1.216.413,6.334,6.334,0,0,1,1.425.47,2.079,2.079,0,0,1,.809.657A1.615,1.615,0,0,1,67.6-1.9,1.758,1.758,0,0,1,66.86-.428a3.089,3.089,0,0,1-1.911.555,3.459,3.459,0,0,1-1.46-.292A2.375,2.375,0,0,1,62.5-.981a1.966,1.966,0,0,1-.359-1.133h1.174a1.216,1.216,0,0,0,.473.936,1.835,1.835,0,0,0,1.165.346,1.894,1.894,0,0,0,1.07-.27A.829.829,0,0,0,66.422-1.822Zm8.169.1,1.6-5.148h1.257L74.687,1.06q-.641,1.714-2.038,1.714l-.222-.019-.438-.083V1.72l.317.025a1.563,1.563,0,0,0,.93-.241,1.746,1.746,0,0,0,.549-.882l.26-.7L71.6-6.868h1.282ZM81.9,0V-9.242h2.609a4.2,4.2,0,0,1,2.133.533,3.606,3.606,0,0,1,1.431,1.517,4.938,4.938,0,0,1,.511,2.26v.59a4.955,4.955,0,0,1-.5,2.292A3.55,3.55,0,0,1,86.636-.54a4.467,4.467,0,0,1-2.18.54Zm1.219-8.239V-1H84.4a2.791,2.791,0,0,0,2.193-.876,3.617,3.617,0,0,0,.784-2.495v-.54a3.674,3.674,0,0,0-.74-2.447,2.633,2.633,0,0,0-2.1-.885ZM93.088.127A3,3,0,0,1,90.816-.79a3.4,3.4,0,0,1-.876-2.453v-.216a4.121,4.121,0,0,1,.39-1.825,3.045,3.045,0,0,1,1.092-1.257A2.745,2.745,0,0,1,92.942-7a2.572,2.572,0,0,1,2.082.882,3.82,3.82,0,0,1,.743,2.526V-3.1H91.114a2.441,2.441,0,0,0,.594,1.641,1.866,1.866,0,0,0,1.444.625,2.045,2.045,0,0,0,1.054-.254,2.648,2.648,0,0,0,.755-.673l.717.559A2.884,2.884,0,0,1,93.088.127ZM92.942-6.03a1.566,1.566,0,0,0-1.193.517,2.515,2.515,0,0,0-.6,1.45h3.44v-.089a2.237,2.237,0,0,0-.482-1.387A1.475,1.475,0,0,0,92.942-6.03Zm3.9,2.539a4.023,4.023,0,0,1,.749-2.542A2.369,2.369,0,0,1,99.55-7a2.382,2.382,0,0,1,1.911.825V-9.75h1.174V0h-1.079L101.5-.736a2.391,2.391,0,0,1-1.961.863,2.346,2.346,0,0,1-1.946-.978A4.069,4.069,0,0,1,96.84-3.4Zm1.174.133A3.046,3.046,0,0,0,98.5-1.53a1.56,1.56,0,0,0,1.333.66,1.713,1.713,0,0,0,1.631-1V-5.027A1.726,1.726,0,0,0,99.842-6a1.567,1.567,0,0,0-1.346.667A3.354,3.354,0,0,0,98.014-3.358ZM108.7-.679a2.494,2.494,0,0,1-2.012.806,2.135,2.135,0,0,1-1.673-.638,2.761,2.761,0,0,1-.581-1.888V-6.868h1.174v4.437q0,1.562,1.27,1.562a1.758,1.758,0,0,0,1.79-1v-5h1.174V0h-1.117Zm5.681-.152a1.691,1.691,0,0,0,1.1-.381A1.34,1.34,0,0,0,116-2.165h1.111a2.13,2.13,0,0,1-.406,1.124,2.676,2.676,0,0,1-1,.851,2.885,2.885,0,0,1-1.323.317,2.829,2.829,0,0,1-2.231-.936,3.729,3.729,0,0,1-.828-2.561v-.2a4.135,4.135,0,0,1,.368-1.784,2.8,2.8,0,0,1,1.057-1.212A3,3,0,0,1,114.372-7a2.755,2.755,0,0,1,1.92.692,2.473,2.473,0,0,1,.816,1.8H116a1.618,1.618,0,0,0-.5-1.095,1.57,1.57,0,0,0-1.12-.428,1.644,1.644,0,0,0-1.387.644,3.026,3.026,0,0,0-.492,1.863V-3.3a2.966,2.966,0,0,0,.489,1.828A1.651,1.651,0,0,0,114.378-.832Zm6.8,0a1.691,1.691,0,0,0,1.1-.381,1.34,1.34,0,0,0,.521-.952h1.111a2.13,2.13,0,0,1-.406,1.124,2.676,2.676,0,0,1-1,.851,2.885,2.885,0,0,1-1.323.317,2.829,2.829,0,0,1-2.231-.936,3.729,3.729,0,0,1-.828-2.561v-.2a4.135,4.135,0,0,1,.368-1.784,2.8,2.8,0,0,1,1.057-1.212A3,3,0,0,1,121.177-7a2.755,2.755,0,0,1,1.92.692,2.473,2.473,0,0,1,.816,1.8H122.8a1.618,1.618,0,0,0-.5-1.095,1.57,1.57,0,0,0-1.12-.428,1.644,1.644,0,0,0-1.387.644,3.026,3.026,0,0,0-.492,1.863V-3.3a2.966,2.966,0,0,0,.489,1.828A1.651,1.651,0,0,0,121.183-.832ZM126.509,0h-1.174V-6.868h1.174Zm-1.27-8.69a.7.7,0,0,1,.175-.482.655.655,0,0,1,.517-.2.666.666,0,0,1,.521.2.694.694,0,0,1,.178.482.671.671,0,0,1-.178.476.678.678,0,0,1-.521.19.667.667,0,0,1-.517-.19A.678.678,0,0,1,125.239-8.69ZM128.077-3.5a4.057,4.057,0,0,1,.4-1.815,2.959,2.959,0,0,1,1.1-1.244A3.007,3.007,0,0,1,131.193-7a2.9,2.9,0,0,1,2.269.971,3.736,3.736,0,0,1,.866,2.583v.083a4.092,4.092,0,0,1-.384,1.8,2.916,2.916,0,0,1-1.1,1.241,3.041,3.041,0,0,1-1.641.444,2.889,2.889,0,0,1-2.263-.971,3.718,3.718,0,0,1-.866-2.571Zm1.181.14a2.938,2.938,0,0,0,.53,1.834,1.7,1.7,0,0,0,1.419.692,1.686,1.686,0,0,0,1.422-.7,3.213,3.213,0,0,0,.527-1.965,2.933,2.933,0,0,0-.536-1.831,1.705,1.705,0,0,0-1.425-.7,1.686,1.686,0,0,0-1.4.692A3.189,3.189,0,0,0,129.257-3.358Zm7.655-3.51.038.863A2.5,2.5,0,0,1,139.007-7q2.177,0,2.2,2.457V0h-1.174V-4.545a1.581,1.581,0,0,0-.34-1.1A1.361,1.361,0,0,0,138.652-6a1.7,1.7,0,0,0-1,.3,2.069,2.069,0,0,0-.673.8V0H135.8V-6.868Zm8.912,7a3,3,0,0,1-2.272-.917,3.4,3.4,0,0,1-.876-2.453v-.216a4.121,4.121,0,0,1,.39-1.825,3.045,3.045,0,0,1,1.092-1.257A2.745,2.745,0,0,1,145.679-7a2.572,2.572,0,0,1,2.082.882,3.82,3.82,0,0,1,.743,2.526V-3.1h-4.653a2.441,2.441,0,0,0,.594,1.641,1.866,1.866,0,0,0,1.444.625,2.045,2.045,0,0,0,1.054-.254,2.647,2.647,0,0,0,.755-.673l.717.559A2.884,2.884,0,0,1,145.825.127Zm-.146-6.157a1.566,1.566,0,0,0-1.193.517,2.515,2.515,0,0,0-.6,1.45h3.44v-.089a2.237,2.237,0,0,0-.482-1.387A1.475,1.475,0,0,0,145.679-6.03Zm8.182,4.208a.865.865,0,0,0-.359-.74,3.452,3.452,0,0,0-1.25-.454,5.912,5.912,0,0,1-1.416-.457,2.014,2.014,0,0,1-.774-.635,1.518,1.518,0,0,1-.251-.876,1.782,1.782,0,0,1,.714-1.428A2.789,2.789,0,0,1,152.35-7a2.87,2.87,0,0,1,1.895.6,1.915,1.915,0,0,1,.727,1.542h-1.181a1.06,1.06,0,0,0-.409-.832,1.534,1.534,0,0,0-1.031-.349,1.605,1.605,0,0,0-1,.279.879.879,0,0,0-.362.73.712.712,0,0,0,.336.641,4.139,4.139,0,0,0,1.216.413,6.334,6.334,0,0,1,1.425.47,2.079,2.079,0,0,1,.809.657,1.615,1.615,0,0,1,.263.936A1.758,1.758,0,0,1,154.3-.428a3.089,3.089,0,0,1-1.911.555,3.459,3.459,0,0,1-1.46-.292,2.375,2.375,0,0,1-.993-.816,1.966,1.966,0,0,1-.359-1.133h1.174a1.216,1.216,0,0,0,.473.936,1.835,1.835,0,0,0,1.165.346,1.894,1.894,0,0,0,1.07-.27A.829.829,0,0,0,153.861-1.822Z" transform="translate(4058.199 -7552.5)" fill="#12263f"/>
    <path id="Path_1243620" data-name="Path 1243620" d="M5.275,1.714H4.329V-9.242h.946ZM16.167-3.942a5.371,5.371,0,0,1-.7,3.066,2.506,2.506,0,0,1-2.2,1,2.524,2.524,0,0,1-2.19-.981,5.1,5.1,0,0,1-.736-2.929V-5.351a5.251,5.251,0,0,1,.7-3.028,2.525,2.525,0,0,1,2.209-.99,2.548,2.548,0,0,1,2.2.955,5.068,5.068,0,0,1,.724,2.948ZM14.993-5.548a4.3,4.3,0,0,0-.419-2.174A1.442,1.442,0,0,0,13.248-8.4a1.423,1.423,0,0,0-1.314.679,4.2,4.2,0,0,0-.425,2.088v1.879a4.372,4.372,0,0,0,.435,2.212,1.439,1.439,0,0,0,1.317.714A1.42,1.42,0,0,0,14.552-1.5a4.214,4.214,0,0,0,.441-2.12ZM22.629-3.1h1.282v.958H22.629V0H21.449V-2.146H17.24v-.692l4.139-6.4h1.25Zm-4.056,0h2.875V-7.636l-.14.254ZM28.495,0V-9.242h3.021a3.507,3.507,0,0,1,2.263.622,2.242,2.242,0,0,1,.759,1.841,1.877,1.877,0,0,1-.368,1.146,2.387,2.387,0,0,1-1,.771,2.143,2.143,0,0,1,1.184.8,2.286,2.286,0,0,1,.435,1.4,2.472,2.472,0,0,1-.806,1.955A3.334,3.334,0,0,1,31.7,0Zm1.219-4.323V-1h2.012a1.938,1.938,0,0,0,1.343-.441,1.549,1.549,0,0,0,.492-1.216q0-1.669-1.815-1.669Zm0-.978h1.841a1.932,1.932,0,0,0,1.279-.4,1.339,1.339,0,0,0,.479-1.085,1.317,1.317,0,0,0-.444-1.108,2.186,2.186,0,0,0-1.352-.346h-1.8ZM39.254.127A3,3,0,0,1,36.981-.79a3.4,3.4,0,0,1-.876-2.453v-.216a4.121,4.121,0,0,1,.39-1.825,3.045,3.045,0,0,1,1.092-1.257A2.745,2.745,0,0,1,39.108-7a2.572,2.572,0,0,1,2.082.882,3.82,3.82,0,0,1,.743,2.526V-3.1H37.28a2.441,2.441,0,0,0,.594,1.641,1.866,1.866,0,0,0,1.444.625,2.045,2.045,0,0,0,1.054-.254,2.648,2.648,0,0,0,.755-.673l.717.559A2.884,2.884,0,0,1,39.254.127ZM39.108-6.03a1.566,1.566,0,0,0-1.193.517,2.515,2.515,0,0,0-.6,1.45h3.44v-.089a2.237,2.237,0,0,0-.482-1.387A1.475,1.475,0,0,0,39.108-6.03ZM44.4-6.868,44.44-6A2.5,2.5,0,0,1,46.5-7q2.177,0,2.2,2.457V0H47.519V-4.545a1.581,1.581,0,0,0-.34-1.1A1.361,1.361,0,0,0,46.141-6a1.7,1.7,0,0,0-1,.3,2.069,2.069,0,0,0-.673.8V0H43.291V-6.868Zm8.912,7A3,3,0,0,1,51.042-.79a3.4,3.4,0,0,1-.876-2.453v-.216a4.121,4.121,0,0,1,.39-1.825,3.045,3.045,0,0,1,1.092-1.257A2.745,2.745,0,0,1,53.168-7a2.572,2.572,0,0,1,2.082.882,3.82,3.82,0,0,1,.743,2.526V-3.1H51.34a2.441,2.441,0,0,0,.594,1.641,1.866,1.866,0,0,0,1.444.625,2.045,2.045,0,0,0,1.054-.254,2.648,2.648,0,0,0,.755-.673L55.9-1.2A2.884,2.884,0,0,1,53.314.127ZM53.168-6.03a1.566,1.566,0,0,0-1.193.517,2.515,2.515,0,0,0-.6,1.45h3.44v-.089a2.237,2.237,0,0,0-.482-1.387A1.475,1.475,0,0,0,53.168-6.03ZM57.745,0V-5.96H56.659v-.908h1.085v-.584a2.386,2.386,0,0,1,.657-1.79,2.548,2.548,0,0,1,1.857-.641,5.591,5.591,0,0,1,1.8.387l-.2.99a4.069,4.069,0,0,0-1.511-.317,1.478,1.478,0,0,0-1.089.34,1.4,1.4,0,0,0-.333,1.019v.6h1.4v.908h-1.4V0Zm4.894,0H61.458V-6.868h1.181ZM67.3-.832a1.691,1.691,0,0,0,1.1-.381,1.34,1.34,0,0,0,.521-.952h1.111a2.13,2.13,0,0,1-.406,1.124,2.676,2.676,0,0,1-1,.851A2.885,2.885,0,0,1,67.3.127a2.829,2.829,0,0,1-2.231-.936,3.729,3.729,0,0,1-.828-2.561v-.2a4.135,4.135,0,0,1,.368-1.784A2.8,2.8,0,0,1,65.67-6.563,3,3,0,0,1,67.3-7a2.755,2.755,0,0,1,1.92.692,2.473,2.473,0,0,1,.816,1.8H68.923a1.618,1.618,0,0,0-.5-1.095A1.57,1.57,0,0,0,67.3-6.03a1.644,1.644,0,0,0-1.387.644,3.026,3.026,0,0,0-.492,1.863V-3.3a2.966,2.966,0,0,0,.489,1.828A1.651,1.651,0,0,0,67.3-.832ZM72.63,0H71.456V-6.868H72.63ZM71.36-8.69a.7.7,0,0,1,.175-.482.655.655,0,0,1,.517-.2.666.666,0,0,1,.521.2.694.694,0,0,1,.178.482.671.671,0,0,1-.178.476.678.678,0,0,1-.521.19.667.667,0,0,1-.517-.19A.678.678,0,0,1,71.36-8.69ZM74.2-3.5a4.057,4.057,0,0,1,.4-1.815,2.96,2.96,0,0,1,1.1-1.244A3.007,3.007,0,0,1,77.314-7a2.9,2.9,0,0,1,2.269.971A3.736,3.736,0,0,1,80.45-3.44v.083a4.092,4.092,0,0,1-.384,1.8,2.916,2.916,0,0,1-1.1,1.241,3.041,3.041,0,0,1-1.641.444,2.889,2.889,0,0,1-2.263-.971A3.718,3.718,0,0,1,74.2-3.415Zm1.181.14a2.938,2.938,0,0,0,.53,1.834,1.7,1.7,0,0,0,1.419.692,1.686,1.686,0,0,0,1.422-.7A3.213,3.213,0,0,0,79.276-3.5a2.933,2.933,0,0,0-.536-1.831,1.705,1.705,0,0,0-1.425-.7,1.686,1.686,0,0,0-1.4.692A3.189,3.189,0,0,0,75.378-3.358ZM85.922-1.822a.864.864,0,0,0-.359-.74,3.452,3.452,0,0,0-1.25-.454A5.912,5.912,0,0,1,82.9-3.472a2.014,2.014,0,0,1-.774-.635,1.518,1.518,0,0,1-.251-.876,1.782,1.782,0,0,1,.714-1.428A2.789,2.789,0,0,1,84.411-7a2.87,2.87,0,0,1,1.895.6,1.915,1.915,0,0,1,.727,1.542H85.852a1.06,1.06,0,0,0-.409-.832,1.534,1.534,0,0,0-1.031-.349,1.606,1.606,0,0,0-1,.279.879.879,0,0,0-.362.73.712.712,0,0,0,.336.641,4.139,4.139,0,0,0,1.216.413,6.334,6.334,0,0,1,1.425.47,2.079,2.079,0,0,1,.809.657A1.615,1.615,0,0,1,87.1-1.9,1.758,1.758,0,0,1,86.36-.428a3.089,3.089,0,0,1-1.911.555,3.459,3.459,0,0,1-1.46-.292A2.375,2.375,0,0,1,82-.981a1.966,1.966,0,0,1-.359-1.133h1.174a1.216,1.216,0,0,0,.473.936,1.835,1.835,0,0,0,1.165.346,1.894,1.894,0,0,0,1.07-.27A.829.829,0,0,0,85.922-1.822Z" transform="translate(4217.449 -7552.5)" fill="#12263f"/>
    <path id="Path_1243619" data-name="Path 1243619" d="M5.275,1.714H4.329V-9.242h.946ZM16.167-3.942a5.371,5.371,0,0,1-.7,3.066,2.506,2.506,0,0,1-2.2,1,2.524,2.524,0,0,1-2.19-.981,5.1,5.1,0,0,1-.736-2.929V-5.351a5.251,5.251,0,0,1,.7-3.028,2.525,2.525,0,0,1,2.209-.99,2.548,2.548,0,0,1,2.2.955,5.068,5.068,0,0,1,.724,2.948ZM14.993-5.548a4.3,4.3,0,0,0-.419-2.174A1.442,1.442,0,0,0,13.248-8.4a1.423,1.423,0,0,0-1.314.679,4.2,4.2,0,0,0-.425,2.088v1.879a4.372,4.372,0,0,0,.435,2.212,1.439,1.439,0,0,0,1.317.714A1.42,1.42,0,0,0,14.552-1.5a4.214,4.214,0,0,0,.441-2.12Zm3.218.914.47-4.608h4.735v1.085H19.678L19.4-5.637a2.982,2.982,0,0,1,1.542-.4,2.55,2.55,0,0,1,2.006.835,3.271,3.271,0,0,1,.743,2.257A3.158,3.158,0,0,1,22.918-.7a2.811,2.811,0,0,1-2.155.822,2.921,2.921,0,0,1-2-.679,2.711,2.711,0,0,1-.882-1.879h1.111a1.865,1.865,0,0,0,.565,1.2,1.757,1.757,0,0,0,1.206.4,1.585,1.585,0,0,0,1.285-.559,2.335,2.335,0,0,0,.467-1.542,2.143,2.143,0,0,0-.5-1.489,1.717,1.717,0,0,0-1.343-.562,1.936,1.936,0,0,0-1.206.336l-.311.254Zm13.673.9H29.713V0H28.488V-9.242h3.06a3.621,3.621,0,0,1,2.4.711,2.558,2.558,0,0,1,.841,2.069,2.488,2.488,0,0,1-.467,1.5,2.785,2.785,0,0,1-1.3.958L35.2-.076V0H33.89Zm-2.171-1h1.873a2.114,2.114,0,0,0,1.444-.47,1.587,1.587,0,0,0,.536-1.257,1.671,1.671,0,0,0-.511-1.314,2.166,2.166,0,0,0-1.476-.463H29.713ZM39.165.127A3,3,0,0,1,36.893-.79a3.4,3.4,0,0,1-.876-2.453v-.216a4.121,4.121,0,0,1,.39-1.825A3.045,3.045,0,0,1,37.5-6.541,2.745,2.745,0,0,1,39.019-7a2.572,2.572,0,0,1,2.082.882,3.82,3.82,0,0,1,.743,2.526V-3.1H37.191a2.441,2.441,0,0,0,.594,1.641,1.866,1.866,0,0,0,1.444.625,2.045,2.045,0,0,0,1.054-.254,2.648,2.648,0,0,0,.755-.673l.717.559A2.884,2.884,0,0,1,39.165.127ZM39.019-6.03a1.566,1.566,0,0,0-1.193.517,2.515,2.515,0,0,0-.6,1.45h3.44v-.089a2.237,2.237,0,0,0-.482-1.387A1.475,1.475,0,0,0,39.019-6.03Zm5.776-2.5v1.663h1.282v.908H44.8V-1.7a.951.951,0,0,0,.171.619.722.722,0,0,0,.584.206,2.843,2.843,0,0,0,.559-.076V0a3.4,3.4,0,0,1-.9.127,1.462,1.462,0,0,1-1.187-.476,2.045,2.045,0,0,1-.4-1.352V-5.96h-1.25v-.908h1.25V-8.531ZM50.3.127A3,3,0,0,1,48.026-.79a3.4,3.4,0,0,1-.876-2.453v-.216a4.121,4.121,0,0,1,.39-1.825,3.045,3.045,0,0,1,1.092-1.257A2.745,2.745,0,0,1,50.153-7a2.572,2.572,0,0,1,2.082.882,3.82,3.82,0,0,1,.743,2.526V-3.1H48.325a2.441,2.441,0,0,0,.594,1.641,1.866,1.866,0,0,0,1.444.625,2.045,2.045,0,0,0,1.054-.254,2.648,2.648,0,0,0,.755-.673l.717.559A2.884,2.884,0,0,1,50.3.127ZM50.153-6.03a1.566,1.566,0,0,0-1.193.517,2.515,2.515,0,0,0-.6,1.45H51.8v-.089a2.237,2.237,0,0,0-.482-1.387A1.475,1.475,0,0,0,50.153-6.03Zm5.294-.838L55.485-6A2.5,2.5,0,0,1,57.542-7q2.177,0,2.2,2.457V0H58.563V-4.545a1.581,1.581,0,0,0-.34-1.1A1.361,1.361,0,0,0,57.186-6a1.7,1.7,0,0,0-1,.3,2.069,2.069,0,0,0-.673.8V0H54.336V-6.868ZM64.264-.832a1.691,1.691,0,0,0,1.1-.381,1.34,1.34,0,0,0,.521-.952h1.111a2.13,2.13,0,0,1-.406,1.124,2.676,2.676,0,0,1-1,.851,2.885,2.885,0,0,1-1.323.317,2.829,2.829,0,0,1-2.231-.936A3.729,3.729,0,0,1,61.2-3.371v-.2a4.135,4.135,0,0,1,.368-1.784,2.8,2.8,0,0,1,1.057-1.212A3,3,0,0,1,64.257-7a2.755,2.755,0,0,1,1.92.692,2.473,2.473,0,0,1,.816,1.8H65.882a1.618,1.618,0,0,0-.5-1.095,1.57,1.57,0,0,0-1.12-.428,1.644,1.644,0,0,0-1.387.644,3.026,3.026,0,0,0-.492,1.863V-3.3a2.965,2.965,0,0,0,.489,1.828A1.651,1.651,0,0,0,64.264-.832ZM69.589,0H68.415V-6.868h1.174ZM68.32-8.69a.7.7,0,0,1,.175-.482.655.655,0,0,1,.517-.2.666.666,0,0,1,.521.2.694.694,0,0,1,.178.482.671.671,0,0,1-.178.476.678.678,0,0,1-.521.19.667.667,0,0,1-.517-.19A.678.678,0,0,1,68.32-8.69ZM71.157-3.5a4.057,4.057,0,0,1,.4-1.815,2.96,2.96,0,0,1,1.1-1.244A3.007,3.007,0,0,1,74.274-7a2.9,2.9,0,0,1,2.269.971A3.736,3.736,0,0,1,77.41-3.44v.083a4.092,4.092,0,0,1-.384,1.8,2.916,2.916,0,0,1-1.1,1.241,3.041,3.041,0,0,1-1.641.444,2.889,2.889,0,0,1-2.263-.971,3.718,3.718,0,0,1-.866-2.571Zm1.181.14a2.938,2.938,0,0,0,.53,1.834,1.7,1.7,0,0,0,1.419.692,1.686,1.686,0,0,0,1.422-.7A3.213,3.213,0,0,0,76.235-3.5,2.933,2.933,0,0,0,75.7-5.329a1.705,1.705,0,0,0-1.425-.7,1.686,1.686,0,0,0-1.4.692A3.189,3.189,0,0,0,72.338-3.358Zm7.655-3.51L80.031-6A2.5,2.5,0,0,1,82.088-7q2.177,0,2.2,2.457V0H83.11V-4.545a1.581,1.581,0,0,0-.34-1.1A1.361,1.361,0,0,0,81.732-6a1.7,1.7,0,0,0-1,.3,2.069,2.069,0,0,0-.673.8V0H78.882V-6.868Zm8.912,7A3,3,0,0,1,86.633-.79a3.4,3.4,0,0,1-.876-2.453v-.216a4.121,4.121,0,0,1,.39-1.825,3.045,3.045,0,0,1,1.092-1.257A2.745,2.745,0,0,1,88.759-7a2.572,2.572,0,0,1,2.082.882,3.82,3.82,0,0,1,.743,2.526V-3.1H86.931a2.441,2.441,0,0,0,.594,1.641,1.866,1.866,0,0,0,1.444.625,2.045,2.045,0,0,0,1.054-.254,2.648,2.648,0,0,0,.755-.673L91.5-1.2A2.884,2.884,0,0,1,88.905.127ZM88.759-6.03a1.566,1.566,0,0,0-1.193.517,2.515,2.515,0,0,0-.6,1.45h3.44v-.089a2.237,2.237,0,0,0-.482-1.387A1.475,1.475,0,0,0,88.759-6.03Zm8.182,4.208a.864.864,0,0,0-.359-.74,3.452,3.452,0,0,0-1.25-.454,5.912,5.912,0,0,1-1.416-.457,2.014,2.014,0,0,1-.774-.635,1.518,1.518,0,0,1-.251-.876,1.782,1.782,0,0,1,.714-1.428A2.789,2.789,0,0,1,95.431-7a2.87,2.87,0,0,1,1.895.6,1.915,1.915,0,0,1,.727,1.542H96.872a1.06,1.06,0,0,0-.409-.832,1.534,1.534,0,0,0-1.031-.349,1.606,1.606,0,0,0-1,.279.879.879,0,0,0-.362.73.712.712,0,0,0,.336.641,4.139,4.139,0,0,0,1.216.413,6.334,6.334,0,0,1,1.425.47,2.079,2.079,0,0,1,.809.657,1.615,1.615,0,0,1,.263.936,1.758,1.758,0,0,1-.736,1.476,3.089,3.089,0,0,1-1.911.555,3.459,3.459,0,0,1-1.46-.292,2.375,2.375,0,0,1-.993-.816,1.966,1.966,0,0,1-.359-1.133h1.174a1.216,1.216,0,0,0,.473.936,1.835,1.835,0,0,0,1.165.346,1.894,1.894,0,0,0,1.07-.27A.829.829,0,0,0,96.941-1.822Z" transform="translate(4308.699 -7552.5)" fill="#12263f"/>
    <path id="Path_1243618" data-name="Path 1243618" d="M2.057,1.714H1.111V-9.242h.946ZM12.949-3.942a5.371,5.371,0,0,1-.7,3.066,2.506,2.506,0,0,1-2.2,1,2.524,2.524,0,0,1-2.19-.981,5.1,5.1,0,0,1-.736-2.929V-5.351a5.251,5.251,0,0,1,.7-3.028,2.525,2.525,0,0,1,2.209-.99,2.548,2.548,0,0,1,2.2.955,5.068,5.068,0,0,1,.724,2.948ZM11.775-5.548a4.3,4.3,0,0,0-.419-2.174A1.442,1.442,0,0,0,10.029-8.4a1.423,1.423,0,0,0-1.314.679A4.2,4.2,0,0,0,8.29-5.637v1.879a4.372,4.372,0,0,0,.435,2.212,1.439,1.439,0,0,0,1.317.714A1.42,1.42,0,0,0,11.334-1.5a4.214,4.214,0,0,0,.441-2.12Zm7.287-3.7v1h-.216a3.092,3.092,0,0,0-2.184.813,3.381,3.381,0,0,0-.939,2.215,2.507,2.507,0,0,1,1.993-.838,2.4,2.4,0,0,1,1.927.851,3.281,3.281,0,0,1,.72,2.2A3.27,3.27,0,0,1,19.586-.73,2.678,2.678,0,0,1,17.5.127,2.638,2.638,0,0,1,15.349-.892a4.038,4.038,0,0,1-.825-2.625v-.451a6.084,6.084,0,0,1,1.089-3.9,4,4,0,0,1,3.24-1.381ZM17.52-5.084a1.874,1.874,0,0,0-1.111.362,1.885,1.885,0,0,0-.7.908v.432a3.032,3.032,0,0,0,.514,1.841,1.541,1.541,0,0,0,1.282.7,1.493,1.493,0,0,0,1.247-.584,2.423,2.423,0,0,0,.454-1.53,2.424,2.424,0,0,0-.46-1.539A1.475,1.475,0,0,0,17.52-5.084ZM30.38-2.412H26.508L25.638,0H24.381l3.529-9.242h1.066L32.513,0h-1.25Zm-3.5-1h3.142L28.444-7.738Zm7.808-3.453L34.722-6A2.5,2.5,0,0,1,36.778-7q2.177,0,2.2,2.457V0H37.8V-4.545a1.581,1.581,0,0,0-.34-1.1A1.361,1.361,0,0,0,36.423-6a1.7,1.7,0,0,0-1,.3,2.069,2.069,0,0,0-.673.8V0H33.573V-6.868Zm7.655-1.663v1.663h1.282v.908H42.339V-1.7a.951.951,0,0,0,.171.619.722.722,0,0,0,.584.206,2.843,2.843,0,0,0,.559-.076V0a3.4,3.4,0,0,1-.9.127,1.462,1.462,0,0,1-1.187-.476,2.045,2.045,0,0,1-.4-1.352V-5.96h-1.25v-.908h1.25V-8.531ZM46.268,0H45.094V-6.868h1.174ZM45-8.69a.7.7,0,0,1,.175-.482.655.655,0,0,1,.517-.2.666.666,0,0,1,.521.2.694.694,0,0,1,.178.482.671.671,0,0,1-.178.476.678.678,0,0,1-.521.19.667.667,0,0,1-.517-.19A.678.678,0,0,1,45-8.69ZM50.9-.832A1.692,1.692,0,0,0,52-1.212a1.34,1.34,0,0,0,.521-.952h1.111a2.13,2.13,0,0,1-.406,1.124,2.676,2.676,0,0,1-1,.851A2.885,2.885,0,0,1,50.9.127a2.829,2.829,0,0,1-2.231-.936,3.729,3.729,0,0,1-.828-2.561v-.2a4.135,4.135,0,0,1,.368-1.784,2.8,2.8,0,0,1,1.057-1.212A3,3,0,0,1,50.9-7a2.755,2.755,0,0,1,1.92.692,2.473,2.473,0,0,1,.816,1.8H52.521a1.618,1.618,0,0,0-.5-1.095A1.57,1.57,0,0,0,50.9-6.03a1.644,1.644,0,0,0-1.387.644,3.026,3.026,0,0,0-.492,1.863V-3.3a2.965,2.965,0,0,0,.489,1.828A1.651,1.651,0,0,0,50.9-.832ZM56.228,0H55.053V-6.868h1.174Zm-1.27-8.69a.7.7,0,0,1,.175-.482.655.655,0,0,1,.517-.2.666.666,0,0,1,.521.2.694.694,0,0,1,.178.482.671.671,0,0,1-.178.476.678.678,0,0,1-.521.19.667.667,0,0,1-.517-.19A.678.678,0,0,1,54.958-8.69Zm8.95,5.332a4.113,4.113,0,0,1-.717,2.526,2.3,2.3,0,0,1-1.942.958,2.519,2.519,0,0,1-1.968-.793V2.641H58.106V-6.868h1.073l.057.762A2.419,2.419,0,0,1,61.229-7a2.342,2.342,0,0,1,1.958.933,4.157,4.157,0,0,1,.72,2.6Zm-1.174-.133a3.035,3.035,0,0,0-.5-1.834A1.6,1.6,0,0,0,60.88-6a1.726,1.726,0,0,0-1.6.946v3.282a1.73,1.73,0,0,0,1.612.939,1.587,1.587,0,0,0,1.343-.67A3.312,3.312,0,0,0,62.734-3.491ZM65.089-3.5a4.057,4.057,0,0,1,.4-1.815,2.96,2.96,0,0,1,1.1-1.244A3.007,3.007,0,0,1,68.206-7a2.9,2.9,0,0,1,2.269.971,3.736,3.736,0,0,1,.866,2.583v.083a4.092,4.092,0,0,1-.384,1.8,2.916,2.916,0,0,1-1.1,1.241,3.041,3.041,0,0,1-1.641.444,2.889,2.889,0,0,1-2.263-.971,3.718,3.718,0,0,1-.866-2.571Zm1.181.14a2.938,2.938,0,0,0,.53,1.834,1.7,1.7,0,0,0,1.419.692,1.686,1.686,0,0,0,1.422-.7A3.213,3.213,0,0,0,70.167-3.5a2.933,2.933,0,0,0-.536-1.831,1.705,1.705,0,0,0-1.425-.7,1.686,1.686,0,0,0-1.4.692A3.189,3.189,0,0,0,66.27-3.358Z" transform="translate(4414.949 -7552.5)" fill="#12263f"/>
    <path id="Path_1243617" data-name="Path 1243617" d="M2.057,1.714H1.111V-9.242h.946ZM12.949-3.942a5.371,5.371,0,0,1-.7,3.066,2.506,2.506,0,0,1-2.2,1,2.524,2.524,0,0,1-2.19-.981,5.1,5.1,0,0,1-.736-2.929V-5.351a5.251,5.251,0,0,1,.7-3.028,2.525,2.525,0,0,1,2.209-.99,2.548,2.548,0,0,1,2.2.955,5.068,5.068,0,0,1,.724,2.948ZM11.775-5.548a4.3,4.3,0,0,0-.419-2.174A1.442,1.442,0,0,0,10.029-8.4a1.423,1.423,0,0,0-1.314.679A4.2,4.2,0,0,0,8.29-5.637v1.879a4.372,4.372,0,0,0,.435,2.212,1.439,1.439,0,0,0,1.317.714A1.42,1.42,0,0,0,11.334-1.5a4.214,4.214,0,0,0,.441-2.12ZM20.42-8.582,16.593,0H15.361l3.815-8.277h-5v-.965H20.42Zm8.246,4.843H26.5V0H25.27V-9.242h3.06a3.621,3.621,0,0,1,2.4.711,2.558,2.558,0,0,1,.841,2.069,2.488,2.488,0,0,1-.467,1.5,2.785,2.785,0,0,1-1.3.958L31.979-.076V0H30.672Zm-2.171-1h1.873a2.114,2.114,0,0,0,1.444-.47,1.587,1.587,0,0,0,.536-1.257,1.671,1.671,0,0,0-.511-1.314,2.166,2.166,0,0,0-1.476-.463H26.5ZM35.947.127A3,3,0,0,1,33.674-.79,3.4,3.4,0,0,1,32.8-3.244v-.216a4.121,4.121,0,0,1,.39-1.825,3.045,3.045,0,0,1,1.092-1.257A2.745,2.745,0,0,1,35.8-7a2.572,2.572,0,0,1,2.082.882,3.82,3.82,0,0,1,.743,2.526V-3.1H33.973a2.441,2.441,0,0,0,.594,1.641,1.866,1.866,0,0,0,1.444.625,2.045,2.045,0,0,0,1.054-.254,2.648,2.648,0,0,0,.755-.673l.717.559A2.884,2.884,0,0,1,35.947.127ZM35.8-6.03a1.566,1.566,0,0,0-1.193.517,2.515,2.515,0,0,0-.6,1.45h3.44v-.089a2.237,2.237,0,0,0-.482-1.387A1.475,1.475,0,0,0,35.8-6.03Zm8.182,4.208a.865.865,0,0,0-.359-.74,3.452,3.452,0,0,0-1.25-.454,5.912,5.912,0,0,1-1.416-.457,2.014,2.014,0,0,1-.774-.635,1.518,1.518,0,0,1-.251-.876,1.782,1.782,0,0,1,.714-1.428A2.789,2.789,0,0,1,42.472-7a2.87,2.87,0,0,1,1.895.6,1.915,1.915,0,0,1,.727,1.542H43.913a1.06,1.06,0,0,0-.409-.832,1.534,1.534,0,0,0-1.031-.349,1.605,1.605,0,0,0-1,.279.879.879,0,0,0-.362.73.712.712,0,0,0,.336.641,4.139,4.139,0,0,0,1.216.413,6.334,6.334,0,0,1,1.425.47,2.079,2.079,0,0,1,.809.657,1.615,1.615,0,0,1,.263.936,1.758,1.758,0,0,1-.736,1.476A3.089,3.089,0,0,1,42.51.127a3.459,3.459,0,0,1-1.46-.292,2.375,2.375,0,0,1-.993-.816A1.966,1.966,0,0,1,39.7-2.114h1.174a1.216,1.216,0,0,0,.473.936,1.835,1.835,0,0,0,1.165.346,1.894,1.894,0,0,0,1.07-.27A.829.829,0,0,0,43.983-1.822ZM50.927-.679a2.494,2.494,0,0,1-2.012.806,2.135,2.135,0,0,1-1.673-.638A2.761,2.761,0,0,1,46.662-2.4V-6.868h1.174v4.437q0,1.562,1.27,1.562a1.758,1.758,0,0,0,1.79-1v-5H52.07V0H50.953Zm4.2.679H53.955V-9.75h1.174ZM58.6-8.531v1.663h1.282v.908H58.6V-1.7a.951.951,0,0,0,.171.619.722.722,0,0,0,.584.206,2.843,2.843,0,0,0,.559-.076V0a3.4,3.4,0,0,1-.9.127,1.462,1.462,0,0,1-1.187-.476,2.045,2.045,0,0,1-.4-1.352V-5.96h-1.25v-.908h1.25V-8.531ZM65.5,0a2.467,2.467,0,0,1-.165-.724,2.62,2.62,0,0,1-1.955.851,2.424,2.424,0,0,1-1.666-.574A1.859,1.859,0,0,1,61.058-1.9a1.942,1.942,0,0,1,.816-1.666,3.846,3.846,0,0,1,2.295-.594h1.143V-4.7a1.319,1.319,0,0,0-.368-.981,1.48,1.48,0,0,0-1.085-.365,1.712,1.712,0,0,0-1.054.317.935.935,0,0,0-.425.768H61.2a1.621,1.621,0,0,1,.365-.993,2.491,2.491,0,0,1,.99-.759A3.331,3.331,0,0,1,63.927-7a2.715,2.715,0,0,1,1.86.594,2.141,2.141,0,0,1,.7,1.635v3.161a3.865,3.865,0,0,0,.241,1.5V0ZM63.546-.9a2.064,2.064,0,0,0,1.047-.286,1.728,1.728,0,0,0,.717-.743V-3.333h-.92q-2.158,0-2.158,1.263a1.069,1.069,0,0,0,.368.863A1.415,1.415,0,0,0,63.546-.9Zm4.494-2.6a4.023,4.023,0,0,1,.749-2.542A2.369,2.369,0,0,1,70.751-7a2.382,2.382,0,0,1,1.911.825V-9.75h1.174V0H72.757L72.7-.736a2.391,2.391,0,0,1-1.961.863,2.346,2.346,0,0,1-1.946-.978A4.069,4.069,0,0,1,68.041-3.4Zm1.174.133A3.046,3.046,0,0,0,69.7-1.53a1.56,1.56,0,0,0,1.333.66,1.713,1.713,0,0,0,1.631-1V-5.027A1.726,1.726,0,0,0,71.043-6a1.567,1.567,0,0,0-1.346.667A3.354,3.354,0,0,0,69.215-3.358Zm6.132-.14a4.057,4.057,0,0,1,.4-1.815,2.96,2.96,0,0,1,1.1-1.244A3.007,3.007,0,0,1,78.463-7a2.9,2.9,0,0,1,2.269.971A3.736,3.736,0,0,1,81.6-3.44v.083a4.092,4.092,0,0,1-.384,1.8,2.916,2.916,0,0,1-1.1,1.241,3.041,3.041,0,0,1-1.641.444,2.889,2.889,0,0,1-2.263-.971,3.718,3.718,0,0,1-.866-2.571Zm1.181.14a2.938,2.938,0,0,0,.53,1.834,1.7,1.7,0,0,0,1.419.692,1.686,1.686,0,0,0,1.422-.7A3.213,3.213,0,0,0,80.425-3.5a2.933,2.933,0,0,0-.536-1.831,1.705,1.705,0,0,0-1.425-.7,1.686,1.686,0,0,0-1.4.692A3.189,3.189,0,0,0,76.527-3.358ZM87.071-1.822a.864.864,0,0,0-.359-.74,3.452,3.452,0,0,0-1.25-.454,5.912,5.912,0,0,1-1.416-.457,2.014,2.014,0,0,1-.774-.635,1.518,1.518,0,0,1-.251-.876,1.782,1.782,0,0,1,.714-1.428A2.789,2.789,0,0,1,85.56-7a2.87,2.87,0,0,1,1.895.6,1.915,1.915,0,0,1,.727,1.542H87a1.06,1.06,0,0,0-.409-.832A1.534,1.534,0,0,0,85.56-6.03a1.606,1.606,0,0,0-1,.279.879.879,0,0,0-.362.73.712.712,0,0,0,.336.641,4.139,4.139,0,0,0,1.216.413,6.334,6.334,0,0,1,1.425.47,2.079,2.079,0,0,1,.809.657,1.615,1.615,0,0,1,.263.936,1.758,1.758,0,0,1-.736,1.476A3.089,3.089,0,0,1,85.6.127a3.459,3.459,0,0,1-1.46-.292,2.375,2.375,0,0,1-.993-.816,1.966,1.966,0,0,1-.359-1.133H83.96a1.216,1.216,0,0,0,.473.936A1.835,1.835,0,0,0,85.6-.832a1.894,1.894,0,0,0,1.07-.27A.829.829,0,0,0,87.071-1.822Z" transform="translate(4494.199 -7552.5)" fill="#12263f"/>
    <path id="Path_1243616" data-name="Path 1243616" d="M2.057,1.714H1.111V-9.242h.946ZM12.949-3.942a5.371,5.371,0,0,1-.7,3.066,2.506,2.506,0,0,1-2.2,1,2.524,2.524,0,0,1-2.19-.981,5.1,5.1,0,0,1-.736-2.929V-5.351a5.251,5.251,0,0,1,.7-3.028,2.525,2.525,0,0,1,2.209-.99,2.548,2.548,0,0,1,2.2.955,5.068,5.068,0,0,1,.724,2.948ZM11.775-5.548a4.3,4.3,0,0,0-.419-2.174A1.442,1.442,0,0,0,10.029-8.4a1.423,1.423,0,0,0-1.314.679A4.2,4.2,0,0,0,8.29-5.637v1.879a4.372,4.372,0,0,0,.435,2.212,1.439,1.439,0,0,0,1.317.714A1.42,1.42,0,0,0,11.334-1.5a4.214,4.214,0,0,0,.441-2.12ZM20.059-6.83A2.146,2.146,0,0,1,19.694-5.6a2.483,2.483,0,0,1-.987.844,2.649,2.649,0,0,1,1.146.908,2.284,2.284,0,0,1,.422,1.352,2.415,2.415,0,0,1-.809,1.911,3.109,3.109,0,0,1-2.13.711A3.1,3.1,0,0,1,15.2-.587a2.426,2.426,0,0,1-.8-1.907,2.352,2.352,0,0,1,.409-1.352,2.548,2.548,0,0,1,1.133-.914,2.422,2.422,0,0,1-.971-.844,2.177,2.177,0,0,1-.355-1.225,2.389,2.389,0,0,1,.749-1.854,2.81,2.81,0,0,1,1.974-.686,2.812,2.812,0,0,1,1.971.686A2.384,2.384,0,0,1,20.059-6.83ZM19.1-2.52a1.7,1.7,0,0,0-.492-1.263,1.745,1.745,0,0,0-1.285-.489,1.714,1.714,0,0,0-1.273.482,1.723,1.723,0,0,0-.479,1.27,1.641,1.641,0,0,0,.467,1.238,1.791,1.791,0,0,0,1.3.451,1.786,1.786,0,0,0,1.295-.454A1.637,1.637,0,0,0,19.1-2.52ZM17.335-8.4a1.515,1.515,0,0,0-1.12.428,1.574,1.574,0,0,0-.428,1.165,1.566,1.566,0,0,0,.422,1.139,1.5,1.5,0,0,0,1.127.435,1.5,1.5,0,0,0,1.127-.435,1.566,1.566,0,0,0,.422-1.139,1.567,1.567,0,0,0-.438-1.149A1.494,1.494,0,0,0,17.335-8.4ZM32.075-2.933A3.4,3.4,0,0,1,30.992-.67a3.547,3.547,0,0,1-2.422.8,3.257,3.257,0,0,1-2.625-1.174,4.724,4.724,0,0,1-.987-3.142v-.889a5.266,5.266,0,0,1,.46-2.266,3.438,3.438,0,0,1,1.3-1.5,3.632,3.632,0,0,1,1.955-.524,3.34,3.34,0,0,1,2.361.822,3.441,3.441,0,0,1,1.035,2.276H30.85a2.644,2.644,0,0,0-.689-1.6,2.088,2.088,0,0,0-1.482-.5,2.181,2.181,0,0,0-1.831.863,3.961,3.961,0,0,0-.663,2.457v.9a4.071,4.071,0,0,0,.628,2.393,2.031,2.031,0,0,0,1.758.889,2.345,2.345,0,0,0,1.558-.46,2.554,2.554,0,0,0,.72-1.6ZM33.243-3.5a4.057,4.057,0,0,1,.4-1.815,2.96,2.96,0,0,1,1.1-1.244A3.007,3.007,0,0,1,36.359-7a2.9,2.9,0,0,1,2.269.971A3.736,3.736,0,0,1,39.5-3.44v.083a4.092,4.092,0,0,1-.384,1.8,2.916,2.916,0,0,1-1.1,1.241,3.041,3.041,0,0,1-1.641.444,2.889,2.889,0,0,1-2.263-.971,3.718,3.718,0,0,1-.866-2.571Zm1.181.14a2.938,2.938,0,0,0,.53,1.834,1.7,1.7,0,0,0,1.419.692,1.686,1.686,0,0,0,1.422-.7A3.213,3.213,0,0,0,38.321-3.5a2.933,2.933,0,0,0-.536-1.831,1.705,1.705,0,0,0-1.425-.7,1.686,1.686,0,0,0-1.4.692A3.189,3.189,0,0,0,34.423-3.358Zm7.655-3.51L42.117-6A2.5,2.5,0,0,1,44.173-7q2.177,0,2.2,2.457V0H45.2V-4.545a1.581,1.581,0,0,0-.34-1.1A1.361,1.361,0,0,0,43.818-6a1.7,1.7,0,0,0-1,.3,2.069,2.069,0,0,0-.673.8V0H40.968V-6.868Zm7.655-1.663v1.663h1.282v.908H49.734V-1.7a.951.951,0,0,0,.171.619.722.722,0,0,0,.584.206,2.843,2.843,0,0,0,.559-.076V0a3.4,3.4,0,0,1-.9.127,1.462,1.462,0,0,1-1.187-.476,2.045,2.045,0,0,1-.4-1.352V-5.96h-1.25v-.908h1.25V-8.531Zm5.973,2.717a3.519,3.519,0,0,0-.578-.044,1.547,1.547,0,0,0-1.568.984V0H52.387V-6.868H53.53l.019.793A1.829,1.829,0,0,1,55.187-7a1.2,1.2,0,0,1,.521.089ZM56.348-3.5a4.057,4.057,0,0,1,.4-1.815,2.96,2.96,0,0,1,1.1-1.244A3.007,3.007,0,0,1,59.465-7a2.9,2.9,0,0,1,2.269.971A3.736,3.736,0,0,1,62.6-3.44v.083a4.092,4.092,0,0,1-.384,1.8,2.916,2.916,0,0,1-1.1,1.241,3.041,3.041,0,0,1-1.641.444,2.889,2.889,0,0,1-2.263-.971,3.718,3.718,0,0,1-.866-2.571Zm1.181.14a2.938,2.938,0,0,0,.53,1.834,1.7,1.7,0,0,0,1.419.692,1.686,1.686,0,0,0,1.422-.7A3.213,3.213,0,0,0,61.426-3.5a2.933,2.933,0,0,0-.536-1.831,1.705,1.705,0,0,0-1.425-.7,1.686,1.686,0,0,0-1.4.692A3.189,3.189,0,0,0,57.529-3.358ZM65.349,0H64.175V-9.75h1.174Z" transform="translate(4592.949 -7552.5)" fill="#12263f"/>
  </g>
</svg>
