<svg xmlns="http://www.w3.org/2000/svg" width="61" height="61" viewBox="0 0 61 61">
  <g id="Group_1202583" data-name="Group 1202583" transform="translate(-612.051 -16488)">
    <path id="Path_1243365" data-name="Path 1243365" d="M30.5,0A30.5,30.5,0,1,1,0,30.5,30.5,30.5,0,0,1,30.5,0Z" transform="translate(612.051 16488)" fill="#b7a8f1"/>
    <path id="Path_1243603" data-name="Path 1243603" d="M13.489,0H1.086V-2.686L6.8-8.691q2.112-2.4,2.112-3.821a2.658,2.658,0,0,0-.5-1.746,1.787,1.787,0,0,0-1.453-.6,1.809,1.809,0,0,0-1.526.8,3.286,3.286,0,0,0-.586,2H.72a5.837,5.837,0,0,1,.818-3.021,5.735,5.735,0,0,1,2.271-2.167,6.745,6.745,0,0,1,3.247-.781A6.635,6.635,0,0,1,11.493-16.7a4.75,4.75,0,0,1,1.556,3.821,5.548,5.548,0,0,1-.391,2.045,8.967,8.967,0,0,1-1.215,2.087A30.6,30.6,0,0,1,8.789-5.823L6.494-3.174h6.995Z" transform="translate(635.551 16525.5)" fill="#fff"/>
  </g>
</svg>
