<svg xmlns="http://www.w3.org/2000/svg" width="61" height="61" viewBox="0 0 61 61">
  <g id="Group_1202582" data-name="Group 1202582" transform="translate(-927.051 -16488)">
    <circle id="Ellipse_13353" data-name="Ellipse 13353" cx="30.5" cy="30.5" r="30.5" transform="translate(927.051 16488)" fill="#b7a8f1"/>
    <path id="Path_1243604" data-name="Path 1243604" d="M4.846-10.608H6.787a2.018,2.018,0,0,0,2.307-2.258A1.953,1.953,0,0,0,8.545-14.3a2.083,2.083,0,0,0-1.55-.555,2.23,2.23,0,0,0-1.422.476,1.452,1.452,0,0,0-.6,1.184H.854a4.211,4.211,0,0,1,.781-2.5A5.159,5.159,0,0,1,3.8-17.413a7.408,7.408,0,0,1,3.046-.616,7.279,7.279,0,0,1,4.663,1.355,4.5,4.5,0,0,1,1.7,3.723,3.754,3.754,0,0,1-.7,2.167,5,5,0,0,1-2.045,1.654,4.778,4.778,0,0,1,2.222,1.556,4.1,4.1,0,0,1,.806,2.582,4.586,4.586,0,0,1-1.831,3.809A7.6,7.6,0,0,1,6.848.244,7.882,7.882,0,0,1,3.607-.421,5.078,5.078,0,0,1,1.343-2.264,4.792,4.792,0,0,1,.574-4.944H4.712a1.852,1.852,0,0,0,.659,1.416,2.327,2.327,0,0,0,1.624.6,2.438,2.438,0,0,0,1.733-.6,2.02,2.02,0,0,0,.647-1.544,2.361,2.361,0,0,0-.671-1.9,2.807,2.807,0,0,0-1.855-.562h-2Z" transform="translate(950.551 16525.5)" fill="#fff"/>
  </g>
</svg>
