<svg xmlns="http://www.w3.org/2000/svg" width="126.61" height="65" viewBox="0 0 126.61 65">
  <g id="Group_1202564" data-name="Group 1202564" transform="translate(-736.301 -1517.957)">
    <g id="Group_1202506" data-name="Group 1202506" transform="translate(-53.48 -1041.043)">
      <g id="Group_1200259" data-name="Group 1200259" transform="translate(-6 557.578)">
        <g id="Rectangle_410589" data-name="Rectangle 410589" transform="translate(795.781 2013.422)" fill="#ffeb00" stroke="#ffeb00" stroke-width="1">
          <rect width="126.61" height="43.021" rx="8" stroke="none"/>
          <rect x="0.5" y="0.5" width="125.61" height="42.021" rx="7.5" fill="none"/>
        </g>
      </g>
    </g>
    <path id="Path_1243329" data-name="Path 1243329" d="M32.5,0A32.5,32.5,0,1,1,0,32.5,32.5,32.5,0,0,1,32.5,0Z" transform="translate(767.301 1517.957)" fill="#7f74a8"/>
    <path id="Path_1243556" data-name="Path 1243556" d="M5.473,0H-5.248V-2.127L-.188-7.52A12.482,12.482,0,0,0,1.354-9.507a3.193,3.193,0,0,0,.5-1.611,2.389,2.389,0,0,0-.526-1.638,1.9,1.9,0,0,0-1.5-.6,2.049,2.049,0,0,0-1.66.725,2.872,2.872,0,0,0-.607,1.907H-5.559a5.128,5.128,0,0,1,.682-2.61,4.808,4.808,0,0,1,1.928-1.853,5.861,5.861,0,0,1,2.825-.671A5.549,5.549,0,0,1,3.631-14.7a4.1,4.1,0,0,1,1.337,3.276,5.259,5.259,0,0,1-.6,2.363A13.133,13.133,0,0,1,2.3-6.252L-1.251-2.5H5.473Z" transform="translate(800.634 1556.457)" fill="#fff"/>
  </g>
</svg>
