<svg xmlns="http://www.w3.org/2000/svg" width="126.61" height="65" viewBox="0 0 126.61 65">
  <g id="Group_1202565" data-name="Group 1202565" transform="translate(-1083.551 -1517.957)">
    <g id="Group_1202507" data-name="Group 1202507" transform="translate(293.77 -1041.043)">
      <g id="Group_1200259" data-name="Group 1200259" transform="translate(-6 557.578)">
        <g id="Rectangle_410589" data-name="Rectangle 410589" transform="translate(795.781 2013.422)" fill="#ffeb00" stroke="#ffeb00" stroke-width="1">
          <rect width="126.61" height="43.021" rx="8" stroke="none"/>
          <rect x="0.5" y="0.5" width="125.61" height="42.021" rx="7.5" fill="none"/>
        </g>
      </g>
    </g>
    <path id="Path_1243330" data-name="Path 1243330" d="M32.5,0A32.5,32.5,0,1,1,0,32.5,32.5,32.5,0,0,1,32.5,0Z" transform="translate(1114.551 1517.957)" fill="#7f74a8"/>
    <path id="Path_1243557" data-name="Path 1243557" d="M-2.089-9.2H-.435a2.331,2.331,0,0,0,1.751-.591,2.165,2.165,0,0,0,.569-1.568,1.914,1.914,0,0,0-.564-1.472,2.186,2.186,0,0,0-1.552-.526,2.291,2.291,0,0,0-1.493.489,1.563,1.563,0,0,0-.6,1.273h-3.1a3.818,3.818,0,0,1,.661-2.2,4.4,4.4,0,0,1,1.848-1.52,6.166,6.166,0,0,1,2.616-.548,5.848,5.848,0,0,1,3.889,1.187A4.05,4.05,0,0,1,4.99-11.4a3.291,3.291,0,0,1-.655,1.977A4.257,4.257,0,0,1,2.616-8.035,3.886,3.886,0,0,1,4.587-6.617a3.846,3.846,0,0,1,.65,2.234,4.117,4.117,0,0,1-1.52,3.341A6.112,6.112,0,0,1-.306.215a5.8,5.8,0,0,1-3.83-1.235A4.034,4.034,0,0,1-5.624-4.286h3.1a1.8,1.8,0,0,0,.661,1.439,2.434,2.434,0,0,0,1.627.559A2.446,2.446,0,0,0,1.5-2.874a2.021,2.021,0,0,0,.628-1.552q0-2.342-2.578-2.342H-2.089Z" transform="translate(1147.884 1556.457)" fill="#fff"/>
  </g>
</svg>
